SplineFontDB: 3.0
FontName: LoyalBoldv1
FullName: Loyal Bold
FamilyName: Loyal
Weight: Bold
Copyright: Copyright (c) 2023, Emmet Blanchette
Version: 001.000
ItalicAngle: 0
UnderlinePosition: -100
UnderlineWidth: 50
Ascent: 800
Descent: 200
InvalidEm: 0
sfntRevision: 0x00010000
LayerCount: 2
Layer: 0 0 "Back" 1
Layer: 1 0 "Fore" 0
XUID: [1021 827 1087830365 9855425]
StyleMap: 0x0020
FSType: 0
OS2Version: 4
OS2_WeightWidthSlopeOnly: 0
OS2_UseTypoMetrics: 1
CreationTime: 1702354516
ModificationTime: 1703556374
PfmFamily: 17
TTFWeight: 700
TTFWidth: 5
LineGap: 90
VLineGap: 0
Panose: 2 0 8 3 0 0 0 0 0 0
OS2TypoAscent: 800
OS2TypoAOffset: 0
OS2TypoDescent: -200
OS2TypoDOffset: 0
OS2TypoLinegap: 90
OS2WinAscent: 639
OS2WinAOffset: 0
OS2WinDescent: 200
OS2WinDOffset: 0
HheadAscent: 639
HheadAOffset: 0
HheadDescent: -200
HheadDOffset: 0
OS2SubXSize: 650
OS2SubYSize: 700
OS2SubXOff: 0
OS2SubYOff: 140
OS2SupXSize: 650
OS2SupYSize: 700
OS2SupXOff: 0
OS2SupYOff: 480
OS2StrikeYSize: 49
OS2StrikeYPos: 258
OS2CapHeight: 619
OS2XHeight: 421
OS2Vendor: 'PfEd'
OS2CodePages: 00000001.00000000
OS2UnicodeRanges: 80000001.40000000.00000000.00000000
Lookup: 4 0 1 "<1,2> Common Ligatures in Latin lookup 0" { "<1,2> Common Ligatures in Latin lookup 0 subtable"  } [<1,2> ('latn' <'dflt' > ) 'liga' ('latn' <'dflt' > ) ]
Lookup: 258 0 0 "'kern' Horizontal Kerning in Latin lookup 0" { "'kern' Horizontal Kerning in Latin lookup 0 subtable"  } ['kern' ('DFLT' <'dflt' > 'latn' <'dflt' > ) ]
DEI: 91125
MacFeat: 0 0 0
MacName: 0 0 24 "All Typographic Features"
MacName: 0 1 24 "Fonctions typographiques"
MacName: 0 2 33 "Alle typografischen M\232glichkeiten"
MacName: 0 3 21 "Funzioni Tipografiche"
MacName: 0 4 28 "Alle typografische kenmerken"
MacSetting: 0
MacName: 0 0 17 "All Type Features"
MacName: 0 1 31 "Toutes fonctions typographiques"
MacName: 0 2 23 "Alle Auszeichnungsarten"
MacName: 0 3 17 "Tutte le Funzioni"
MacName: 0 4 18 "Alle typekenmerken"
MacFeat: 1 0 0
MacName: 0 0 9 "Ligatures"

StartChar: exclam
Encoding: 33 33 1
Width: 196
Flags: HMW
HStem: -16.04 118.64 613.63 20G
VStem: -0.320312 118.641 11.71 94.5996
LayerCount: 2
Fore
SplineSet
82.7294921875 138 m 1xd0
 75.830078125 138 l 1
 68.9296875 138 l 1
 49.08984375 138 l 1
 42.189453125 138 l 1
 35.2900390625 138 l 1
 34.7158203125 144.875976562 l 1
 34.1416015625 151.751953125 l 2
 34.125 151.958007812 11.7099609375 396.690429688 11.7099609375 611.080078125 c 0
 11.7099609375 623.532226562 21.8076171875 633.629882812 34.259765625 633.629882812 c 2
 83.900390625 633.629882812 l 2
 96.27734375 633.629882812 106.309570312 623.591796875 106.309570312 611.219726562 c 0
 106.309570312 396.69140625 83.89453125 151.958007812 83.8779296875 151.751953125 c 2
 83.3037109375 144.875976562 l 1
 82.7294921875 138 l 1xd0
118.3203125 43.2802734375 m 0xe0
 118.3203125 10.5205078125 91.763671875 -16.0400390625 59 -16.0400390625 c 0
 26.240234375 -16.0400390625 -0.3203125 10.5166015625 -0.3203125 43.2802734375 c 0
 -0.3203125 76.0390625 26.236328125 102.599609375 59 102.599609375 c 0
 91.7587890625 102.599609375 118.3203125 76.04296875 118.3203125 43.2802734375 c 0xe0
EndSplineSet
EndChar

StartChar: comma
Encoding: 44 44 2
Width: 155
Flags: HMW
HStem: -77.6836 144.124
VStem: -1.16016 120.32
LayerCount: 2
Fore
SplineSet
29.251953125 -57.392578125 m 5
 25.73828125 -51.3828125 l 6
 23.5693359375 -48.0458984375 23.197265625 -47.2666015625 23.197265625 -47.2666015625 c 6
 21.154296875 -43.9140625 13.123046875 -26.1572265625 33.6630859375 -17.8291015625 c 4
 34.8017578125 -17.3427734375 36.826171875 -16.5224609375 38.087890625 -16 c 5
 14.3427734375 -8.7138671875 -1.16015625 9.0947265625 -1.16015625 30.4443359375 c 4
 -1.16015625 58.3720703125 26.4560546875 79.916015625 59 79.916015625 c 4
 91.5595703125 79.916015625 119.16015625 58.32421875 119.16015625 30.36328125 c 4
 119.16015625 21.92578125 119.0546875 14.970703125 117.337890625 7.1708984375 c 4
 116.28515625 2.3896484375 114.6796875 -2.4619140625 112.356445312 -8.03125 c 4
 101.651367188 -33.568359375 72.1005859375 -44.8896484375 46.1357421875 -56.740234375 c 6
 39.5595703125 -60.4345703125 l 5
 32.8427734375 -64.2080078125 l 5
 29.251953125 -57.392578125 l 5
EndSplineSet
EndChar

StartChar: hyphen
Encoding: 45 45 3
Width: 290
Flags: MW
HStem: 153.72 94.6104
VStem: -0.200195 246.4
LayerCount: 2
Fore
SplineSet
246.200195312 153.719726562 m 1
 238.700195312 153.719726562 l 1
 231.200195312 153.719726562 l 1
 15.6904296875 153.719726562 l 2
 6.9130859375 153.719726562 -0.2001953125 160.833007812 -0.2001953125 169.610351562 c 2
 -0.2001953125 233.330078125 l 1
 -0.2001953125 240.830078125 l 1
 -0.2001953125 248.330078125 l 1
 7.2998046875 248.330078125 l 1
 14.7998046875 248.330078125 l 1
 230.309570312 248.330078125 l 2
 239.077148438 248.330078125 246.200195312 241.228515625 246.200195312 232.440429688 c 2
 246.200195312 168.719726562 l 1
 246.200195312 161.219726562 l 1
 246.200195312 153.719726562 l 1
EndSplineSet
EndChar

StartChar: period
Encoding: 46 46 4
Width: 176
Flags: HMW
HStem: -46.1504 120.32
VStem: -0.160156 120.32
LayerCount: 2
Fore
SplineSet
120.16015625 44.16015625 m 4
 120.16015625 10.9365234375 93.2236328125 -16 60 -16 c 4
 26.7763671875 -16 -0.16015625 10.9365234375 -0.16015625 44.16015625 c 4
 -0.16015625 77.3837890625 26.7763671875 104.3203125 60 104.3203125 c 4
 93.2236328125 104.3203125 120.16015625 77.3837890625 120.16015625 44.16015625 c 4
EndSplineSet
EndChar

StartChar: slash
Encoding: 47 47 5
Width: 265
Flags: MW
VStem: -2.74414 249.268
LayerCount: 2
Fore
SplineSet
58.755859375 4.7197265625 m 1
 55.9248046875 -5.1826171875 l 1
 55.66015625 -6.109375 l 1
 55.169921875 -6.9384765625 l 2
 49.912109375 -15.8310546875 37.466796875 -16.6083984375 29.44140625 -15.7109375 c 2
 28.2216796875 -15.5234375 l 1
 27.7392578125 -15.380859375 l 2
 24.7392578125 -14.4970703125 16.67578125 -12.154296875 16.67578125 -12.154296875 c 1
 9.5205078125 -10.080078125 l 1
 -2.744140625 -6.5244140625 l 1
 182.836914062 607.09375 l 2
 186.178710938 618.895507812 187.385742188 623.16796875 187.385742188 623.16796875 c 1
 187.6484375 624.096679688 l 1
 195.447265625 635.435546875 207.555664062 634.483398438 216.028320312 633.03515625 c 2
 216.561523438 632.944335938 l 1
 217.076171875 632.77734375 l 2
 220.814453125 631.56640625 228.372070312 628.711914062 228.504882812 628.662109375 c 2
 234.9296875 626.190429688 l 1
 246.5234375 621.727539062 l 1
 58.755859375 4.7197265625 l 1
EndSplineSet
EndChar

StartChar: zero
Encoding: 48 48 6
Width: 508
Flags: MW
HStem: -16.0498 49.8301 583.8 49.8799
VStem: 0.110352 94.6094 383.28 94.6094
LayerCount: 2
Fore
SplineSet
0.1103515625 314.140625 m 0
 0.1103515625 545.388671875 113.244140625 633.6796875 253.1796875 633.6796875 c 0
 376.245117188 633.6796875 477.889648438 553.916015625 477.889648438 318.48828125 c 0
 477.889648438 137.131835938 423.069335938 -16.0595703125 255.349609375 -16.0498046875 c 0
 88.1513671875 -16.0498046875 0.1103515625 122.499023438 0.1103515625 314.140625 c 0
383.280273438 318.412109375 m 0
 383.280273438 462.9609375 347.284179688 583.799804688 246.8203125 583.799804688 c 0
 139.231445312 583.799804688 94.7197265625 467.1328125 94.7197265625 321.381835938 c 0
 94.7197265625 145.634765625 179.6796875 33.7802734375 248.240234375 33.7802734375 c 0
 316.749023438 33.7802734375 383.280273438 105.126953125 383.280273438 318.412109375 c 0
EndSplineSet
EndChar

StartChar: one
Encoding: 49 49 7
Width: 288
Flags: MW
HStem: 0.0195312 43.7705 496.003 41.9639 599.69 20G
VStem: 90.7002 94.54
LayerCount: 2
Fore
SplineSet
-0.1904296875 516.248046875 m 2
 -0.1904296875 527.456054688 9.03515625 537.966796875 22.2998046875 537.966796875 c 2
 42.349609375 537.966796875 l 2
 75.2724609375 537.966796875 90.7802734375 545.93359375 90.7802734375 581.204101562 c 0
 90.7802734375 602.66015625 109.151367188 619.690429688 131.169921875 619.690429688 c 2
 170.240234375 619.690429688 l 1
 177.740234375 619.690429688 l 1
 185.240234375 619.690429688 l 1
 185.240234375 612.190429688 l 1
 185.240234375 604.8828125 l 1
 185.240234375 86.826171875 l 2
 185.240234375 47.6904296875 202.524414062 43.7900390625 216.290039062 43.7900390625 c 2
 231.700195312 43.7900390625 l 2
 244.165039062 43.7900390625 254.190429688 33.5947265625 254.190429688 21.1298828125 c 2
 254.190429688 15.01953125 l 1
 254.190429688 7.51953125 l 1
 254.190429688 0.01953125 l 1
 246.690429688 0.01953125 l 1
 239.190429688 0.01953125 l 1
 36.759765625 0.01953125 l 1
 29.259765625 0.01953125 l 1
 21.759765625 0.01953125 l 1
 21.759765625 7.51953125 l 1
 21.759765625 15.01953125 l 1
 21.759765625 21.1298828125 l 2
 21.759765625 32.66015625 30.82421875 43.7900390625 44.25 43.7900390625 c 2
 59.5703125 43.7900390625 l 2
 72.6826171875 43.7900390625 90.7001953125 47.890625 90.7001953125 86.8564453125 c 2
 90.7001953125 496.002929688 l 1
 14.8095703125 496.002929688 l 1
 7.3095703125 496.002929688 l 1
 -0.1904296875 496.002929688 l 1
 -0.1904296875 503.3125 l 1
 -0.1904296875 510.44140625 l 1
 -0.1904296875 516.248046875 l 2
EndSplineSet
EndChar

StartChar: two
Encoding: 50 50 8
Width: 462
Flags: MW
HStem: 0 94.6016 427.69 21G 584.18 49.3701
VStem: -0.610352 100.101 331.96 98.5801
LayerCount: 2
Fore
SplineSet
99.490234375 477.740234375 m 0
 99.490234375 450.09765625 77.0849609375 427.690429688 49.4404296875 427.690429688 c 0
 21.798828125 427.690429688 -0.6103515625 450.09375 -0.6103515625 477.740234375 c 0
 -0.6103515625 507.588867188 10.4384765625 535.21875 38.1171875 565.390625 c 0
 70.986328125 601.21484375 128.166015625 633.549804688 213.440429688 633.549804688 c 0
 318.37109375 633.549804688 430.540039062 598.151367188 430.540039062 481.838867188 c 0
 430.540039062 392.87890625 360.194335938 333.470703125 322.553710938 300.623046875 c 2
 91.021484375 94.6015625 l 1
 343.55859375 94.6015625 l 2
 363.794921875 94.525390625 408.049804688 94.4404296875 408.049804688 94.4404296875 c 2
 418.732421875 94.4404296875 434.344726562 85.0341796875 430.092773438 68.1435546875 c 0
 429.2109375 64.6181640625 415.891601562 11.361328125 415.891601562 11.3603515625 c 2
 414.470703125 5.6806640625 l 1
 413.05078125 0 l 1
 407.1953125 0 l 1
 401.33984375 0 l 1
 6.2900390625 0 l 1
 -1.2099609375 0 l 1
 -8.7099609375 0 l 1
 -8.7099609375 7.5 l 1
 -8.7099609375 14.8095703125 l 1
 -8.7099609375 60.626953125 l 1
 -8.7099609375 63.712890625 l 1
 -8.7099609375 66.931640625 l 1
 -6.2744140625 69.1044921875 l 1
 -3.90625 71.216796875 l 1
 222.989257812 273.645507812 l 2
 254.126953125 302.081054688 292.532226562 333.508789062 307.970703125 358.512695312 c 0
 324.6796875 385.616210938 331.959960938 408.569335938 331.959960938 476.064453125 c 0
 331.959960938 562.267578125 265.157226562 584.1796875 199 584.1796875 c 0
 114.837890625 584.1796875 84.462890625 535.670898438 83.0009765625 530.131835938 c 0
 82.029296875 526.461914062 81.171875 518.897460938 80.970703125 516.385742188 c 0
 93.2060546875 506.25390625 99.490234375 493.213867188 99.490234375 477.740234375 c 0
EndSplineSet
EndChar

StartChar: three
Encoding: 51 51 9
Width: 436
Flags: MW
HStem: -16.0303 49.8604 310.03 50.0693 583.81 49.79
VStem: -1.67969 100.069 16.3623 99.5674 296.29 94.6104 307.07 94.6201
LayerCount: 2
Fore
SplineSet
184.900390625 633.599609375 m 0xec
 316.790039062 633.599609375 390.900390625 571.302734375 390.900390625 472.052734375 c 0xec
 390.900390625 411.916992188 348.029296875 357.99609375 298.987304688 332.993164062 c 1
 352.768554688 309.443359375 401.681640625 258.950195312 401.690429688 185.614257812 c 0
 401.690429688 7.955078125 234.24609375 -16.0302734375 183.919921875 -16.0302734375 c 0
 90.537109375 -16.0302734375 20.13671875 30.44140625 2.8779296875 84.4853515625 c 0
 -1.1220703125 97.037109375 -1.6796875 107.313476562 -1.6796875 117.828125 c 0
 -1.3935546875 145.344726562 20.8427734375 167.450195312 48.33984375 167.450195312 c 0
 75.982421875 167.450195312 98.3896484375 145.044921875 98.3896484375 117.400390625 c 0
 98.3896484375 100.692382812 89.2431640625 86.447265625 79.376953125 78.3349609375 c 1
 85.568359375 45.3515625 125.321289062 33.830078125 175.469726562 33.830078125 c 0
 278.734375 33.830078125 307.0703125 118.086914062 307.0703125 181.446289062 c 0xf2
 307.0703125 284.946289062 226.4921875 310.030273438 168.26953125 310.030273438 c 2
 160.76953125 310.030273438 l 1
 153.26953125 310.030273438 l 1
 153.26953125 317.530273438 l 1
 153.26953125 325.030273438 l 1
 153.26953125 345.099609375 l 1
 153.26953125 352.599609375 l 1
 153.26953125 360.099609375 l 1
 160.76953125 360.099609375 l 1
 168.26953125 360.099609375 l 2
 231.98046875 360.099609375 296.290039062 427.034179688 296.290039062 467.5 c 0
 296.290039062 565.623046875 240.6875 583.809570312 185.799804688 583.809570312 c 0
 140.75 583.809570312 108.162109375 562.258789062 98.4970703125 543.857421875 c 1
 110.73828125 533.044921875 115.9296875 520.909179688 115.9296875 506.030273438 c 0
 115.9296875 478.388671875 93.5263671875 455.98046875 65.8798828125 455.98046875 c 0
 39.8203125 455.98046875 19.8388671875 475.17578125 16.3623046875 499.971679688 c 0
 14.1025390625 513.029296875 16.111328125 528.19921875 19.79296875 539.461914062 c 0
 42.8232421875 609.89453125 123.758789062 633.599609375 184.900390625 633.599609375 c 0xec
EndSplineSet
EndChar

StartChar: four
Encoding: 52 52 10
Width: 490
Flags: MW
HStem: 0.0302734 43.7695 171.01 49.8799 599.7 20G
VStem: 280.56 94.54
LayerCount: 2
Fore
SplineSet
0.5 209.817382812 m 1
 2.1767578125 211.849609375 l 1
 3.9853515625 214.040039062 l 1
 328.090820312 606.729492188 l 2
 334.889648438 614.938476562 345.13671875 619.700195312 355.959960938 619.700195312 c 2
 360.099609375 619.700195312 l 1
 367.599609375 619.700195312 l 1
 375.099609375 619.700195312 l 1
 375.099609375 612.200195312 l 1
 375.099609375 604.840820312 l 1
 375.099609375 220.900390625 l 1
 431.009765625 220.900390625 l 2
 443.474609375 220.900390625 453.5 210.705078125 453.5 198.240234375 c 2
 453.5 186 l 1
 453.5 178.5 l 1
 453.5 171 l 1
 446 171 l 1
 438.5 171 l 1
 375.099609375 171 l 1
 375.099609375 84.37890625 l 2
 375.099609375 47.533203125 392.248046875 43.7998046875 406.150390625 43.7998046875 c 2
 421.559570312 43.7998046875 l 2
 434.024414062 43.7998046875 444.049804688 33.6044921875 444.049804688 21.1396484375 c 2
 444.049804688 15.0302734375 l 1
 444.049804688 7.5302734375 l 1
 444.049804688 0.0302734375 l 1
 436.549804688 0.0302734375 l 1
 429.049804688 0.0302734375 l 1
 226.620117188 0.0302734375 l 1
 219.120117188 0.0302734375 l 1
 211.620117188 0.0302734375 l 1
 211.620117188 7.5302734375 l 1
 211.620117188 15.0302734375 l 1
 211.620117188 21.1396484375 l 2
 211.620117188 32.669921875 220.684570312 43.7998046875 234.110351562 43.7998046875 c 2
 249.4296875 43.7998046875 l 2
 262.682617188 43.7998046875 280.559570312 47.7236328125 280.559570312 84.37890625 c 2
 280.559570312 171.009765625 l 1
 15.5 171.009765625 l 1
 8 171.009765625 l 1
 0.5 171.009765625 l 1
 0.5 178.38671875 l 1
 0.5 185.639648438 l 1
 0.5 204.615234375 l 1
 0.5 207.200195312 l 1
 0.5 209.817382812 l 1
280.559570312 481.928710938 m 1
 72.22265625 220.889648438 l 1
 280.559570312 220.889648438 l 1
 280.559570312 481.928710938 l 1
EndSplineSet
EndChar

StartChar: five
Encoding: 53 53 11
Width: 469
Flags: MW
HStem: -16.0195 49.8096 373.27 50.1006 525.09 94.6104
VStem: -1.82031 100.101 19.5996 49.8906 331.86 99.96
LayerCount: 2
Fore
SplineSet
431.8203125 217.934570312 m 0xec
 431.8203125 42.8310546875 286.4921875 -16.01953125 180.489257812 -16.01953125 c 0
 75.7939453125 -16.01953125 -1.8203125 46.890625 -1.8203125 118.030273438 c 0
 -1.8203125 145.671875 20.5849609375 168.080078125 48.23046875 168.080078125 c 0
 75.8720703125 168.080078125 98.2802734375 145.67578125 98.2802734375 118.030273438 c 0xf4
 98.2802734375 102.598632812 90.109375 88.9375 81.8349609375 81.1923828125 c 1
 90.07421875 51.4345703125 120.63671875 33.7900390625 180.490234375 33.7900390625 c 0
 298.68359375 33.7900390625 331.860351562 100.821289062 331.860351562 223.419921875 c 0
 331.860351562 365.20703125 210.622070312 373.26953125 157.459960938 373.26953125 c 0
 108.376953125 373.26953125 81.3349609375 367.07421875 41.3603515625 346.890625 c 2
 30.48046875 341.396484375 l 1
 19.599609375 335.903320312 l 1
 19.599609375 348.091796875 l 1
 19.599609375 360.280273438 l 1
 19.599609375 604.928710938 l 1
 19.599609375 612.200195312 l 1
 19.599609375 619.700195312 l 1
 27.099609375 619.700195312 l 1
 34.599609375 619.700195312 l 1
 367.75 619.700195312 l 1
 377.35546875 619.700195312 l 1
 386.9609375 619.700195312 l 1
 384.631835938 610.381835938 l 1
 382.302734375 601.0625 l 1
 367.490234375 541.801757812 l 2
 365.02734375 531.983398438 356.201171875 525.08984375 346.0703125 525.08984375 c 2
 69.490234375 525.08984375 l 1
 69.490234375 412.568359375 l 1
 102.63671875 421.9453125 131.37109375 423.370117188 167.370117188 423.370117188 c 0
 233.549804688 423.370117188 431.8203125 402.765625 431.8203125 217.934570312 c 0xec
EndSplineSet
EndChar

StartChar: six
Encoding: 54 54 12
Width: 449
Flags: MW
HStem: -16.0898 50.3994 363.83 49.5098
VStem: 0.549805 102.851 330.79 94.6699
LayerCount: 2
Fore
SplineSet
388.109375 598.09375 m 1
 381.486328125 596.182617188 l 1
 374.997070312 594.310546875 l 2
 270.459960938 563.733398438 149.170898438 515.8828125 105.692382812 369.80859375 c 1
 132.983398438 392.83984375 172.560546875 413.33984375 224.709960938 413.33984375 c 0
 367.015625 413.33984375 425.459960938 303.111328125 425.459960938 209.609375 c 0
 425.459960938 40.505859375 307.551757812 -16.08984375 219.66015625 -16.08984375 c 0
 118.4140625 -16.08984375 0.5498046875 46.4765625 0.5498046875 260.147460938 c 0
 0.5498046875 481.74609375 204.66796875 599.9140625 342.083007812 629.856445312 c 0
 349.877929688 631.641601562 353.03515625 632.314453125 357.99609375 633.171875 c 0
 369.530273438 635.046875 381.483398438 628.284179688 384.0625 616.494140625 c 0
 384.724609375 613.5859375 385.315429688 610.874023438 385.315429688 610.874023438 c 1
 386.6796875 604.6328125 l 1
 388.109375 598.09375 l 1
221.860351562 363.830078125 m 0
 143.372070312 363.830078125 103.400390625 279.12890625 103.400390625 199.080078125 c 0
 103.400390625 98.5927734375 145.692382812 34.3095703125 226.8203125 34.3095703125 c 0
 296.854492188 34.3095703125 330.780273438 114.075195312 330.790039062 197.643554688 c 0
 330.790039062 275.528320312 303.0078125 363.830078125 221.860351562 363.830078125 c 0
EndSplineSet
EndChar

StartChar: seven
Encoding: 55 55 13
Width: 442
Flags: MW
HStem: 524.9 94.6396
LayerCount: 2
Fore
SplineSet
415.283203125 619.540039062 m 1
 410.891601562 609.3671875 l 1
 406.625976562 599.484375 l 1
 144.827148438 -6.9619140625 l 1
 141.979492188 -13.71484375 l 1
 139.120117188 -20.6572265625 l 1
 132.180664062 -17.7900390625 l 1
 125.2421875 -14.9228515625 l 1
 114.50390625 -10.6064453125 l 2
 105.078125 -6.9169921875 95.8720703125 4.525390625 101.512695312 17.478515625 c 2
 101.512695312 17.478515625 102.279296875 19.24609375 104.268554688 23.81640625 c 2
 322.143554688 524.900390625 l 1
 107.290039062 524.900390625 l 2
 60.2666015625 524.900390625 55.345703125 503.744140625 46.8994140625 472.327148438 c 0
 43.7783203125 460.680664062 42.8447265625 457.384765625 42.8447265625 457.384765625 c 2
 39.7177734375 445.478515625 27.193359375 438.39453125 15.3173828125 441.546875 c 0
 10.7548828125 442.693359375 10.5107421875 442.805664062 10.5107421875 442.805664062 c 1
 9.2119140625 443.165039062 l 1
 2.3779296875 445.060546875 l 1
 -4.45703125 446.955078125 l 1
 -2.9462890625 453.884765625 l 1
 -1.4365234375 460.814453125 l 1
 30.583984375 607.734375 l 1
 31.87109375 613.63671875 l 1
 33.1572265625 619.540039062 l 1
 39.19921875 619.540039062 l 1
 45.240234375 619.540039062 l 1
 392.780273438 619.540039062 l 1
 403.98046875 619.540039062 l 1
 415.283203125 619.540039062 l 1
EndSplineSet
EndChar

StartChar: eight
Encoding: 56 56 14
Width: 419
Flags: MW
HStem: -17.1504 50.79 583.77 49.7109
VStem: -1.38965 93.6396 274.76 83.8701 279.74 94.6396
LayerCount: 2
Fore
SplineSet
183.370117188 633.48046875 m 0xe8
 288.504882812 633.48046875 358.629882812 569.993164062 358.629882812 497.279296875 c 0xf0
 358.629882812 434.868164062 322.588867188 400.608398438 236.587890625 335.838867188 c 1
 329.89453125 265.185546875 374.379882812 221.728515625 374.379882812 144.340820312 c 0
 374.379882812 60.8876953125 300.481445312 -17.150390625 183.940429688 -17.150390625 c 0
 62.69921875 -17.150390625 -1.3896484375 63.5439453125 -1.3896484375 137.30859375 c 0
 -1.3896484375 215.299804688 44.4296875 261.25 114.716796875 314.905273438 c 1
 17.2421875 391.876953125 4.240234375 425.108398438 4.240234375 479.030273438 c 0
 4.240234375 554.833007812 63.1123046875 633.48046875 183.370117188 633.48046875 c 0xe8
274.759765625 486.370117188 m 0
 274.759765625 539.467773438 237.875976562 583.76953125 184.240234375 583.76953125 c 0
 128.0625 583.76953125 98.7998046875 536.4375 98.7998046875 499.360351562 c 0
 98.7998046875 455.764648438 106.123046875 435.440429688 196.646484375 355.500976562 c 1
 260.919921875 414.525390625 274.759765625 440.489257812 274.759765625 486.370117188 c 0
154.416015625 296.724609375 m 1
 112.647460938 258.061523438 92.25 235.139648438 92.25 150.240234375 c 0
 92.25 68.8486328125 152.159179688 33.6396484375 190 33.6396484375 c 0
 242.724609375 33.6396484375 279.749023438 73.7705078125 279.740234375 121.0703125 c 0xe8
 279.740234375 181.041015625 256.474609375 207.100585938 154.416015625 296.724609375 c 1
EndSplineSet
EndChar

StartChar: nine
Encoding: 57 57 15
Width: 461
Flags: MW
HStem: 203.97 49.5107 583 50.5<164.157 239.744>
VStem: 0.549805 94.6602 322.6 102.851
LayerCount: 2
Fore
SplineSet
0.5498046875 407.702148438 m 0
 0.5498046875 576.80078125 118.446289062 633.5 206.349609375 633.5 c 0
 307.134765625 633.5 425.450195312 577.44140625 425.450195312 356.981445312 c 0
 425.450195312 148.500976562 251.541015625 44.333984375 158.155273438 9.9033203125 c 0
 122.276367188 -3.32421875 66.0966796875 -22.1669921875 66.083984375 -22.1708984375 c 2
 58.736328125 -24.7509765625 l 1
 51.3642578125 -27.33984375 l 1
 49.080078125 -19.8681640625 l 1
 46.8046875 -12.6689453125 l 1
 46.8046875 -12.6689453125 44.388671875 -5.2646484375 43.408203125 -2.2705078125 c 0
 40.2802734375 7.2998046875 44.09375 20.994140625 57.83984375 24.9423828125 c 0
 57.9033203125 24.9609375 59.6328125 25.458984375 64.865234375 26.9619140625 c 2
 64.865234375 26.9619140625 175.913085938 57.3408203125 244.561523438 119.799804688 c 0
 271.83984375 145.178710938 298.862304688 185.124023438 317.586914062 245.233398438 c 1
 290.016601562 222.857421875 251.721679688 203.969726562 201.299804688 203.969726562 c 0
 58.9951171875 203.969726562 0.5498046875 314.198242188 0.5498046875 407.702148438 c 0
199.1796875 583 m 0
 129.134765625 583 95.2099609375 503.235351562 95.2099609375 419.666992188 c 0
 95.2099609375 341.782226562 122.9921875 253.48046875 204.139648438 253.48046875 c 0
 282.62890625 253.48046875 322.599609375 338.171875 322.599609375 418.23046875 c 0
 322.599609375 518.716796875 280.307617188 583 199.1796875 583 c 0
EndSplineSet
EndChar

StartChar: colon
Encoding: 58 58 16
Width: 203
Flags: MW
HStem: -15.625 118.769 313.23 120.319
VStem: 3.83984 120.32
LayerCount: 2
Fore
SplineSet
123.403320312 53.3974609375 m 0
 128.725585938 20.6025390625 106.452148438 -10.3017578125 73.6572265625 -15.625 c 0
 40.8623046875 -20.9462890625 9.9580078125 1.3271484375 4.6357421875 34.12109375 c 0
 -0.6865234375 66.9169921875 21.587890625 97.8203125 54.3828125 103.143554688 c 0
 87.1767578125 108.46484375 118.081054688 86.19140625 123.403320312 53.3974609375 c 0
64 433.549804688 m 0
 97.22265625 433.549804688 124.16015625 406.612304688 124.16015625 373.389648438 c 0
 124.16015625 340.16796875 97.22265625 313.23046875 64 313.23046875 c 0
 30.77734375 313.23046875 3.83984375 340.16796875 3.83984375 373.389648438 c 0
 3.83984375 406.612304688 30.77734375 433.549804688 64 433.549804688 c 0
EndSplineSet
EndChar

StartChar: semicolon
Encoding: 59 59 17
Width: 195
Flags: HMW
HStem: 313.23 120.319
VStem: -4.16992 120.32
LayerCount: 2
Fore
SplineSet
35.998046875 -16 m 5
 12.01953125 -8.396484375 -4.169921875 11.9111328125 -4.169921875 35.755859375 c 4
 -4.169921875 66.3427734375 23.09765625 90.5751953125 55.990234375 90.5751953125 c 4
 88.8896484375 90.5751953125 116.150390625 66.3173828125 116.150390625 35.708984375 c 4
 116.150390625 26.3046875 115.93359375 18.5859375 114.357421875 10.0380859375 c 4
 112.844726562 2.8095703125 111.7890625 -0.443359375 109.390625 -6.853515625 c 4
 98.779296875 -35.0830078125 69.3349609375 -47.73828125 43.197265625 -61.0419921875 c 6
 36.55078125 -64.775390625 l 5
 29.8349609375 -68.5478515625 l 5
 26.2431640625 -61.734375 l 5
 22.6884765625 -55.3076171875 l 6
 20.599609375 -51.720703125 20.1064453125 -50.642578125 20.1064453125 -50.642578125 c 6
 18.1474609375 -47.0625 10.0498046875 -27.8115234375 30.5146484375 -18.5458984375 c 4
 32.00390625 -17.837890625 34.203125 -16.8681640625 35.998046875 -16 c 5
55.990234375 435.424804688 m 4
 89.2119140625 435.424804688 116.150390625 408.487304688 116.150390625 375.264648438 c 4
 116.150390625 342.041992188 89.2119140625 315.10546875 55.990234375 315.10546875 c 4
 22.763671875 315.10546875 -4.1572265625 342.041992188 -4.169921875 375.264648438 c 4
 -4.169921875 408.487304688 22.767578125 435.424804688 55.990234375 435.424804688 c 4
EndSplineSet
EndChar

StartChar: question
Encoding: 63 63 18
Width: 423
Flags: HMW
HStem: -16.04 118.64 574.88 58.7305
VStem: 114.95 118.64 149.36 49.7998
LayerCount: 2
Fore
SplineSet
149.360351562 142 m 1xd0
 149.360351562 149.5 l 1
 149.360351562 157 l 2
 149.360351562 212.78515625 180.229492188 257.456054688 205 295 c 0
 258.104492188 375.48828125 263.576331449 372.611023739 275.8515625 420.942382812 c 0
 286.630859375 463.383789062 287.356445312 499.912109375 275.4140625 527.748046875 c 0
 262.984375 556.731445312 232.76953125 574.879882812 183.120117188 574.879882812 c 0
 134.125976562 574.879882812 81.572265625 550.538085938 42.65234375 455.932617188 c 2
 39.96484375 449.400390625 l 1
 37.27734375 442.868164062 l 1
 30.595703125 445.159179688 l 1
 23.9150390625 447.451171875 l 2
 23.826171875 447.481445312 21.4140625 448.317382812 18.2197265625 449.344726562 c 0
 4.8076171875 453.948242188 1.6962890625 467.352539062 3.302734375 475.689453125 c 0
 3.8974609375 478.537109375 4.8046875 482.047851562 9.091796875 493.178710938 c 0
 48.1201171875 594.559570312 115.288085938 633.610351562 182.870117188 633.610351562 c 0
 301.615234375 633.610351562 377.25 565.553710938 377.25 481.599609375 c 0
 377.25 393.313476562 334.544579026 355.825029735 278.596679688 291.6015625 c 0
 238 245 199.16015625 205.204101562 199.16015625 157 c 2
 199.16015625 149.5 l 1
 199.16015625 142 l 1
 191.66015625 142 l 1
 184.16015625 142 l 1
 164.360351562 142 l 1
 156.860351562 142 l 1
 149.360351562 142 l 1xd0
233.58984375 43.2802734375 m 0xe0
 233.58984375 10.5205078125 207.033203125 -16.0400390625 174.26953125 -16.0400390625 c 0
 141.510742188 -16.0400390625 114.950195312 10.5166015625 114.950195312 43.2802734375 c 0
 114.950195312 76.0390625 141.506835938 102.599609375 174.26953125 102.599609375 c 0
 207.028320312 102.599609375 233.58984375 76.04296875 233.58984375 43.2802734375 c 0xe0
EndSplineSet
EndChar

StartChar: A
Encoding: 65 65 19
Width: 618
Flags: MW
HStem: 0.00976562 43.7705 200.37 34.8496
LayerCount: 2
Fore
SplineSet
99.98828125 91.6435546875 m 2
 282.268554688 606.70703125 l 2
 284.177734375 612.41796875 288.693359375 616.57421875 293.750976562 618.420898438 c 0
 302.938476562 621.774414062 315.036132812 618.110351562 319.005859375 607.008789062 c 2
 507.732421875 91.693359375 l 2
 514.254882812 74.4306640625 542.229492188 43.7802734375 555.75 43.7802734375 c 2
 571.0703125 43.7802734375 l 2
 583.354492188 43.7802734375 593.639648438 33.7978515625 593.639648438 21.1201171875 c 2
 593.639648438 15.009765625 l 1
 593.639648438 7.509765625 l 1
 593.639648438 0.009765625 l 1
 586.139648438 0.009765625 l 1
 578.639648438 0.009765625 l 1
 376.209960938 0.009765625 l 1
 368.709960938 0.009765625 l 1
 361.209960938 0.009765625 l 1
 361.209960938 7.509765625 l 1
 361.209960938 15.009765625 l 1
 361.209960938 21.1201171875 l 2
 361.209960938 32.650390625 370.274414062 43.7802734375 383.700195312 43.7802734375 c 2
 391.450195312 43.7802734375 l 2
 396.474609375 43.7802734375 400.17578125 44.4716796875 402.774414062 45.3798828125 c 0
 412.805664062 48.884765625 416.854492188 63.115234375 407.438476562 89.7607421875 c 2
 367.801757812 200.370117188 l 1
 188.4296875 200.370117188 l 1
 149.374023438 89.82421875 l 2
 147.94921875 85.7626953125 147.258789062 81.7197265625 147.219726562 77.8291015625 c 0
 147.043945312 60.611328125 158.956054688 43.7802734375 187.889648438 43.7802734375 c 2
 214.309570312 43.7802734375 l 2
 227.5859375 43.7802734375 236.799804688 32.7880859375 236.799804688 21.1201171875 c 2
 236.799804688 15.009765625 l 1
 236.799804688 7.509765625 l 1
 236.799804688 0.009765625 l 1
 229.299804688 0.009765625 l 1
 221.799804688 0.009765625 l 1
 19.3603515625 0.009765625 l 1
 11.8603515625 0.009765625 l 1
 4.3603515625 0.009765625 l 1
 4.3603515625 7.509765625 l 1
 4.3603515625 15.009765625 l 1
 4.3603515625 21.1201171875 l 2
 4.3603515625 33.5966796875 14.3984375 43.7802734375 26.849609375 43.7802734375 c 2
 42.259765625 43.7802734375 l 2
 72.1787109375 43.7802734375 93.3447265625 74.240234375 99.98828125 91.6435546875 c 2
350.03515625 235.219726562 m 1
 275.125 447.633789062 l 1
 205.0625 235.219726562 l 1
 350.03515625 235.219726562 l 1
EndSplineSet
EndChar

StartChar: B
Encoding: 66 66 20
Width: 554
Flags: MW
HStem: 0 42.3896 0 49.8799 363.78 49.8799 569.8 49.8799 577.29 42.3896
VStem: 68.8096 94.46 362.21 94.6299 418.72 93.5
LayerCount: 2
Fore
SplineSet
251.200195312 619.6796875 m 2x35
 346.737304688 619.6796875 456.83984375 594.87109375 456.83984375 497.895507812 c 0x36
 456.83984375 438.935546875 413.36328125 405.778320312 367.33203125 388.538085938 c 1
 474.6171875 359.948242188 512.219726562 284.1328125 512.219726562 204.4921875 c 0
 512.219726562 -1.134765625 295.953125 0 179.599609375 0 c 2x75
 14.7802734375 0 l 1
 7.2802734375 0 l 1
 -0.2197265625 0 l 1
 -0.2197265625 7.5 l 1
 -0.2197265625 14.818359375 l 1
 -0.2197265625 20.63671875 l 2
 -0.2197265625 31.8583984375 9.0009765625 42.3896484375 22.26953125 42.3896484375 c 2
 37.58984375 42.3896484375 l 2
 50.8115234375 42.3896484375 68.8095703125 46.5068359375 68.8095703125 85.5361328125 c 2
 68.8095703125 534.134765625 l 2
 68.8095703125 573.182617188 50.8037109375 577.290039062 37.58984375 577.290039062 c 2
 22.26953125 577.290039062 l 2
 8.9990234375 577.290039062 -0.2197265625 587.82421875 -0.2197265625 599.043945312 c 2
 -0.2197265625 604.861328125 l 1
 -0.2197265625 612.1796875 l 1
 -0.2197265625 619.6796875 l 1
 7.2802734375 619.6796875 l 1
 14.7802734375 619.6796875 l 1xad
 251.200195312 619.6796875 l 2x35
362.209960938 495.3203125 m 0
 362.209960938 550.7109375 268.840820312 569.799804688 214.889648438 569.799804688 c 2
 163.26953125 569.799804688 l 1
 163.26953125 413.66015625 l 1
 179.599609375 413.66015625 l 2
 282.9140625 413.66015625 362.209960938 445.787109375 362.209960938 495.3203125 c 0
163.26953125 49.8798828125 m 1x65
 179.599609375 49.8798828125 l 2
 314.3046875 49.8798828125 418.719726562 72.1123046875 418.719726562 199.559570312 c 0
 418.719726562 302.791992188 355.599609375 363.780273438 179.599609375 363.780273438 c 2
 163.26953125 363.780273438 l 1
 163.26953125 49.8798828125 l 1x65
EndSplineSet
EndChar

StartChar: C
Encoding: 67 67 21
Width: 557
Flags: MW
HStem: 578.032 55.6377
VStem: -3.50977 94.6201
LayerCount: 2
Fore
SplineSet
539.166015625 163.629882812 m 1
 538.297851562 155.34765625 l 1
 537.427734375 147.055664062 l 2
 531.74609375 92.8681640625 507.169921875 45.30859375 462.25 8.861328125 c 0
 339.0234375 -91.111328125 169.672851562 -39.1396484375 94.515625 38.904296875 c 0
 34.0068359375 101.735351562 -3.509765625 193.462890625 -3.509765625 297 c 0
 -3.509765625 400.94140625 32.041015625 489.698242188 93.876953125 550.879882812 c 0
 177.086914062 633.25 259.1875 633.669921875 320.879882812 633.669921875 c 0
 412.225585938 633.669921875 513.330078125 571.861328125 529.944335938 444.530273438 c 2
 530.912109375 437.115234375 l 1
 531.87890625 429.701171875 l 1
 524.466796875 428.7109375 l 1
 517.060546875 427.72265625 l 1
 517.060546875 427.72265625 512.30078125 427.083007812 511.21875 426.90625 c 2
 510.854492188 426.846679688 l 1
 510.487304688 426.805664062 l 2
 498.254882812 425.419921875 488.0625 434.455078125 485.875 442.989257812 c 0
 484.810546875 447.759765625 483.784179688 453.567382812 479.970703125 461.7734375 c 0
 466.369140625 491.357421875 446.46484375 541.043945312 392.98046875 561.173828125 c 0
 362.0234375 572.838867188 333.897460938 577.94921875 308.411132812 578.032226562 c 0
 165.9140625 578.497070312 91.1103515625 416.188476562 91.1103515625 300.629882812 c 0
 91.1103515625 174.822265625 165.267578125 76.85546875 228.662109375 39.720703125 c 0
 289.859375 3.740234375 419.45703125 18.958984375 464.559570312 98.5595703125 c 0
 471.001953125 110.001953125 479.325195312 134.982421875 481.206054688 143.217773438 c 0
 483.685546875 154.080078125 493.171875 163.629882812 506.169921875 163.629882812 c 2
 522.509765625 163.629882812 l 1
 530.838867188 163.629882812 l 1
 539.166015625 163.629882812 l 1
EndSplineSet
EndChar

StartChar: D
Encoding: 68 68 22
Width: 558
Flags: MW
HStem: 0 42.3896 0 49.8799 569.8 49.8799 577.29 42.3896
VStem: 68.4805 94.46 436.07 100.479
LayerCount: 2
Fore
SplineSet
6.9501953125 619.6796875 m 1x9c
 14.4501953125 619.6796875 l 1x9c
 212.919921875 619.6796875 l 2
 449.434570312 619.6796875 536.549804688 478.237304688 536.549804688 338.15234375 c 0
 536.549804688 216.80078125 497.614257812 131.42578125 436.551757812 76.9619140625 c 0
 375.6015625 22.505859375 294.49609375 0 212.919921875 0 c 2x6c
 14.4501953125 0 l 1
 6.9501953125 0 l 1
 -0.5498046875 0 l 1
 -0.5498046875 7.5 l 1
 -0.5498046875 14.818359375 l 1
 -0.5498046875 20.63671875 l 2
 -0.5498046875 31.859375 8.6728515625 42.3896484375 21.9404296875 42.3896484375 c 2
 37.259765625 42.3896484375 l 2
 50.4814453125 42.3896484375 68.48046875 46.5078125 68.48046875 85.5361328125 c 2
 68.48046875 534.134765625 l 2
 68.48046875 573.182617188 50.4736328125 577.290039062 37.259765625 577.290039062 c 2
 21.9404296875 577.290039062 l 2
 8.669921875 577.290039062 -0.5498046875 587.823242188 -0.5498046875 599.043945312 c 2
 -0.5498046875 604.861328125 l 1
 -0.5498046875 612.1796875 l 1
 -0.5498046875 619.6796875 l 1
 6.9501953125 619.6796875 l 1x9c
162.940429688 569.799804688 m 1x6c
 162.940429688 49.8798828125 l 1
 212.919921875 49.8798828125 l 2
 337.325195312 49.8798828125 436.059570312 183.459960938 436.0703125 315.952148438 c 0
 436.0703125 482.811523438 335.978515625 569.799804688 212.919921875 569.799804688 c 2
 162.940429688 569.799804688 l 1x6c
EndSplineSet
EndChar

StartChar: E
Encoding: 69 69 23
Width: 529
Flags: MW
HStem: 0 42.3896 0 49.8896 306.9 49.8691 569.8 49.8799 577.29 42.3896
VStem: 71.2197 94.46 326.06 43.7705
LayerCount: 2
Fore
SplineSet
507.98828125 136.075195312 m 1x76
 506.794921875 128.987304688 l 1
 505.6015625 121.8984375 l 1
 487.005859375 11.466796875 l 1
 486.127929688 6.2548828125 l 1
 485.075195312 0 l 1
 478.732421875 0 l 1
 472.389648438 0 l 1
 17.1904296875 0 l 1
 9.6904296875 0 l 1
 2.1904296875 0 l 1
 2.1904296875 7.5 l 1
 2.1904296875 14.818359375 l 1
 2.1904296875 20.63671875 l 2
 2.1904296875 31.8583984375 11.4111328125 42.3896484375 24.6796875 42.3896484375 c 2
 40 42.3896484375 l 2
 53.2216796875 42.3896484375 71.2197265625 46.5068359375 71.2197265625 85.5361328125 c 2
 71.2197265625 534.134765625 l 2
 71.2197265625 573.173828125 53.2099609375 577.290039062 40 577.290039062 c 2
 24.6796875 577.290039062 l 2
 11.4091796875 577.290039062 2.1904296875 587.82421875 2.1904296875 599.043945312 c 2
 2.1904296875 604.861328125 l 1
 2.1904296875 612.1796875 l 1
 2.1904296875 619.6796875 l 1
 9.6904296875 619.6796875 l 1
 17.1904296875 619.6796875 l 1
 472.400390625 619.6796875 l 1
 479.403320312 619.6796875 l 1
 486.40625 619.6796875 l 1xae
 486.885742188 612.693359375 l 1
 487.365234375 605.70703125 l 1
 494.934570312 495.45703125 l 1
 495.423828125 488.336914062 l 1
 495.912109375 481.216796875 l 1
 488.825195312 480.375 l 1
 481.737304688 479.534179688 l 1
 481.737304688 479.534179688 478.78515625 479.181640625 475.670898438 478.838867188 c 0
 463.348632812 477.34765625 451.927734375 486.271484375 450.615234375 498.58203125 c 2
 450.615234375 498.58203125 450.206054688 501.939453125 448.809570312 513.875976562 c 0
 446.560546875 533.315429688 433.51953125 569.799804688 398.129882812 569.799804688 c 2
 165.6796875 569.799804688 l 1
 165.6796875 356.76953125 l 1
 280.549804688 356.76953125 l 2
 315.6875 356.76953125 326.059570312 391.467773438 326.059570312 410.110351562 c 2
 326.059570312 425.51953125 l 2
 326.059570312 437.986328125 336.256835938 448.009765625 348.719726562 448.009765625 c 2
 354.830078125 448.009765625 l 1
 362.330078125 448.009765625 l 1
 369.830078125 448.009765625 l 1
 369.830078125 440.509765625 l 1
 369.830078125 433.009765625 l 1
 369.830078125 230.580078125 l 1
 369.830078125 223.080078125 l 1
 369.830078125 215.580078125 l 1
 362.330078125 215.580078125 l 1
 354.830078125 215.580078125 l 1
 348.719726562 215.580078125 l 2
 337.189453125 215.580078125 326.059570312 224.64453125 326.059570312 238.0703125 c 2
 326.059570312 253.389648438 l 2
 326.059570312 271.388671875 315.48046875 306.900390625 280.549804688 306.900390625 c 2
 165.6796875 306.900390625 l 1
 165.6796875 49.8896484375 l 1
 398.120117188 49.8896484375 l 2
 434.428710938 49.8896484375 453.57421875 89.4462890625 457.756835938 108.201171875 c 0
 460.350585938 119.8828125 461.115234375 123.255859375 461.115234375 123.255859375 c 2
 463.723632812 135.264648438 475.856445312 143.13671875 488.09765625 140.323242188 c 0
 491.086914062 139.663085938 493.926757812 139.0625 493.926757812 139.0625 c 1
 500.95703125 137.568359375 l 1
 507.98828125 136.075195312 l 1x76
EndSplineSet
EndChar

StartChar: F
Encoding: 70 70 24
Width: 523
Flags: MW
HStem: 0 43.7695 306.89 49.8701 569.8 49.8799 577.362 42.3174
VStem: 68.2197 94.4502 323.05 43.7705
LayerCount: 2
Fore
SplineSet
470.6640625 480.909179688 m 0xdc
 464.6484375 483.642578125 459.70703125 489.283203125 458.099609375 496.4609375 c 0
 458.099609375 496.551757812 457.392578125 499.766601562 454.756835938 511.440429688 c 0
 447.734375 542.59375 423.381835938 569.799804688 395.120117188 569.799804688 c 2
 162.6796875 569.799804688 l 1xec
 162.6796875 356.759765625 l 1
 277.540039062 356.759765625 l 2
 312.6875 356.759765625 323.049804688 391.444335938 323.049804688 410.099609375 c 2
 323.049804688 425.509765625 l 2
 323.049804688 437.974609375 333.245117188 448 345.709960938 448 c 2
 351.8203125 448 l 1
 359.3203125 448 l 1
 366.8203125 448 l 1
 366.8203125 440.5 l 1
 366.8203125 433 l 1
 366.8203125 230.5703125 l 1
 366.8203125 223.0703125 l 1
 366.8203125 215.5703125 l 1
 359.3203125 215.5703125 l 1
 351.8203125 215.5703125 l 1
 345.709960938 215.5703125 l 2
 334.180664062 215.5703125 323.049804688 224.6328125 323.049804688 238.059570312 c 2
 323.049804688 253.379882812 l 2
 323.049804688 271.375976562 312.461914062 306.889648438 277.540039062 306.889648438 c 2
 162.669921875 306.889648438 l 1
 162.669921875 86.6904296875 l 2
 162.669921875 47.6611328125 179.951171875 43.76953125 193.719726562 43.76953125 c 2
 209.129882812 43.76953125 l 2
 221.592773438 43.76953125 231.620117188 33.5771484375 231.620117188 21.1103515625 c 2
 231.620117188 15 l 1
 231.620117188 7.5 l 1
 231.620117188 0 l 1
 224.120117188 0 l 1
 216.620117188 0 l 1
 14.1904296875 0 l 1
 6.6904296875 0 l 1
 -0.8095703125 0 l 1
 -0.8095703125 7.5 l 1
 -0.8095703125 15 l 1
 -0.8095703125 21.1103515625 l 2
 -0.8095703125 32.6416015625 8.255859375 43.76953125 21.6796875 43.76953125 c 2
 37 43.76953125 l 2
 50.2265625 43.76953125 68.2197265625 47.87890625 68.2197265625 86.8056640625 c 2
 68.2197265625 534.317382812 l 2
 68.2197265625 573.262695312 50.21875 577.362304688 37 577.362304688 c 2
 21.6796875 577.362304688 l 2
 8.4150390625 577.362304688 -0.8095703125 587.868164062 -0.8095703125 599.069335938 c 2
 -0.8095703125 604.872070312 l 1
 -0.8095703125 612.1796875 l 1
 -0.8095703125 619.6796875 l 1
 6.6904296875 619.6796875 l 1
 14.1904296875 619.6796875 l 1
 469.389648438 619.6796875 l 1
 475.732421875 619.6796875 l 1
 482.075195312 619.6796875 l 1
 483.127929688 613.424804688 l 1
 484.181640625 607.170898438 l 1
 502.6015625 497.78125 l 1
 503.795898438 490.688476562 l 1
 504.990234375 483.595703125 l 1
 497.953125 482.10546875 l 1
 490.91796875 480.615234375 l 1
 490.91796875 480.615234375 487.93359375 479.984375 485.200195312 479.390625 c 0
 480.069335938 478.109375 474.65625 479.0234375 470.6640625 480.909179688 c 0xdc
EndSplineSet
EndChar

StartChar: G
Encoding: 71 71 25
Width: 618
Flags: MW
HStem: -16.0303 49.9307 279.19 43.8594 583.83 49.8496
VStem: 0.69043 95.0898 436.89 95.0107
LayerCount: 2
Fore
SplineSet
531.900390625 211.248046875 m 2
 531.900390625 138.34765625 489.677734375 -16.0302734375 299.200195312 -16.0302734375 c 0
 95.08203125 -16.0302734375 0.6904296875 155.7578125 0.6904296875 303.61328125 c 0
 0.6904296875 526.034179688 148.400390625 633.6796875 295.75 633.6796875 c 0
 409.467773438 633.6796875 508.321289062 557.748046875 524.57421875 433.140625 c 2
 525.525390625 425.850585938 l 1
 526.475585938 418.560546875 l 1
 519.206054688 417.463867188 l 1
 511.9375 416.368164062 l 1
 511.9375 416.368164062 468.341796875 409.7890625 467.18359375 409.594726562 c 2
 466.7890625 409.529296875 l 1
 466.391601562 409.484375 l 2
 454.151367188 408.103515625 444.200195312 417.168945312 441.991210938 425.435546875 c 0
 440.875976562 430.299804688 436.9296875 447.791992188 431.725585938 467.119140625 c 0
 411.224609375 543.244140625 380.16015625 583.830078125 288.740234375 583.830078125 c 0
 141.416015625 583.830078125 95.7802734375 417.69921875 95.7802734375 307.028320312 c 0
 95.7802734375 211.784179688 155.173828125 33.900390625 301 33.900390625 c 0
 427.421875 33.900390625 436.889648438 184.680664062 436.889648438 211.875976562 c 2
 436.98046875 236.03515625 l 2
 436.98046875 275.02734375 418.81640625 279.190429688 405.440429688 279.190429688 c 2
 390.009765625 279.190429688 l 2
 376.561523438 279.190429688 367.469726562 290.334960938 367.469726562 301.900390625 c 2
 367.469726562 308.049804688 l 1
 367.469726562 315.549804688 l 1
 367.469726562 323.049804688 l 1
 374.969726562 323.049804688 l 1
 382.469726562 323.049804688 l 1
 586.3203125 323.049804688 l 1
 593.8203125 323.049804688 l 1
 601.3203125 323.049804688 l 1
 601.3203125 315.549804688 l 1
 601.3203125 308.049804688 l 1
 601.3203125 301.900390625 l 2
 601.3203125 289.391601562 591.254882812 279.190429688 578.780273438 279.190429688 c 2
 563.26953125 279.190429688 l 2
 549.385742188 279.190429688 531.990234375 275.275390625 531.990234375 235.606445312 c 2
 531.900390625 211.248046875 l 2
EndSplineSet
EndChar

StartChar: H
Encoding: 72 72 26
Width: 626
Flags: MW
HStem: 0 43.7695 303.46 49.8604 575.91 43.7695
VStem: 68.0596 94.5303 443.49 94.5293
LayerCount: 2
Fore
SplineSet
606.940429688 598.5703125 m 2
 606.940429688 586.08984375 596.897460938 575.91015625 584.450195312 575.91015625 c 2
 569.040039062 575.91015625 l 2
 555.29296875 575.91015625 538.028320312 571.994140625 538.01953125 532.98828125 c 2
 538.01953125 86.693359375 l 2
 538.01953125 47.6845703125 555.279296875 43.7802734375 569.030273438 43.7802734375 c 2
 584.440429688 43.7802734375 l 2
 596.907226562 43.7802734375 606.9296875 33.58203125 606.9296875 21.1201171875 c 2
 606.9296875 15.009765625 l 1
 606.9296875 7.509765625 l 1
 606.9296875 0.009765625 l 1
 599.4296875 0.009765625 l 1
 591.9296875 0.009765625 l 1
 389.5 0.009765625 l 1
 382 0.009765625 l 1
 374.5 0.009765625 l 1
 374.5 7.509765625 l 1
 374.5 15.009765625 l 1
 374.5 21.1201171875 l 2
 374.5 32.650390625 383.564453125 43.7802734375 396.990234375 43.7802734375 c 2
 412.309570312 43.7802734375 l 2
 425.491210938 43.7802734375 443.490234375 47.8974609375 443.490234375 86.6689453125 c 2
 443.490234375 303.459960938 l 1
 162.58984375 303.459960938 l 1
 162.58984375 86.6591796875 l 2
 162.58984375 47.671875 179.849609375 43.76953125 193.599609375 43.76953125 c 2
 209.009765625 43.76953125 l 2
 221.47265625 43.76953125 231.5 33.5771484375 231.5 21.1103515625 c 2
 231.5 15 l 1
 231.5 7.5 l 1
 231.5 0 l 1
 224 0 l 1
 216.5 0 l 1
 14.0703125 0 l 1
 6.5703125 0 l 1
 -0.9296875 0 l 1
 -0.9296875 7.5 l 1
 -0.9296875 15 l 1
 -0.9296875 21.1103515625 l 2
 -0.9296875 32.6416015625 8.1357421875 43.76953125 21.5595703125 43.76953125 c 2
 36.8798828125 43.76953125 l 2
 50.0625 43.76953125 68.0595703125 47.8896484375 68.0595703125 86.6826171875 c 2
 68.0595703125 532.987304688 l 2
 68.0595703125 571.7890625 50.0556640625 575.900390625 36.8798828125 575.900390625 c 2
 21.5595703125 575.900390625 l 2
 8.1357421875 575.900390625 -0.9296875 587.028320312 -0.9296875 598.559570312 c 2
 -0.9296875 604.669921875 l 1
 -0.9296875 612.169921875 l 1
 -0.9296875 619.669921875 l 1
 6.5703125 619.669921875 l 1
 14.0703125 619.669921875 l 1
 216.509765625 619.669921875 l 1
 224.009765625 619.669921875 l 1
 231.509765625 619.669921875 l 1
 231.509765625 612.169921875 l 1
 231.509765625 604.669921875 l 1
 231.509765625 598.559570312 l 2
 231.509765625 586.079101562 221.465820312 575.900390625 209.01953125 575.900390625 c 2
 193.610351562 575.900390625 l 2
 179.826171875 575.900390625 162.599609375 572.026367188 162.599609375 533.40625 c 2
 162.599609375 353.3203125 l 1
 443.490234375 353.3203125 l 1
 443.490234375 533.416015625 l 2
 443.490234375 571.828125 425.5078125 575.91015625 412.309570312 575.91015625 c 2
 396.990234375 575.91015625 l 2
 383.564453125 575.91015625 374.5 587.040039062 374.5 598.5703125 c 2
 374.5 604.6796875 l 1
 374.5 612.1796875 l 1
 374.5 619.6796875 l 1
 382 619.6796875 l 1
 389.5 619.6796875 l 1
 591.940429688 619.6796875 l 1
 599.440429688 619.6796875 l 1
 606.940429688 619.6796875 l 1
 606.940429688 612.1796875 l 1
 606.940429688 604.6796875 l 1
 606.940429688 598.5703125 l 2
EndSplineSet
EndChar

StartChar: I
Encoding: 73 73 27
Width: 253
Flags: MW
HStem: 0.00976562 43.7705 575.91 43.7695
VStem: 68.7803 94.5293
LayerCount: 2
Fore
SplineSet
232.219726562 598.5703125 m 2
 232.219726562 586.090820312 222.178710938 575.91015625 209.73046875 575.91015625 c 2
 194.3203125 575.91015625 l 2
 180.573242188 575.91015625 163.309570312 571.998046875 163.309570312 532.98828125 c 2
 163.309570312 86.693359375 l 2
 163.309570312 47.6845703125 180.569335938 43.7802734375 194.3203125 43.7802734375 c 2
 209.73046875 43.7802734375 l 2
 222.197265625 43.7802734375 232.219726562 33.58203125 232.219726562 21.1201171875 c 2
 232.219726562 15.009765625 l 1
 232.219726562 7.509765625 l 1
 232.219726562 0.009765625 l 1
 224.719726562 0.009765625 l 1
 217.219726562 0.009765625 l 1
 14.7900390625 0.009765625 l 1
 7.2900390625 0.009765625 l 1
 -0.2099609375 0.009765625 l 1
 -0.2099609375 7.509765625 l 1
 -0.2099609375 15.009765625 l 1
 -0.2099609375 21.1201171875 l 2
 -0.2099609375 32.650390625 8.8544921875 43.7802734375 22.2802734375 43.7802734375 c 2
 37.599609375 43.7802734375 l 2
 50.7822265625 43.7802734375 68.7802734375 47.900390625 68.7802734375 86.693359375 c 2
 68.7802734375 532.997070312 l 2
 68.7802734375 571.797851562 50.775390625 575.91015625 37.599609375 575.91015625 c 2
 22.2802734375 575.91015625 l 2
 8.8544921875 575.91015625 -0.2099609375 587.040039062 -0.2099609375 598.5703125 c 2
 -0.2099609375 604.6796875 l 1
 -0.2099609375 612.1796875 l 1
 -0.2099609375 619.6796875 l 1
 7.2900390625 619.6796875 l 1
 14.7900390625 619.6796875 l 1
 217.219726562 619.6796875 l 1
 224.719726562 619.6796875 l 1
 232.219726562 619.6796875 l 1
 232.219726562 612.1796875 l 1
 232.219726562 604.6796875 l 1
 232.219726562 598.5703125 l 2
EndSplineSet
EndChar

StartChar: J
Encoding: 74 74 28
Width: 271
Flags: MW
HStem: 575.91 43.7695
VStem: 87.1904 94.5498
LayerCount: 2
Fore
SplineSet
-22.978515625 -116.190429688 m 0
 -24.921875 -104.868164062 -18.68359375 -94.0556640625 -8.13671875 -90.212890625 c 0
 -6.7216796875 -89.673828125 -4.962890625 -88.9658203125 -3.064453125 -88.1982421875 c 0
 59.08984375 -64.2626953125 87.1904296875 -11.4384765625 87.1904296875 55.02734375 c 2
 87.1904296875 532.502929688 l 2
 87.1904296875 571.796875 69.14453125 575.91015625 56.0595703125 575.91015625 c 2
 40.740234375 575.91015625 l 2
 27.314453125 575.91015625 18.25 587.040039062 18.25 598.5703125 c 2
 18.25 604.6796875 l 1
 18.25 612.1796875 l 1
 18.25 619.6796875 l 1
 25.75 619.6796875 l 1
 33.25 619.6796875 l 1
 235.690429688 619.6796875 l 1
 243.190429688 619.6796875 l 1
 250.690429688 619.6796875 l 1
 250.690429688 612.1796875 l 1
 250.690429688 604.6796875 l 1
 250.690429688 598.5703125 l 2
 250.690429688 586.104492188 240.6640625 575.91015625 228.200195312 575.91015625 c 2
 212.790039062 575.91015625 l 2
 199.057617188 575.91015625 181.740234375 571.969726562 181.740234375 532.376953125 c 2
 181.740234375 103.168945312 l 2
 181.740234375 69.068359375 180.27734375 40.4423828125 177.342773438 15.6845703125 c 0
 168.145507812 -62.0263671875 102.517578125 -109.48828125 -1.580078125 -140.376953125 c 2
 -9.65234375 -142.873046875 l 1
 -17.74609375 -145.375 l 1
 -19.2490234375 -137.038085938 l 1
 -20.751953125 -128.702148438 l 1
 -21.97265625 -121.935546875 l 2
 -22.318359375 -119.931640625 -22.583984375 -118.4765625 -22.978515625 -116.190429688 c 0
EndSplineSet
EndChar

StartChar: K
Encoding: 75 75 29
Width: 570
Flags: MW
HStem: 0 43.7695 575.9 43.7695
VStem: 66.96 94.5303
LayerCount: 2
Fore
SplineSet
488.150390625 575.91015625 m 2
 458.140625 575.91015625 407.704101562 528.885742188 391.662109375 512.965820312 c 2
 222.034179688 342.008789062 l 1
 426.990234375 113.163085938 l 2
 442.83984375 95.85546875 493.4453125 43.7802734375 506.139648438 43.7802734375 c 2
 521.459960938 43.7802734375 l 2
 533.7421875 43.7802734375 544.030273438 33.7998046875 544.030273438 21.1201171875 c 2
 544.030273438 15.009765625 l 1
 544.030273438 7.509765625 l 1
 544.030273438 0.009765625 l 1
 536.530273438 0.009765625 l 1
 529.030273438 0.009765625 l 1
 326.599609375 0.009765625 l 1
 319.099609375 0.009765625 l 1
 311.599609375 0.009765625 l 1
 311.599609375 7.509765625 l 1
 311.599609375 15.009765625 l 1
 311.599609375 21.1201171875 l 2
 311.599609375 32.65234375 320.665039062 43.7802734375 334.08984375 43.7802734375 c 2
 341.83984375 43.7802734375 l 2
 347.629882812 43.7802734375 350.890625 44.75390625 352.251953125 45.2802734375 c 0
 352.231445312 49.9482421875 347.655273438 61.9892578125 335.188476562 76.48046875 c 2
 161.5 276.70703125 l 1
 161.5 89.26953125 l 2
 161.5 47.8427734375 178.901367188 43.76953125 192.509765625 43.76953125 c 2
 207.919921875 43.76953125 l 2
 220.366210938 43.76953125 230.41015625 33.5908203125 230.41015625 21.1103515625 c 2
 230.41015625 15 l 1
 230.41015625 7.5 l 1
 230.41015625 0 l 1
 222.91015625 0 l 1
 215.41015625 0 l 1
 12.9697265625 0 l 1
 5.4697265625 0 l 1
 -2.0302734375 0 l 1
 -2.0302734375 7.5 l 1
 -2.0302734375 15 l 1
 -2.0302734375 21.1103515625 l 2
 -2.0302734375 32.64453125 7.0380859375 43.76953125 20.4599609375 43.76953125 c 2
 35.7802734375 43.76953125 l 2
 48.962890625 43.76953125 66.9599609375 47.8896484375 66.9599609375 86.6826171875 c 2
 66.9599609375 532.987304688 l 2
 66.9599609375 571.7890625 48.9560546875 575.900390625 35.7802734375 575.900390625 c 2
 20.4599609375 575.900390625 l 2
 7.0537109375 575.900390625 -2.0302734375 587.010742188 -2.0302734375 598.559570312 c 2
 -2.0302734375 604.669921875 l 1
 -2.0302734375 612.169921875 l 1
 -2.0302734375 619.669921875 l 1
 5.4697265625 619.669921875 l 1
 12.9697265625 619.669921875 l 1
 215.400390625 619.669921875 l 1
 222.900390625 619.669921875 l 1
 230.400390625 619.669921875 l 1
 230.400390625 612.169921875 l 1
 230.400390625 604.669921875 l 1
 230.400390625 598.559570312 l 2
 230.400390625 586.092773438 220.373046875 575.900390625 207.91015625 575.900390625 c 2
 192.5 575.900390625 l 2
 178.900390625 575.900390625 161.490234375 571.82421875 161.490234375 530.400390625 c 2
 161.490234375 337.318359375 l 1
 346.372070312 533.853515625 l 2
 354.578125 542.653320312 359.892578125 555.471679688 359.905273438 563.655273438 c 0
 359.916015625 571.107421875 359.357421875 575.91015625 342.530273438 575.91015625 c 2
 316.110351562 575.91015625 l 2
 302.833984375 575.91015625 293.620117188 586.90234375 293.620117188 598.5703125 c 2
 293.620117188 604.6796875 l 1
 293.620117188 612.1796875 l 1
 293.620117188 619.6796875 l 1
 301.120117188 619.6796875 l 1
 308.620117188 619.6796875 l 1
 511.049804688 619.6796875 l 1
 518.549804688 619.6796875 l 1
 526.049804688 619.6796875 l 1
 526.049804688 612.1796875 l 1
 526.049804688 604.6796875 l 1
 526.049804688 598.5703125 l 2
 526.049804688 586.10546875 516.024414062 575.91015625 503.559570312 575.91015625 c 2
 488.150390625 575.91015625 l 2
EndSplineSet
EndChar

StartChar: L
Encoding: 76 76 30
Width: 516
Flags: MW
HStem: -0.00976562 42.3174 -0.00976562 49.8896 575.9 43.7695
VStem: 71.2197 94.4502
LayerCount: 2
Fore
SplineSet
485.073242188 -0.009765625 m 1xb0
 478.73046875 -0.009765625 l 1
 472.389648438 -0.009765625 l 1
 17.1904296875 -0.009765625 l 1
 9.6904296875 -0.009765625 l 1
 2.1904296875 -0.009765625 l 1
 2.1904296875 7.490234375 l 1
 2.1904296875 14.7978515625 l 1
 2.1904296875 20.6005859375 l 2
 2.1904296875 31.8037109375 11.416015625 42.3076171875 24.6796875 42.3076171875 c 2
 40 42.3076171875 l 2xb0
 53.2265625 42.3076171875 71.2197265625 46.41796875 71.2197265625 85.34375 c 2
 71.2197265625 532.854492188 l 2
 71.2197265625 571.80078125 53.21875 575.900390625 40 575.900390625 c 2
 24.6796875 575.900390625 l 2
 11.255859375 575.900390625 2.1904296875 587.028320312 2.1904296875 598.559570312 c 2
 2.1904296875 604.669921875 l 1
 2.1904296875 612.169921875 l 1
 2.1904296875 619.669921875 l 1
 9.6904296875 619.669921875 l 1
 17.1904296875 619.669921875 l 1
 219.620117188 619.669921875 l 1
 227.120117188 619.669921875 l 1
 234.620117188 619.669921875 l 1
 234.620117188 612.169921875 l 1
 234.620117188 604.669921875 l 1
 234.620117188 598.559570312 l 2
 234.620117188 586.079101562 224.576171875 575.900390625 212.129882812 575.900390625 c 2
 196.719726562 575.900390625 l 2
 191.075195312 575.900390625 185.681640625 574.764648438 181.184570312 572.158203125 c 0
 173.91796875 568.022460938 165.669921875 558.95703125 165.669921875 533.015625 c 2
 165.669921875 86.9794921875 l 2
 165.669921875 59.912109375 183.788085938 49.8798828125 200.669921875 49.8798828125 c 2
 398.110351562 49.8798828125 l 2x70
 434.428710938 49.8798828125 453.572265625 89.4423828125 457.74609375 108.192382812 c 0
 460.33984375 119.873046875 461.10546875 123.248046875 461.10546875 123.248046875 c 2
 463.71484375 135.255859375 475.868164062 143.124023438 488.061523438 140.319335938 c 0
 491.038085938 139.673828125 493.920898438 139.063476562 493.920898438 139.063476562 c 1
 500.955078125 137.572265625 l 1
 507.989257812 136.081054688 l 1
 506.794921875 128.989257812 l 1
 505.6015625 121.8984375 l 1
 486.44140625 8.115234375 l 1
 486.126953125 6.2451171875 l 1
 485.073242188 -0.009765625 l 1xb0
EndSplineSet
EndChar

StartChar: M
Encoding: 77 77 31
Width: 755
Flags: MW
HStem: 0 43.7695 575.91 43.7695
VStem: 90.4902 49.79 563.43 94.54
LayerCount: 2
Fore
SplineSet
516.889648438 43.7802734375 m 2
 532.209960938 43.7802734375 l 2
 545.2890625 43.7802734375 563.4296875 48.05859375 563.4296875 89.2783203125 c 2
 563.354492188 472.583007812 l 1
 380.24609375 22.0029296875 l 1
 373.732421875 5.9755859375 l 1
 367.219726562 -10.05078125 l 1
 359.973632812 5.658203125 l 1
 352.728515625 21.3681640625 l 1
 140.280273438 481.9921875 l 1
 140.280273438 89.26953125 l 2
 140.280273438 54.1513671875 175.029296875 43.76953125 193.700195312 43.76953125 c 2
 209.110351562 43.76953125 l 2
 221.575195312 43.76953125 231.599609375 33.57421875 231.599609375 21.1103515625 c 2
 231.599609375 15 l 1
 231.599609375 7.5 l 1
 231.599609375 0 l 1
 224.099609375 0 l 1
 216.599609375 0 l 1
 14.169921875 0 l 1
 6.669921875 0 l 1
 -0.830078125 0 l 1
 -0.830078125 7.5 l 1
 -0.830078125 15 l 1
 -0.830078125 21.1103515625 l 2
 -0.830078125 32.642578125 8.236328125 43.76953125 21.66015625 43.76953125 c 2
 36.98046875 43.76953125 l 2
 55.138671875 43.76953125 90.490234375 53.9130859375 90.490234375 86.6826171875 c 2
 90.490234375 533.428710938 l 2
 90.2470703125 565.82421875 55.1455078125 575.91015625 36.98046875 575.91015625 c 2
 21.66015625 575.91015625 l 2
 8.234375 575.91015625 -0.830078125 587.040039062 -0.830078125 598.5703125 c 2
 -0.830078125 604.6796875 l 1
 -0.830078125 612.1796875 l 1
 -0.830078125 619.6796875 l 1
 6.669921875 619.6796875 l 1
 14.169921875 619.6796875 l 1
 158.16015625 619.6796875 l 1
 162.967773438 619.6796875 l 1
 167.776367188 619.6796875 l 1
 169.783203125 615.310546875 l 1
 171.791015625 610.94140625 l 1
 387.206054688 142.036132812 l 1
 577.786132812 610.344726562 l 1
 579.6875 615.017578125 l 1
 581.58984375 619.690429688 l 1
 586.634765625 619.690429688 l 1
 591.6796875 619.690429688 l 1
 711.830078125 619.690429688 l 1
 719.330078125 619.690429688 l 1
 726.830078125 619.690429688 l 1
 726.830078125 612.190429688 l 1
 726.830078125 604.690429688 l 1
 726.830078125 598.580078125 l 2
 726.830078125 586.1015625 716.7890625 575.919921875 704.33984375 575.919921875 c 2
 688.9296875 575.919921875 l 2
 675.185546875 575.919921875 657.969726562 572.072265625 657.969726562 532.975585938 c 2
 657.879882812 478.047851562 l 1
 657.969726562 86.693359375 l 2
 657.969726562 47.640625 675.182617188 43.7802734375 688.9296875 43.7802734375 c 2
 704.33984375 43.7802734375 l 2
 716.8046875 43.7802734375 726.830078125 33.5849609375 726.830078125 21.1201171875 c 2
 726.830078125 15.009765625 l 1
 726.830078125 7.509765625 l 1
 726.830078125 0.009765625 l 1
 719.330078125 0.009765625 l 1
 711.830078125 0.009765625 l 1
 509.400390625 0.009765625 l 1
 501.900390625 0.009765625 l 1
 494.400390625 0.009765625 l 1
 494.400390625 7.509765625 l 1
 494.400390625 15.009765625 l 1
 494.400390625 21.1201171875 l 2
 494.400390625 32.6640625 503.479492188 43.7802734375 516.889648438 43.7802734375 c 2
EndSplineSet
EndChar

StartChar: N
Encoding: 78 78 32
Width: 669
Flags: MW
HStem: 0 43.7695 575.91 43.7695
VStem: 91.4902 49.7793 508.73 49.7793
LayerCount: 2
Fore
SplineSet
649.830078125 619.6796875 m 1
 649.830078125 612.1796875 l 1
 649.830078125 604.6796875 l 1
 649.830078125 598.5703125 l 2
 649.830078125 586.104492188 639.803710938 575.91015625 627.33984375 575.91015625 c 2
 611.9296875 575.91015625 l 2
 593.219726562 575.91015625 558.509765625 565.840820312 558.509765625 532.84375 c 2
 558.509765625 6.2998046875 l 1
 558.509765625 -1.2001953125 l 1
 558.509765625 -8.7001953125 l 1
 551.009765625 -8.7001953125 l 1
 543.509765625 -8.7001953125 l 1
 523.889648438 -8.7001953125 l 1
 519.966796875 -8.7001953125 l 1
 516.043945312 -8.7001953125 l 1
 513.806640625 -5.4775390625 l 1
 511.569335938 -2.255859375 l 1
 141.26953125 531.000976562 l 1
 141.26953125 89.26953125 l 2
 141.26953125 54.1513671875 176.018554688 43.76953125 194.690429688 43.76953125 c 2
 210.099609375 43.76953125 l 2
 222.545898438 43.76953125 232.58984375 33.5908203125 232.58984375 21.1103515625 c 2
 232.58984375 15 l 1
 232.58984375 7.5 l 1
 232.58984375 0 l 1
 225.08984375 0 l 1
 217.58984375 0 l 1
 15.169921875 0 l 1
 7.669921875 0 l 1
 0.169921875 0 l 1
 0.169921875 7.5 l 1
 0.169921875 15 l 1
 0.169921875 21.1103515625 l 2
 0.169921875 32.642578125 9.236328125 43.76953125 22.66015625 43.76953125 c 2
 37.98046875 43.76953125 l 2
 56.138671875 43.76953125 91.490234375 53.9130859375 91.490234375 86.6826171875 c 2
 91.490234375 532.98828125 l 2
 91.490234375 565.946289062 56.8935546875 575.91015625 38.0703125 575.91015625 c 2
 22.66015625 575.91015625 l 2
 10.212890625 575.91015625 0.169921875 586.08984375 0.169921875 598.5703125 c 2
 0.169921875 604.6796875 l 1
 0.169921875 612.1796875 l 1
 0.169921875 619.6796875 l 1
 7.669921875 619.6796875 l 1
 15.169921875 619.6796875 l 1
 165.360351562 619.6796875 l 1
 169.282226562 619.6796875 l 1
 173.204101562 619.6796875 l 1
 175.44140625 616.458984375 l 1
 177.6796875 613.237304688 l 1
 508.73046875 136.693359375 l 1
 508.73046875 530.400390625 l 2
 508.73046875 565.407226562 473.321289062 575.91015625 455.219726562 575.91015625 c 2
 439.900390625 575.91015625 l 2
 426.474609375 575.91015625 417.41015625 587.040039062 417.41015625 598.5703125 c 2
 417.41015625 604.6796875 l 1
 417.41015625 612.1796875 l 1
 417.41015625 619.6796875 l 1
 424.91015625 619.6796875 l 1
 432.41015625 619.6796875 l 1
 634.830078125 619.6796875 l 1
 642.330078125 619.6796875 l 1
 649.830078125 619.6796875 l 1
EndSplineSet
EndChar

StartChar: O
Encoding: 79 79 33
Width: 552
Flags: MW
HStem: -16.0303 51.0801 583.22 50.3701
VStem: 0.530273 95.71 433.77 95.6904
LayerCount: 2
Fore
SplineSet
257.450195312 -16.0302734375 m 0
 62.83984375 -16.0302734375 0.5302734375 166.840820312 0.5302734375 309.6015625 c 0
 0.5302734375 429.94921875 50.845703125 633.58984375 265.009765625 633.58984375 c 0
 450.372070312 633.58984375 529.469726562 486.623046875 529.459960938 309.6015625 c 0
 529.459960938 200.751953125 493.115234375 -16.0302734375 257.450195312 -16.0302734375 c 0
433.76953125 307.071289062 m 0
 433.76953125 461.010742188 369.086914062 583.219726562 262.809570312 583.219726562 c 0
 153.293945312 583.219726562 96.240234375 443.220703125 96.240234375 307.071289062 c 0
 96.240234375 160.041992188 164.198242188 35.0498046875 275.650390625 35.0498046875 c 0
 354.908203125 35.0498046875 433.76953125 158.075195312 433.76953125 307.071289062 c 0
EndSplineSet
EndChar

StartChar: P
Encoding: 80 80 34
Width: 518
Flags: MW
HStem: 0.00976562 43.7705 206.36 49.71 569.4 50.2793 576.443 43.2363
VStem: 68.5596 94.54
LayerCount: 2
Fore
SplineSet
7.0703125 619.6796875 m 1xd8
 14.5703125 619.6796875 l 1xd8
 217 619.6796875 l 2xe8
 303.4296875 619.6796875 409.760742188 614.40625 471.079101562 501.112304688 c 0
 509.293945312 430.54296875 493.098632812 338.53515625 450.185546875 288.91796875 c 0
 382.07421875 210.170898438 311.939453125 206.360351562 180.049804688 206.360351562 c 2
 163.08984375 206.360351562 l 1
 163.08984375 85.30078125 l 2
 163.08984375 47.58984375 180.271484375 43.7802734375 194.099609375 43.7802734375 c 2
 209.509765625 43.7802734375 l 2
 221.974609375 43.7802734375 232 33.5849609375 232 21.1201171875 c 2
 232 15.009765625 l 1
 232 7.509765625 l 1
 232 0.009765625 l 1
 224.5 0.009765625 l 1
 217 0.009765625 l 1
 14.5703125 0.009765625 l 1
 7.0703125 0.009765625 l 1
 -0.4296875 0.009765625 l 1
 -0.4296875 7.509765625 l 1
 -0.4296875 15.009765625 l 1
 -0.4296875 21.1201171875 l 2
 -0.4296875 32.6494140625 8.6328125 43.7802734375 22.0595703125 43.7802734375 c 2
 37.3798828125 43.7802734375 l 2
 50.556640625 43.7802734375 68.5595703125 47.90234375 68.5595703125 86.7421875 c 2
 68.5595703125 533.481445312 l 2
 68.5595703125 572.329101562 50.5498046875 576.443359375 37.3798828125 576.443359375 c 2
 22.0595703125 576.443359375 l 2
 8.794921875 576.443359375 -0.4296875 587.2265625 -0.4296875 598.723632812 c 2
 -0.4296875 604.6796875 l 1
 -0.4296875 612.1796875 l 1
 -0.4296875 619.6796875 l 1
 7.0703125 619.6796875 l 1xd8
396.240234375 412.844726562 m 0
 396.240234375 484.921875 337.870117188 569.400390625 222.599609375 569.400390625 c 2
 163.099609375 569.400390625 l 1xe8
 163.099609375 256.0703125 l 1
 188.91015625 256.0703125 l 2
 358.60546875 256.0703125 396.240234375 344.840820312 396.240234375 412.844726562 c 0
EndSplineSet
EndChar

StartChar: Q
Encoding: 81 81 35
Width: 560
Flags: MW
HStem: -140.94 175.24 582.7 50.3701
VStem: 2.53027 95.71 435.77 95.7002
LayerCount: 2
Fore
SplineSet
267.009765625 633.0703125 m 0
 452.340820312 633.0703125 531.469726562 486.68359375 531.469726562 309.721679688 c 0
 531.469726562 212.09375 502.935546875 30.6845703125 331.453125 -8.5537109375 c 1
 360.533203125 -51.6298828125 403.228515625 -75.916015625 477.584960938 -92.8974609375 c 0
 488.359375 -95.3623046875 492.389648438 -96.201171875 492.4375 -96.2119140625 c 0
 504.62890625 -98.8603515625 512.421875 -111.001953125 509.620117188 -123.19140625 c 0
 508.97265625 -126.169921875 508.365234375 -129.046875 508.365234375 -129.046875 c 1
 507.106445312 -134.993164062 l 1
 505.84765625 -140.940429688 l 1
 499.768554688 -140.940429688 l 1
 493.690429688 -140.940429688 l 2
 382.004882812 -140.940429688 282.536132812 -117.224609375 234.907226562 -15.3681640625 c 1
 57.7373046875 -0.26171875 2.5302734375 173.430664062 2.5302734375 309.590820312 c 0
 2.5302734375 429.94921875 52.8701171875 633.0703125 267.009765625 633.0703125 c 0
435.76953125 307.0390625 m 0
 435.76953125 460.950195312 371.1171875 582.700195312 264.809570312 582.700195312 c 0
 155.266601562 582.700195312 98.240234375 443.168945312 98.240234375 307.0390625 c 0
 98.240234375 159.97265625 166.244140625 34.2998046875 277.650390625 34.2998046875 c 0
 356.862304688 34.2998046875 435.76953125 158.004882812 435.76953125 307.0390625 c 0
EndSplineSet
EndChar

StartChar: R
Encoding: 82 82 36
Width: 625
Flags: MW
HStem: 0 43.7695 310.805 34.6953 569.37 50.3096 576.443 43.2363
VStem: 71.1504 94.46
LayerCount: 2
Fore
SplineSet
17.1201171875 619.6796875 m 1xd8
 219.549804688 619.6796875 l 2xe8
 303.483398438 619.6796875 423.221679688 624.268554688 465.97265625 515.333984375 c 0
 468.3984375 509.153320312 470.41015625 503.077148438 472.02734375 497.108398438 c 0
 501.001953125 390.13671875 402.592773438 331.651367188 343.598632812 313.9609375 c 1
 491.796875 102.5078125 l 2
 504.322265625 85.068359375 544.82421875 43.76953125 557.990234375 43.76953125 c 2
 573.309570312 43.76953125 l 2
 585.588867188 43.76953125 595.879882812 33.79296875 595.879882812 21.1103515625 c 2
 595.879882812 15 l 1
 595.879882812 7.5 l 1
 595.879882812 0 l 1
 588.379882812 0 l 1
 580.879882812 0 l 1
 455.48046875 0 l 1
 451.509765625 0 l 1
 447.5390625 0 l 1
 445.307617188 3.2841796875 l 1
 443.075195312 6.5673828125 l 1
 235.420898438 312.055664062 l 1
 210.572265625 311.010742188 182.458007812 310.857421875 165.599609375 310.8046875 c 1
 165.599609375 89.26953125 l 2
 165.599609375 47.8330078125 183.03125 43.76953125 196.650390625 43.76953125 c 2
 212.059570312 43.76953125 l 2
 224.5234375 43.76953125 234.549804688 33.5751953125 234.549804688 21.1103515625 c 2
 234.549804688 15 l 1
 234.549804688 7.5 l 1
 234.549804688 0 l 1
 227.049804688 0 l 1
 219.549804688 0 l 1
 17.1201171875 0 l 1
 9.6201171875 0 l 1
 2.1201171875 0 l 1
 2.1201171875 7.5 l 1
 2.1201171875 15 l 1
 2.1201171875 21.1103515625 l 2
 2.1201171875 32.642578125 11.1865234375 43.76953125 24.6103515625 43.76953125 c 2
 39.9296875 43.76953125 l 2
 53.15625 43.76953125 71.150390625 47.8720703125 71.150390625 86.7314453125 c 2
 71.150390625 533.47265625 l 2
 71.150390625 572.350585938 53.1484375 576.443359375 39.9296875 576.443359375 c 2
 24.6103515625 576.443359375 l 2
 11.345703125 576.443359375 2.1201171875 587.225585938 2.1201171875 598.723632812 c 2
 2.1201171875 604.6796875 l 1
 2.1201171875 612.1796875 l 1
 2.1201171875 619.6796875 l 1
 9.6201171875 619.6796875 l 1
 17.1201171875 619.6796875 l 1xd8
225.139648438 569.370117188 m 2
 165.610351562 569.370117188 l 1
 165.610351562 345.5 l 1
 191.490234375 345.5 l 2
 338.338867188 345.5 380.639648438 389.19140625 380.639648438 457.270507812 c 0
 380.639648438 525.107421875 327.002929688 569.370117188 225.139648438 569.370117188 c 2
EndSplineSet
EndChar

StartChar: S
Encoding: 83 83 37
Width: 471
Flags: MW
HStem: -16.04 54.7998 583.53 49.8701
VStem: 18.3301 91.8896 348.339 61.4072 356.66 87.1602
LayerCount: 2
Fore
SplineSet
396.76953125 437.48828125 m 2xf0
 396.609375 437.467773438 377.067382812 434.979492188 373.076171875 434.603515625 c 0
 360.939453125 433.51171875 349.627929688 442.00390625 348.338867188 454.655273438 c 2xf0
 348.30078125 455.03515625 l 2
 348.30078125 455.60546875 347.907226562 459.408203125 346.587890625 469.466796875 c 0
 333.149414062 571.767578125 262.787109375 583.530273438 216.08984375 583.530273438 c 0
 163.047851562 583.530273438 110.219726562 545.765625 110.219726562 488.0703125 c 0
 110.219726562 431.754882812 133.752929688 385.955078125 231.01953125 361.612304688 c 0
 351.560546875 331.448242188 443.8203125 289.42578125 443.8203125 165.662109375 c 0
 443.8203125 55.8095703125 338.759765625 -16.0400390625 229.889648438 -16.0400390625 c 0
 128.444335938 -16.0400390625 60.1328125 41.638671875 18.06640625 114.564453125 c 2
 17.4716796875 115.594726562 l 1
 16.876953125 116.625976562 l 1
 16.630859375 117.790039062 l 1
 16.384765625 118.954101562 l 2
 3.5078125 179.798828125 2.21875 231.538085938 2.205078125 232.056640625 c 2
 2.01953125 239.12890625 l 1
 1.833984375 246.201171875 l 1
 8.8828125 246.798828125 l 1
 15.9326171875 247.396484375 l 2
 16.0615234375 247.407226562 40.7626953125 249.520507812 44.7099609375 249.725585938 c 0
 58.51171875 250.575195312 66.845703125 239.169921875 68.2890625 230.89453125 c 2
 68.3330078125 230.641601562 l 1
 68.359375 230.38671875 l 2
 68.62890625 227.8125 69.658203125 217.461914062 71.63671875 205.55078125 c 0
 92.185546875 82.0107421875 173.71484375 38.759765625 233.280273438 38.759765625 c 0
 281.692382812 38.759765625 356.66015625 84.9111328125 356.66015625 153.734375 c 0xe8
 356.66015625 219.361328125 317.399414062 248.764648438 209.700195312 275.024414062 c 0
 74.9619140625 307.874023438 18.330078125 388.248046875 18.330078125 478.024414062 c 0
 18.330078125 565.751953125 110.020507812 633.400390625 224.830078125 633.400390625 c 0
 307.172851562 633.400390625 343.768554688 613.630859375 390.108398438 573.931640625 c 2
 391.462890625 572.770507812 l 1
 392.818359375 571.610351562 l 1
 393.504882812 569.963867188 l 1
 394.192382812 568.317382812 l 2
 411.732421875 526.293945312 409.897460938 452.702148438 409.888671875 452.188476562 c 2
 409.817382812 445.666992188 l 1
 409.74609375 439.127929688 l 1
 403.2578125 438.307617188 l 1
 396.76953125 437.48828125 l 2xf0
EndSplineSet
EndChar

StartChar: T
Encoding: 84 84 38
Width: 568
Flags: MW
HStem: 0.00976562 43.7705 478.56 141.12 569.88 49.7998
VStem: -1.08984 43.7695 218.82 94.46 489.31 43.7705
LayerCount: 2
Fore
SplineSet
533.080078125 619.6796875 m 1xdc
 533.080078125 612.1796875 l 1
 533.080078125 604.6796875 l 1
 533.080078125 493.5703125 l 1
 533.080078125 486.0703125 l 1
 533.080078125 478.5703125 l 1
 525.580078125 478.5703125 l 1
 518.080078125 478.5703125 l 1
 511.969726562 478.5703125 l 2
 500.440429688 478.5703125 489.309570312 487.6328125 489.309570312 501.059570312 c 2
 489.309570312 516.379882812 l 2
 489.309570312 534.354492188 478.643554688 569.889648438 443.799804688 569.889648438 c 2
 313.280273438 569.889648438 l 1
 313.280273438 86.666015625 l 2
 313.280273438 47.66796875 330.547851562 43.7802734375 344.330078125 43.7802734375 c 2
 359.740234375 43.7802734375 l 2
 372.205078125 43.7802734375 382.23046875 33.5849609375 382.23046875 21.1201171875 c 2
 382.23046875 15.009765625 l 1
 382.23046875 7.509765625 l 1
 382.23046875 0.009765625 l 1
 374.73046875 0.009765625 l 1
 367.23046875 0.009765625 l 1
 164.790039062 0.009765625 l 1
 157.290039062 0.009765625 l 1
 149.790039062 0.009765625 l 1
 149.790039062 7.509765625 l 1
 149.790039062 15.009765625 l 1
 149.790039062 21.1201171875 l 2
 149.790039062 32.650390625 158.854492188 43.7802734375 172.280273438 43.7802734375 c 2
 187.599609375 43.7802734375 l 2
 200.833984375 43.7802734375 218.8203125 47.8779296875 218.8203125 86.6650390625 c 2
 218.8203125 569.879882812 l 1
 88.1904296875 569.879882812 l 2xbc
 53.2607421875 569.879882812 42.6796875 534.44921875 42.6796875 516.370117188 c 2
 42.6796875 501.049804688 l 2
 42.6796875 487.626953125 31.552734375 478.559570312 20.01953125 478.559570312 c 2
 13.91015625 478.559570312 l 1
 6.41015625 478.559570312 l 1
 -1.08984375 478.559570312 l 1
 -1.08984375 486.059570312 l 1
 -1.08984375 493.559570312 l 1
 -1.08984375 604.6796875 l 1
 -1.08984375 612.1796875 l 1
 -1.08984375 619.6796875 l 1
 6.41015625 619.6796875 l 1
 13.91015625 619.6796875 l 1
 518.080078125 619.6796875 l 1
 525.580078125 619.6796875 l 1
 533.080078125 619.6796875 l 1xdc
EndSplineSet
EndChar

StartChar: U
Encoding: 85 85 39
Width: 598
Flags: MW
HStem: -16.04 47.3096 575.91 43.7695
VStem: 69.2695 94.54 448.56 49.8008
LayerCount: 2
Fore
SplineSet
498.360351562 532.772460938 m 2
 498.360351562 177.896484375 l 2
 498.360351562 52.9404296875 433.229492188 -16.0400390625 288.349609375 -16.0400390625 c 0
 163.911132812 -16.0400390625 69.26953125 34.5185546875 69.26953125 175.767578125 c 2
 69.3603515625 532.772460938 l 2
 69.3603515625 571.8046875 51.3525390625 575.91015625 38.1396484375 575.91015625 c 2
 22.8203125 575.91015625 l 2
 9.39453125 575.91015625 0.330078125 587.040039062 0.330078125 598.5703125 c 2
 0.330078125 604.6796875 l 1
 0.330078125 612.1796875 l 1
 0.330078125 619.6796875 l 1
 7.830078125 619.6796875 l 1
 15.330078125 619.6796875 l 1
 217.759765625 619.6796875 l 1
 225.259765625 619.6796875 l 1
 232.759765625 619.6796875 l 1
 232.759765625 612.1796875 l 1
 232.759765625 604.6796875 l 1
 232.759765625 598.5703125 l 2
 232.759765625 586.08984375 222.716796875 575.91015625 210.26953125 575.91015625 c 2
 194.860351562 575.91015625 l 2
 181.0859375 575.91015625 163.809570312 572.008789062 163.809570312 532.932617188 c 2
 163.809570312 174.97265625 l 2
 163.809570312 62.69140625 228.60546875 31.26953125 299.4296875 31.26953125 c 0
 366.0703125 31.26953125 448.559570312 54.2685546875 448.559570312 179.296875 c 2
 448.559570312 532.932617188 l 2
 448.559570312 565.83984375 413.306640625 575.91015625 395.049804688 575.91015625 c 2
 379.73046875 575.91015625 l 2
 366.3046875 575.91015625 357.240234375 587.040039062 357.240234375 598.5703125 c 2
 357.240234375 604.6796875 l 1
 357.240234375 612.1796875 l 1
 357.240234375 619.6796875 l 1
 364.740234375 619.6796875 l 1
 372.240234375 619.6796875 l 1
 574.6796875 619.6796875 l 1
 582.1796875 619.6796875 l 1
 589.6796875 619.6796875 l 1
 589.6796875 612.1796875 l 1
 589.6796875 604.6796875 l 1
 589.6796875 598.5703125 l 2
 589.6796875 586.106445312 579.65625 575.91015625 567.190429688 575.91015625 c 2
 551.780273438 575.91015625 l 2
 533.077148438 575.91015625 498.360351562 565.817382812 498.360351562 532.772460938 c 2
EndSplineSet
EndChar

StartChar: V
Encoding: 86 86 40
Width: 640
Flags: MW
HStem: 575.91 43.7695
LayerCount: 2
Fore
SplineSet
357.9140625 -16.0400390625 m 1
 352.247070312 -16.0400390625 l 1
 346.580078125 -16.0400390625 l 1
 304.200195312 -16.0400390625 l 1
 298.901367188 -16.0400390625 l 1
 293.6015625 -16.0400390625 l 1
 291.83203125 -11.044921875 l 1
 290.071289062 -6.078125 l 1
 91.0810546875 528.0390625 l 2
 84.0712890625 546.622070312 67.490234375 575.91015625 33.66015625 575.91015625 c 2
 18.33984375 575.91015625 l 2
 6.04296875 575.91015625 -4.23046875 585.90234375 -4.23046875 598.5703125 c 2
 -4.23046875 604.6796875 l 1
 -4.23046875 612.1796875 l 1
 -4.23046875 619.6796875 l 1
 3.26953125 619.6796875 l 1
 10.76953125 619.6796875 l 1
 213.200195312 619.6796875 l 1
 220.700195312 619.6796875 l 1
 228.200195312 619.6796875 l 1
 228.200195312 612.1796875 l 1
 228.200195312 604.6796875 l 1
 228.200195312 598.5703125 l 2
 228.200195312 587.040039062 219.135742188 575.91015625 205.709960938 575.91015625 c 2
 197.959960938 575.91015625 l 2
 193.099609375 575.91015625 189.708984375 575.260742188 187.655273438 574.54296875 c 0
 181.293945312 572.321289062 179.137695312 561.447265625 189.986328125 530.748046875 c 2
 345.186523438 90.595703125 l 1
 469.40625 530.52734375 l 2
 471.088867188 535.961914062 471.797851562 540.522460938 471.852539062 545.23046875 c 0
 472.056640625 562.47265625 464.087890625 575.91015625 436.709960938 575.91015625 c 2
 410.290039062 575.91015625 l 2
 397.014648438 575.91015625 387.799804688 586.900390625 387.799804688 598.5703125 c 2
 387.799804688 604.6796875 l 1
 387.799804688 612.1796875 l 1
 387.799804688 619.6796875 l 1
 395.299804688 619.6796875 l 1
 402.799804688 619.6796875 l 1
 605.23046875 619.6796875 l 1
 612.73046875 619.6796875 l 1
 620.23046875 619.6796875 l 1
 620.23046875 612.1796875 l 1
 620.23046875 604.6796875 l 1
 620.23046875 598.5703125 l 2
 620.23046875 586.104492188 610.204101562 575.91015625 597.740234375 575.91015625 c 2
 582.330078125 575.91015625 l 2
 541.908203125 575.91015625 526.147460938 545.818359375 520.3359375 528.576171875 c 2
 361.002929688 -5.1611328125 l 1
 359.461914062 -10.5888671875 l 1
 357.9140625 -16.0400390625 l 1
EndSplineSet
EndChar

StartChar: W
Encoding: 87 87 41
Width: 888
Flags: MW
HStem: 575.91 43.7695 590.9 28.7793
LayerCount: 2
Fore
SplineSet
626.370117188 619.6796875 m 1x40
 633.870117188 619.6796875 l 1
 641.370117188 619.6796875 l 1
 843.809570312 619.6796875 l 1
 851.309570312 619.6796875 l 1x80
 858.809570312 619.6796875 l 1x40
 858.809570312 612.1796875 l 1
 858.809570312 604.6796875 l 1
 858.809570312 598.5703125 l 2
 858.809570312 586.092773438 848.76953125 575.91015625 836.3203125 575.91015625 c 2
 820.91015625 575.91015625 l 2
 781.23046875 575.91015625 764.668945312 545.64453125 758.916015625 528.576171875 c 2
 599.592773438 -5.16015625 l 1
 598.051757812 -10.5888671875 l 1
 596.50390625 -16.0400390625 l 1
 590.836914062 -16.0400390625 l 1
 585.169921875 -16.0400390625 l 1
 542.740234375 -16.0400390625 l 1
 537.400390625 -16.0400390625 l 1
 532.059570312 -16.0400390625 l 1
 530.3125 -10.994140625 l 1
 528.565429688 -5.947265625 l 1
 435.111328125 263.993164062 l 1
 360.465820312 -5.107421875 l 1
 358.959960938 -10.53515625 l 1
 357.435546875 -16.0302734375 l 1
 351.733398438 -16.0302734375 l 1
 346.030273438 -16.0302734375 l 1
 303.599609375 -16.0302734375 l 1
 298.299804688 -16.0302734375 l 1
 293.000976562 -16.0302734375 l 1
 291.23046875 -11.03515625 l 1
 289.470703125 -6.0673828125 l 1
 90.5107421875 528.041992188 l 2
 83.2783203125 547.227539062 69.544921875 575.91015625 33.08984375 575.91015625 c 2
 17.76953125 575.91015625 l 2x80
 5.48828125 575.91015625 -4.7998046875 585.889648438 -4.7998046875 598.5703125 c 2
 -4.7998046875 604.6796875 l 1
 -4.7998046875 612.1796875 l 1
 -4.7998046875 619.6796875 l 1x40
 2.7001953125 619.6796875 l 1
 10.2001953125 619.6796875 l 1
 212.629882812 619.6796875 l 1
 220.129882812 619.6796875 l 1x80
 227.629882812 619.6796875 l 1x40
 227.629882812 612.1796875 l 1
 227.629882812 604.6796875 l 1
 227.629882812 598.5703125 l 2
 227.629882812 587.040039062 218.565429688 575.91015625 205.139648438 575.91015625 c 2
 197.389648438 575.91015625 l 2
 192.529296875 575.91015625 189.138671875 575.260742188 187.084960938 574.54296875 c 0
 180.723632812 572.321289062 178.567382812 561.448242188 189.416015625 530.747070312 c 2
 344.428710938 91.0576171875 l 1
 406.177734375 315.639648438 l 1
 329.643554688 525.479492188 l 2
 322.900390625 544.290039062 302.235351562 575.91015625 272.23046875 575.91015625 c 2
 256.91015625 575.91015625 l 2x80
 244.629882812 575.91015625 234.33984375 585.888671875 234.33984375 598.5703125 c 2
 234.33984375 604.6796875 l 1
 234.33984375 612.1796875 l 1
 234.33984375 619.6796875 l 1x40
 241.83984375 619.6796875 l 1
 249.33984375 619.6796875 l 1x80
 402.23046875 619.6796875 l 1
 451.76953125 619.6796875 l 1x40
 604.669921875 619.6796875 l 1
 612.169921875 619.6796875 l 1x80
 619.669921875 619.6796875 l 1x40
 619.669921875 612.1796875 l 1
 619.669921875 604.6796875 l 1
 619.669921875 598.5703125 l 2
 619.669921875 586.08984375 609.626953125 575.91015625 597.1796875 575.91015625 c 2
 581.76953125 575.91015625 l 2
 539.87109375 575.91015625 525.845703125 544.681640625 519.776367188 526.018554688 c 2
 479.87890625 373.970703125 l 1
 583.5234375 89.6943359375 l 1
 707.975585938 530.524414062 l 2
 709.65625 535.95703125 710.364257812 540.524414062 710.419921875 545.233398438 c 0
 710.62109375 562.48046875 702.657226562 575.91015625 675.280273438 575.91015625 c 2
 648.860351562 575.91015625 l 2x80
 635.583984375 575.91015625 626.370117188 586.90234375 626.370117188 598.5703125 c 2
 626.370117188 604.6796875 l 1
 626.370117188 612.1796875 l 1
 626.370117188 619.6796875 l 1x40
436.3515625 590.900390625 m 0x40
 431.912109375 590.887695312 428.578125 590.298828125 426.557617188 589.640625 c 0
 419.74609375 587.421875 417.580078125 576.814453125 428.63671875 545.520507812 c 2
 450.947265625 474.956054688 l 1
 468.678710938 544.953125 l 1
 468.775390625 545.33203125 l 1
 468.890625 545.705078125 l 2
 470.44921875 550.739257812 471.237304688 555.729492188 471.28125 560.32421875 c 0
 471.444335938 577.481445312 463.489257812 590.83203125 436.3515625 590.900390625 c 0x40
EndSplineSet
EndChar

StartChar: X
Encoding: 88 88 42
Width: 602
Flags: MW
HStem: 0 43.7695 575.9 43.7695
LayerCount: 2
Fore
SplineSet
380.471679688 79.0966796875 m 2
 271.161132812 261.079101562 l 1
 166.416992188 78.40625 l 2
 162.860351562 72.1923828125 161.844726562 67.72265625 161.763671875 64.73828125 c 0
 161.481445312 54.2451171875 181.235351562 43.76953125 196.889648438 43.76953125 c 2
 212.209960938 43.76953125 l 2
 225.633789062 43.76953125 234.700195312 32.642578125 234.700195312 21.1103515625 c 2
 234.700195312 15 l 1
 234.700195312 7.5 l 1
 234.700195312 0 l 1
 227.200195312 0 l 1
 219.700195312 0 l 1
 17.259765625 0 l 1
 9.759765625 0 l 1
 2.259765625 0 l 1
 2.259765625 7.5 l 1
 2.259765625 15 l 1
 2.259765625 21.1103515625 l 2
 2.259765625 33.5771484375 12.287109375 43.76953125 24.75 43.76953125 c 2
 40.16015625 43.76953125 l 2
 72.89453125 43.76953125 100.673828125 62.7509765625 123.235351562 100.084960938 c 2
 243.084960938 293.619140625 l 1
 114.59765625 496.258789062 l 2
 88.2314453125 537.715820312 58.529296875 575.900390625 40.0703125 575.900390625 c 2
 24.75 575.900390625 l 2
 11.326171875 575.900390625 2.259765625 587.02734375 2.259765625 598.559570312 c 2
 2.259765625 604.669921875 l 1
 2.259765625 612.169921875 l 1
 2.259765625 619.669921875 l 1
 9.759765625 619.669921875 l 1
 17.259765625 619.669921875 l 1
 219.690429688 619.669921875 l 1
 227.190429688 619.669921875 l 1
 234.690429688 619.669921875 l 1
 234.690429688 612.169921875 l 1
 234.690429688 604.669921875 l 1
 234.690429688 598.559570312 l 2
 234.690429688 586.092773438 224.663085938 575.900390625 212.200195312 575.900390625 c 2
 196.790039062 575.900390625 l 2
 193.194335938 575.900390625 190.251953125 575.015625 188.6875 574.081054688 c 0
 187.205078125 573.1953125 178.6171875 568.635742188 195.529296875 540.583984375 c 2
 297.16015625 371.372070312 l 1
 395.131835938 541.44140625 l 2
 398.688476562 547.655273438 399.706054688 552.12890625 399.786132812 555.112304688 c 0
 400.069335938 565.60546875 380.315429688 576.080078125 364.66015625 576.080078125 c 2
 349.33984375 576.080078125 l 2
 335.915039062 576.080078125 326.849609375 587.208007812 326.849609375 598.740234375 c 2
 326.849609375 604.849609375 l 1
 326.849609375 612.349609375 l 1
 326.849609375 619.849609375 l 1
 334.349609375 619.849609375 l 1
 341.849609375 619.849609375 l 1
 544.299804688 619.849609375 l 1
 551.799804688 619.849609375 l 1
 559.299804688 619.849609375 l 1
 559.299804688 612.349609375 l 1
 559.299804688 604.849609375 l 1
 559.299804688 598.740234375 l 2
 559.299804688 586.27734375 549.276367188 576.080078125 536.809570312 576.080078125 c 2
 521.400390625 576.080078125 l 2
 488.666015625 576.080078125 460.88671875 557.09765625 438.32421875 519.763671875 c 2
 325.564453125 337.669921875 l 1
 461.40234375 123.421875 l 2
 487.768554688 81.96484375 517.469726562 43.7802734375 535.9296875 43.7802734375 c 2
 551.25 43.7802734375 l 2
 564.67578125 43.7802734375 573.740234375 32.650390625 573.740234375 21.1201171875 c 2
 573.740234375 15.009765625 l 1
 573.740234375 7.509765625 l 1
 573.740234375 0.009765625 l 1
 566.240234375 0.009765625 l 1
 558.740234375 0.009765625 l 1
 356.309570312 0.009765625 l 1
 348.809570312 0.009765625 l 1
 341.309570312 0.009765625 l 1
 341.309570312 7.509765625 l 1
 341.309570312 15.009765625 l 1
 341.309570312 21.1201171875 l 2
 341.309570312 33.5849609375 351.334960938 43.7802734375 363.799804688 43.7802734375 c 2
 379.209960938 43.7802734375 l 2
 382.805664062 43.7802734375 385.748046875 44.6650390625 387.3125 45.599609375 c 0
 388.793945312 46.4853515625 397.3828125 51.044921875 380.471679688 79.0966796875 c 2
EndSplineSet
EndChar

StartChar: Y
Encoding: 89 89 43
Width: 652
Flags: MW
HStem: 0.00976562 43.7705 575.91 43.7695
VStem: 255.47 94.5205
LayerCount: 2
Fore
SplineSet
389.830078125 619.6796875 m 1
 397.330078125 619.6796875 l 1
 404.830078125 619.6796875 l 1
 607.25 619.6796875 l 1
 614.75 619.6796875 l 1
 622.25 619.6796875 l 1
 622.25 612.1796875 l 1
 622.25 604.6796875 l 1
 622.25 598.5703125 l 2
 622.25 586.08984375 612.20703125 575.91015625 599.759765625 575.91015625 c 2
 584.349609375 575.91015625 l 2
 547.901367188 575.91015625 535.215820312 559.533203125 511.314453125 519.606445312 c 2
 349.951171875 250.116210938 l 1
 349.990234375 86.693359375 l 2
 349.990234375 47.6845703125 367.249023438 43.7802734375 381 43.7802734375 c 2
 396.41015625 43.7802734375 l 2
 408.875 43.7802734375 418.900390625 33.5849609375 418.900390625 21.1201171875 c 2
 418.900390625 15.009765625 l 1
 418.900390625 7.509765625 l 1
 418.900390625 0.009765625 l 1
 411.400390625 0.009765625 l 1
 403.900390625 0.009765625 l 1
 201.469726562 0.009765625 l 1
 193.969726562 0.009765625 l 1
 186.469726562 0.009765625 l 1
 186.469726562 7.509765625 l 1
 186.469726562 15.009765625 l 1
 186.469726562 21.1201171875 l 2
 186.469726562 32.65234375 195.53515625 43.7802734375 208.959960938 43.7802734375 c 2
 224.280273438 43.7802734375 l 2
 237.46484375 43.7802734375 255.469726562 47.90625 255.469726562 86.689453125 c 2
 255.430664062 247.663085938 l 1
 101.110351562 509.38671875 l 2
 76.470703125 550.987304688 55.775390625 575.91015625 37.5498046875 575.91015625 c 2
 22.23046875 575.91015625 l 2
 8.8046875 575.91015625 -0.259765625 587.040039062 -0.259765625 598.5703125 c 2
 -0.259765625 604.6796875 l 1
 -0.259765625 612.1796875 l 1
 -0.259765625 619.6796875 l 1
 7.240234375 619.6796875 l 1
 14.740234375 619.6796875 l 1
 217.1796875 619.6796875 l 1
 224.6796875 619.6796875 l 1
 232.1796875 619.6796875 l 1
 232.1796875 612.1796875 l 1
 232.1796875 604.6796875 l 1
 232.1796875 598.5703125 l 2
 232.1796875 586.092773438 222.139648438 575.91015625 209.690429688 575.91015625 c 2
 194.280273438 575.91015625 l 2
 186.666992188 575.91015625 179.186523438 574.620117188 177.037109375 573.461914062 c 2
 177.037109375 573.461914062 170.251953125 575.561523438 183.536132812 551.884765625 c 2
 327.73046875 293.73046875 l 1
 468.012695312 541.041015625 l 2
 471.052734375 546.400390625 471.784179688 550.110351562 471.78515625 552.59375 c 0
 471.7890625 563.372070312 445.024414062 575.91015625 427.639648438 575.91015625 c 2
 412.3203125 575.91015625 l 2
 398.89453125 575.91015625 389.830078125 587.040039062 389.830078125 598.5703125 c 2
 389.830078125 604.6796875 l 1
 389.830078125 612.1796875 l 1
 389.830078125 619.6796875 l 1
EndSplineSet
EndChar

StartChar: Z
Encoding: 90 90 44
Width: 489
Flags: MW
HStem: 0 49.79 569.89 49.79
VStem: 12.9697 43.7705 416.58 43.7695
LayerCount: 2
Fore
SplineSet
460.349609375 0 m 1
 452.849609375 0 l 1
 445.349609375 0 l 1
 12.650390625 0 l 1
 5.150390625 0 l 1
 -2.349609375 0 l 1
 -2.349609375 7.5 l 1
 -2.349609375 14.8046875 l 1
 -2.349609375 33.431640625 l 1
 -2.349609375 35.3701171875 l 1
 -2.349609375 37.4033203125 l 1
 -1.271484375 39.14453125 l 1
 -0.236328125 40.8154296875 l 1
 327.50390625 569.889648438 l 1
 102.240234375 569.889648438 l 2
 67.322265625 569.889648438 56.740234375 534.461914062 56.740234375 516.379882812 c 2
 56.740234375 501.059570312 l 2
 56.740234375 487.6328125 45.609375 478.5703125 34.080078125 478.5703125 c 2
 27.9697265625 478.5703125 l 1
 20.4697265625 478.5703125 l 1
 12.9697265625 478.5703125 l 1
 12.9697265625 486.0703125 l 1
 12.9697265625 493.5703125 l 1
 12.9697265625 604.6796875 l 1
 12.9697265625 612.1796875 l 1
 12.9697265625 619.6796875 l 1
 20.4697265625 619.6796875 l 1
 27.9697265625 619.6796875 l 1
 440.400390625 619.6796875 l 1
 453.501953125 619.6796875 l 1
 466.774414062 619.6796875 l 1
 459.926757812 608.6015625 l 1
 453.291992188 597.869140625 l 1
 114.50390625 49.7900390625 l 1
 371.080078125 49.7900390625 l 2
 405.997070312 49.7900390625 416.580078125 85.2197265625 416.580078125 103.299804688 c 2
 416.580078125 118.620117188 l 2
 416.580078125 132.044921875 427.708007812 141.110351562 439.240234375 141.110351562 c 2
 445.349609375 141.110351562 l 1
 452.849609375 141.110351562 l 1
 460.349609375 141.110351562 l 1
 460.349609375 133.610351562 l 1
 460.349609375 126.110351562 l 1
 460.349609375 15 l 1
 460.349609375 7.5 l 1
 460.349609375 0 l 1
EndSplineSet
EndChar

StartChar: a
Encoding: 97 97 45
Width: 461
Flags: MW
HStem: 0 43.7695 196.387 41.0254 293.89 119.933
VStem: 23.0098 100.101 252.21 94.6201
LayerCount: 2
Fore
SplineSet
10.890625 137.645507812 m 0
 47.3818359375 208.533203125 147.501953125 235.022460938 252.209960938 237.412109375 c 1
 252.209960938 297.153320312 l 2
 252.209960938 326.149414062 240.099609375 357.962890625 218.467773438 370.276367188 c 0
 189.3203125 386.931640625 140.329101562 388.38671875 117.220703125 367.4453125 c 1
 121.927734375 358.381835938 123.110351562 352.499023438 123.110351562 343.940429688 c 0
 123.110351562 316.298828125 100.706054688 293.889648438 73.0595703125 293.889648438 c 0
 45.41796875 293.889648438 23.009765625 316.294921875 23.009765625 343.940429688 c 0
 23.009765625 367.428710938 38.00390625 385.78515625 59.6728515625 401.501953125 c 0
 124.854492188 448.784179688 220.799804688 436.840820312 271.616210938 413.822265625 c 0
 346.057617188 382.581054688 346.91796875 331.001953125 346.830078125 327.879882812 c 2
 346.830078125 107.46875 l 1
 346.919921875 85.6005859375 l 2
 346.919921875 47.63671875 364.095703125 43.76953125 377.879882812 43.76953125 c 2
 393.290039062 43.76953125 l 2
 405.752929688 43.76953125 415.780273438 33.5771484375 415.780273438 21.1103515625 c 2
 415.780273438 15 l 1
 415.780273438 7.5 l 1
 415.780273438 0 l 1
 408.280273438 0 l 1
 400.780273438 0 l 1
 267.379882812 0 l 1
 259.879882812 0 l 1
 252.379882812 0 l 1
 252.379882812 7.5 l 1
 252.379882812 15 l 1
 252.379882812 34.470703125 l 1
 210.139648438 -7.265625 170.59375 -15.83984375 126.709960938 -15.83984375 c 0
 102.801757812 -15.83984375 81.2568359375 -11.1982421875 63.12109375 -2.8349609375 c 0
 4.2509765625 21.8251953125 -17.87890625 81.6904296875 10.890625 137.645507812 c 0
137.071289062 175.150390625 m 0
 92.2607421875 156.5078125 87.9873046875 98.7060546875 96.2177734375 62.0986328125 c 0
 102.6953125 33.13671875 114.190429688 21.716796875 146.786132812 25.423828125 c 0
 250.55859375 37.2216796875 253.711914062 148.749023438 252.662109375 196.38671875 c 1
 224.944335938 196.473632812 184.94921875 195.068359375 137.071289062 175.150390625 c 0
EndSplineSet
EndChar

StartChar: b
Encoding: 98 98 46
Width: 479
Flags: MW
HStem: -16.0098 65.1201 -0.00976562 43.7695 367.09 66.6895 575.91 43.7695
VStem: 64.8203 94.46 313.77 94.4502
LayerCount: 2
Fore
SplineSet
159.280273438 612.1796875 m 1x7c
 159.280273438 604.6796875 l 1
 159.280273438 388.688476562 l 1
 189.874023438 415.498046875 225.561523438 434.114257812 266.802734375 433.779296875 c 0
 344.452148438 433.17578125 408.219726562 360.665039062 408.219726562 202.474609375 c 0
 408.219726562 100.798828125 382.80078125 -16.009765625 261.099609375 -16.009765625 c 0xbc
 215.272460938 -16.009765625 181.504882812 5.5146484375 159.280273438 28.6455078125 c 1
 159.280273438 14.990234375 l 1
 159.280273438 7.490234375 l 1
 159.280273438 -0.009765625 l 1
 151.780273438 -0.009765625 l 1
 144.280273438 -0.009765625 l 1
 10.7900390625 -0.009765625 l 1
 3.2900390625 -0.009765625 l 1
 -4.2099609375 -0.009765625 l 1
 -4.2099609375 7.490234375 l 1
 -4.2099609375 14.990234375 l 1
 -4.2099609375 21.099609375 l 2
 -4.2099609375 32.6318359375 4.85546875 43.759765625 18.2802734375 43.759765625 c 2
 33.599609375 43.759765625 l 2
 46.81640625 43.759765625 64.8203125 47.921875 64.8203125 86.4375 c 2
 64.8203125 530.400390625 l 2
 64.8203125 571.642578125 46.6708984375 575.91015625 33.599609375 575.91015625 c 2
 18.2802734375 575.91015625 l 2
 4.8544921875 575.91015625 -4.2099609375 587.040039062 -4.2099609375 598.5703125 c 2
 -4.2099609375 604.6796875 l 1
 -4.2099609375 612.1796875 l 1
 -4.2099609375 619.6796875 l 1
 3.2900390625 619.6796875 l 1
 10.7900390625 619.6796875 l 1
 144.280273438 619.6796875 l 1
 151.780273438 619.6796875 l 1
 159.280273438 619.6796875 l 1
 159.280273438 612.1796875 l 1x7c
236.530273438 49.1103515625 m 0
 279.865234375 49.1103515625 313.76953125 114.979492188 313.76953125 202.551757812 c 0
 313.76953125 309.932617188 286.133789062 367.08984375 239.889648438 367.08984375 c 0
 213.333984375 367.08984375 182.432617188 349.578125 159.290039062 318.897460938 c 1
 159.290039062 107.424804688 l 1
 180.744140625 72.884765625 208.124023438 49.1103515625 236.530273438 49.1103515625 c 0
EndSplineSet
EndChar

StartChar: c
Encoding: 99 99 47
Width: 478
Flags: MW
HStem: -16.0098 49.1602 385.07 48.6992
VStem: 1.94043 97.3398 304.65 100.1
LayerCount: 2
Fore
SplineSet
233.299804688 433.76953125 m 0
 306.360351562 433.76953125 356.428710938 407.672851562 383.688476562 376.333984375 c 0
 397.4453125 360.515625 404.75 346.17578125 404.75 326.51953125 c 0
 404.75 298.877929688 382.345703125 276.469726562 354.700195312 276.469726562 c 0
 327.057617188 276.469726562 304.650390625 298.875 304.650390625 326.51953125 c 0
 304.650390625 336.536132812 308.560546875 346.552734375 312.258789062 352.78515625 c 1
 304.961914062 362.20703125 298.782226562 367.370117188 290.765625 372.280273438 c 0
 274.716796875 382.09765625 252.631835938 385.345703125 235.338867188 385.0703125 c 0
 133.076171875 385.0703125 99.2802734375 284.197265625 99.2802734375 216.336914062 c 0
 99.2802734375 126.694335938 139.016601562 33.150390625 227.849609375 33.150390625 c 0
 290.91796875 33.150390625 317.870117188 59.4033203125 335.419921875 87.7109375 c 0
 342.23828125 98.7138671875 351.689453125 124.2265625 353.42578125 131.828125 c 0
 355.905273438 142.690429688 365.391601562 152.240234375 378.389648438 152.240234375 c 2
 393.059570312 152.240234375 l 1
 401.370117188 152.240234375 l 1
 409.6796875 152.240234375 l 1
 408.831054688 143.973632812 l 1
 407.981445312 135.70703125 l 2
 399.549804688 53.66796875 333.650390625 -16.009765625 228.459960938 -16.009765625 c 0
 101.404296875 -16.009765625 1.9404296875 85.7724609375 1.9404296875 216.4375 c 0
 1.9404296875 407.171875 170.540039062 433.76953125 233.299804688 433.76953125 c 0
EndSplineSet
EndChar

StartChar: d
Encoding: 100 100 48
Width: 464
Flags: MW
HStem: -16.0195 65.1299 0 43.7695 367.09 66.6787 575.91 43.7695
VStem: -1.23047 94.4805 247.74 94.4795
LayerCount: 2
Fore
SplineSet
342.219726562 619.6796875 m 1xbc
 342.219726562 612.1796875 l 1
 342.219726562 604.6796875 l 1
 342.219726562 86.791015625 l 2
 342.219726562 47.9501953125 360.25 43.76953125 373.440429688 43.76953125 c 2
 388.759765625 43.76953125 l 2
 402.18359375 43.76953125 411.25 32.642578125 411.25 21.1103515625 c 2
 411.25 15 l 1
 411.25 7.5 l 1
 411.25 0 l 1
 403.75 0 l 1
 396.25 0 l 1
 262.759765625 0 l 1
 255.259765625 0 l 1
 247.759765625 0 l 1x7c
 247.759765625 7.5 l 1
 247.759765625 15 l 2
 247.759765625 19.19140625 247.740234375 25.3486328125 247.740234375 28.279296875 c 1
 225.01171875 4.38671875 191.073242188 -16.01953125 145.879882812 -16.01953125 c 0
 24.2578125 -16.01953125 -1.23046875 100.819335938 -1.23046875 202.427734375 c 0
 -1.23046875 360.655273438 62.5625 433.188476562 140.235351562 433.768554688 c 0
 181.826171875 434.141601562 219.395507812 413.421875 247.759765625 388.615234375 c 1
 247.759765625 530.379882812 l 2
 247.759765625 571.595703125 229.509765625 575.91015625 216.540039062 575.91015625 c 2
 201.219726562 575.91015625 l 2
 187.79296875 575.91015625 178.73046875 587.041015625 178.73046875 598.5703125 c 2
 178.73046875 604.6796875 l 1
 178.73046875 612.1796875 l 1
 178.73046875 619.6796875 l 1
 186.23046875 619.6796875 l 1
 193.73046875 619.6796875 l 1
 262.75 619.6796875 l 1
 327.209960938 619.6796875 l 1
 334.719726562 619.6796875 l 1
 342.219726562 619.6796875 l 1xbc
93.25 202.551757812 m 0
 93.25 114.977539062 127.145507812 49.1103515625 170.490234375 49.1103515625 c 0xbc
 199.291992188 49.1103515625 227.623046875 75.0859375 247.740234375 107.444335938 c 1
 247.740234375 318.897460938 l 1
 222.918945312 351.831054688 193.3671875 367.08984375 167.129882812 367.08984375 c 0
 120.8828125 367.08984375 93.25 309.936523438 93.25 202.551757812 c 0
EndSplineSet
EndChar

StartChar: e
Encoding: 101 101 49
Width: 467
Flags: MW
HStem: -16 58.6201 229.67 34.8398 381.2 52.5801
LayerCount: 2
Fore
SplineSet
37.541015625 62.2099609375 m 0
 -18.09765625 138.2578125 -2.6806640625 251.817382812 24.1181640625 311.797851562 c 0
 67.58984375 406.930664062 141.625976562 433.780273438 195.870117188 433.780273438 c 0
 269.22265625 433.780273438 384.55859375 403.92578125 384.569335938 243.873046875 c 2
 384.569335938 236.904296875 l 1
 384.5703125 229.669921875 l 1
 377.069335938 229.669921875 l 1
 369.569335938 229.669921875 l 1
 96.044921875 229.669921875 l 1
 98.60546875 94.1943359375 130.239257812 42.6201171875 208.709960938 42.6201171875 c 0
 267.047851562 42.6201171875 312.3671875 93.31640625 328.048828125 158.020507812 c 0
 328.513671875 159.924804688 328.920898438 161.958007812 329.311523438 164.174804688 c 0
 331.4375 176.135742188 341.794921875 185.099609375 354.19921875 185.099609375 c 2
 370.189453125 185.099609375 l 1
 378.520507812 185.099609375 l 1
 386.8515625 185.099609375 l 1
 385.979492188 176.814453125 l 1
 385.107421875 168.529296875 l 2
 384.5234375 162.986328125 383.715820312 157.545898438 382.759765625 152.28515625 c 0
 365.990234375 59.7578125 305.705078125 -16 207.830078125 -16 c 0
 149.330078125 -16 84.314453125 -1.7236328125 37.541015625 62.2099609375 c 0
97.916015625 264.509765625 m 1
 289.6796875 264.509765625 l 1
 283.768554688 326.469726562 259.7734375 381.200195312 194.939453125 381.200195312 c 0
 152.984375 381.200195312 108.39453125 334.206054688 97.916015625 264.509765625 c 1
EndSplineSet
EndChar

StartChar: f
Encoding: 102 102 50
Width: 396
Flags: MW
HStem: 0.00976562 43.7705 383.9 49.8799 583.91 50.1396
VStem: 66.5 94.4502<66.585 85.3779> 236.38 100.15
LayerCount: 2
Fore
SplineSet
334.005859375 563.513671875 m 1
 334.081054688 563.124023438 l 2
 334.16015625 562.720703125 336.530273438 552.206054688 336.530273438 547.959960938 c 0
 336.530273438 520.313476562 314.151367188 497.9296875 286.5 497.9296875 c 0
 258.90234375 497.9296875 236.379882812 520.25390625 236.379882812 547.959960938 c 0
 236.379882812 555.0546875 238.208007812 561.939453125 240.369140625 567.384765625 c 1
 234.661132812 574.143554688 223.165039062 583.91015625 198.01953125 583.91015625 c 0
 168.321289062 583.91015625 160.950195312 553.770507812 160.950195312 494.599609375 c 2
 160.950195312 433.780273438 l 1
 228.830078125 433.780273438 l 1
 236.330078125 433.780273438 l 1
 243.830078125 433.780273438 l 1
 243.830078125 426.280273438 l 1
 243.830078125 418.780273438 l 1
 243.830078125 398.900390625 l 1
 243.830078125 391.400390625 l 1
 243.830078125 383.900390625 l 1
 236.330078125 383.900390625 l 1
 228.830078125 383.900390625 l 1
 160.950195312 383.900390625 l 1
 160.950195312 85.380859375 l 2
 160.950195312 47.5830078125 178.141601562 43.7802734375 192 43.7802734375 c 2
 207.41015625 43.7802734375 l 2
 219.859375 43.7802734375 229.900390625 33.5986328125 229.900390625 21.1201171875 c 2
 229.900390625 15.009765625 l 1
 229.900390625 7.509765625 l 1
 229.900390625 0.009765625 l 1
 222.400390625 0.009765625 l 1
 214.900390625 0.009765625 l 1
 12.4697265625 0.009765625 l 1
 4.9697265625 0.009765625 l 1
 -2.5302734375 0.009765625 l 1
 -2.5302734375 7.509765625 l 1
 -2.5302734375 15.009765625 l 1
 -2.5302734375 21.1201171875 l 2
 -2.5302734375 32.65234375 6.53515625 43.7802734375 19.9599609375 43.7802734375 c 2
 35.2802734375 43.7802734375 l 2
 48.58984375 43.7802734375 66.5 47.7919921875 66.5 85.3779296875 c 2
 66.4140625 383.900390625 l 1
 12.4697265625 383.900390625 l 1
 4.9697265625 383.900390625 l 1
 -2.5302734375 383.900390625 l 1
 -2.5302734375 391.400390625 l 1
 -2.5302734375 398.900390625 l 1
 -2.5302734375 418.780273438 l 1
 -2.5302734375 426.280273438 l 1
 -2.5302734375 433.780273438 l 1
 4.9697265625 433.780273438 l 1
 12.4697265625 433.780273438 l 1
 66.41015625 433.780273438 l 1
 66.41015625 494.599609375 l 2
 66.41015625 581.092773438 106.556640625 634.049804688 195.360351562 634.049804688 c 0
 278.52734375 634.049804688 323.780273438 596.81640625 333.888671875 563.892578125 c 2
 334.005859375 563.513671875 l 1
EndSplineSet
EndChar

StartChar: g
Encoding: 103 103 51
Width: 520
Flags: MW
HStem: -200 49.8496 0.166992 94.2031 109.45 49.9902 366.727 95.8682 387.26 49.7998
VStem: -1.73047 85.6562 23.3096 94.6309 277.03 94.5596 365.43 64.3008
LayerCount: 2
Fore
SplineSet
443.719726562 415.759765625 m 0xf2
 443.719726562 388.525390625 421.155273438 366.7265625 393.669921875 366.7265625 c 0
 375.315429688 366.7265625 360.268554688 376.9921875 351.918945312 389.08984375 c 1
 344.461914062 387.157226562 336.084960938 383.569335938 329.998046875 380.354492188 c 1
 347.423828125 362.541992188 371.58984375 328.334960938 371.58984375 274.81640625 c 0xf3
 371.58984375 144.919921875 287.813476562 109.450195312 200.76953125 109.450195312 c 0
 161.514648438 109.450195312 122.677734375 116.826171875 97.62890625 128.06640625 c 1
 79.1328125 111.96484375 73.3828125 101.840820312 73.203125 98.853515625 c 0
 74.1748046875 98.03125 83.603515625 94.3701171875 115.809570312 94.3701171875 c 2
 260.23046875 94.3701171875 l 2
 358.008789062 94.3701171875 429.73046875 46.9521484375 429.73046875 -45.26953125 c 0
 429.73046875 -168.33203125 300.770507812 -200 208.530273438 -200 c 0
 93.5205078125 -200 -1.73046875 -174.520507812 -1.73046875 -85.759765625 c 0xf480
 -1.73046875 -44.734375 11.8525390625 -15.072265625 40.3447265625 7.6884765625 c 1
 31.1103515625 11.5654296875 26.478515625 14.61328125 20.7509765625 19.583984375 c 0
 -24.90625 59.208984375 23.62109375 124.48046875 57.173828125 159.903320312 c 1
 44.1083984375 178.0625 23.3095703125 215.44921875 23.3095703125 272.642578125 c 0
 23.3095703125 378.579101562 101.34375 437.059570312 188.509765625 437.059570312 c 0xea
 216.09375 437.059570312 254.877929688 428.1015625 285.828125 412.384765625 c 1
 309.373046875 439.325195312 333.702148438 455.974609375 358.126953125 463.396484375 c 0
 384.704101562 472.212890625 406.227539062 464.745117188 411.405273438 462.594726562 c 0
 433.770507812 452.456054688 443.719726562 436.19140625 443.719726562 415.759765625 c 0xf2
105.255859375 0.1669921875 m 1
 92.2890625 -14.4208984375 86.546875 -29.3125 83.92578125 -47.4462890625 c 0
 80.8447265625 -68.7548828125 81.0771484375 -94.791015625 92.4228515625 -110.400390625 c 0
 110.359375 -135.07421875 119.036132812 -150.139648438 210.51953125 -150.150390625 c 0
 295.346679688 -150.150390625 365.4296875 -100.780273438 365.4296875 -49.669921875 c 0xe480
 365.4296875 -14.2177734375 332.794921875 -0.330078125 267.29296875 -0.330078125 c 2
 267.29296875 -0.330078125 157.280273438 0.1259765625 105.255859375 0.1669921875 c 1
191.950195312 387.259765625 m 0xeb
 146.868164062 387.259765625 117.940429688 346.947265625 117.940429688 281.959960938 c 0
 117.940429688 190.454101562 154.365234375 159.440429688 200.01953125 159.440429688 c 0
 265.608398438 159.440429688 277.040039062 215.581054688 277.030273438 270.012695312 c 0
 277.030273438 338.372070312 236.518554688 387.259765625 191.950195312 387.259765625 c 0xeb
EndSplineSet
EndChar

StartChar: h
Encoding: 104 104 52
Width: 585
Flags: MW
HStem: 0 43.7695 381.71 52.0498 575.9 43.7695
VStem: 69.2305 94.4863 370.35 94.54
LayerCount: 2
Fore
SplineSet
163.716796875 397.013671875 m 1
 206.559570312 428.44140625 261.588867188 433.759765625 286.096679688 433.759765625 c 0
 359.736328125 433.759765625 464.860351562 397.966796875 464.860351562 293.30859375 c 2
 464.889648438 85.76171875 l 2
 464.889648438 47.6123046875 482.081054688 43.76953125 495.900390625 43.76953125 c 2
 511.309570312 43.76953125 l 2
 523.755859375 43.76953125 533.799804688 33.5908203125 533.799804688 21.1103515625 c 2
 533.799804688 15 l 1
 533.799804688 7.5 l 1
 533.799804688 0 l 1
 526.299804688 0 l 1
 518.799804688 0 l 1
 316.360351562 0 l 1
 308.860351562 0 l 1
 301.360351562 0 l 1
 301.360351562 7.5 l 1
 301.360351562 15 l 1
 301.360351562 21.1103515625 l 2
 301.360351562 32.6416015625 310.42578125 43.76953125 323.849609375 43.76953125 c 2
 339.169921875 43.76953125 l 2
 352.431640625 43.76953125 370.349609375 47.798828125 370.349609375 85.3447265625 c 2
 370.299804688 283.634765625 l 2
 370.299804688 343.741210938 351.676757812 381.709960938 281.629882812 381.709960938 c 0
 219.26953125 381.709960938 163.709960938 338.513671875 163.709960938 291.557617188 c 2
 163.73046875 85.34765625 l 2
 163.73046875 47.5830078125 180.901367188 43.76953125 194.740234375 43.76953125 c 2
 210.150390625 43.76953125 l 2
 222.598632812 43.76953125 232.639648438 33.5888671875 232.639648438 21.1103515625 c 2
 232.639648438 15 l 1
 232.639648438 7.5 l 1
 232.639648438 0 l 1
 225.139648438 0 l 1
 217.639648438 0 l 1
 15.2099609375 0 l 1
 7.7099609375 0 l 1
 0.2099609375 0 l 1
 0.2099609375 7.5 l 1
 0.2099609375 15 l 1
 0.2099609375 21.1103515625 l 2
 0.2099609375 32.642578125 9.2763671875 43.76953125 22.7001953125 43.76953125 c 2
 38.01953125 43.76953125 l 2
 51.2177734375 43.76953125 69.2001953125 47.8720703125 69.2001953125 86.4384765625 c 2
 69.23046875 530.400390625 l 2
 69.23046875 571.5546875 51.0556640625 575.900390625 38.009765625 575.900390625 c 2
 22.6904296875 575.900390625 l 2
 9.2666015625 575.900390625 0.2001953125 587.02734375 0.2001953125 598.559570312 c 2
 0.2001953125 604.669921875 l 1
 0.2001953125 612.169921875 l 1
 0.2001953125 619.669921875 l 1
 7.7001953125 619.669921875 l 1
 15.2001953125 619.669921875 l 1
 148.700195312 619.669921875 l 1
 156.19921875 619.669921875 l 1
 163.69921875 619.669921875 l 1
 163.69921875 612.170898438 l 1
 163.700195312 604.670898438 l 1
 163.716796875 397.013671875 l 1
EndSplineSet
EndChar

StartChar: i
Encoding: 105 105 53
Width: 291
Flags: MW
HStem: 0 43.7695 377.26 43.7705 515.41 118.64
VStem: 58.6797 118.641 70.79 94.5195
LayerCount: 2
Fore
SplineSet
165.309570312 85.5849609375 m 2xe8
 165.309570312 47.6025390625 182.500976562 43.76953125 196.3203125 43.76953125 c 2
 211.73046875 43.76953125 l 2
 224.205078125 43.76953125 234.170898438 33.59765625 234.23046875 21.146484375 c 2
 234.23046875 15 l 1
 234.23046875 7.5 l 1
 234.23046875 0 l 1
 226.73046875 0 l 1
 219.23046875 0 l 1
 16.7998046875 0 l 1
 9.2998046875 0 l 1
 1.7998046875 0 l 1
 1.7998046875 7.5 l 1
 1.7998046875 15 l 1
 1.7998046875 21.1103515625 l 2
 1.7998046875 32.642578125 10.8662109375 43.76953125 24.2900390625 43.76953125 c 2
 39.6103515625 43.76953125 l 2
 52.875 43.76953125 70.7900390625 47.791015625 70.7900390625 85.302734375 c 2
 70.8203125 335.719726562 l 2
 70.8203125 373.1875 52.876953125 377.259765625 39.599609375 377.259765625 c 2
 24.2802734375 377.259765625 l 2
 10.8544921875 377.259765625 1.7900390625 388.389648438 1.7900390625 399.919921875 c 2
 1.7900390625 406.030273438 l 1
 1.7900390625 413.530273438 l 1
 1.7900390625 421.030273438 l 1
 9.2900390625 421.030273438 l 1
 16.7900390625 421.030273438 l 1
 150.26953125 421.030273438 l 1
 157.768554688 421.030273438 l 1
 165.267578125 421.030273438 l 1
 165.268554688 413.53125 l 1
 165.26953125 406.32421875 l 1
 165.309570312 85.5849609375 l 2xe8
177.3203125 574.73046875 m 0xf0
 177.3203125 541.970703125 150.763671875 515.41015625 118 515.41015625 c 0
 85.240234375 515.41015625 58.6796875 541.966796875 58.6796875 574.73046875 c 0
 58.6796875 607.489257812 85.236328125 634.049804688 118 634.049804688 c 0
 150.758789062 634.049804688 177.3203125 607.493164062 177.3203125 574.73046875 c 0xf0
EndSplineSet
EndChar

StartChar: j
Encoding: 106 106 54
Width: 327
Flags: MW
HStem: -200.01 50.4199 377.26 43.7705
VStem: -11.54 100.1 164.66 94.5801
LayerCount: 2
Fore
SplineSet
254.16015625 616.669921875 m 0
 277.32421875 593.504882812 277.327148438 555.946289062 254.16015625 532.779296875 c 0
 230.995117188 509.615234375 193.436523438 509.612304688 170.26953125 532.779296875 c 0
 147.10546875 555.943359375 147.102539062 593.501953125 170.26953125 616.669921875 c 0
 193.43359375 639.833984375 230.9921875 639.836914062 254.16015625 616.669921875 c 0
133.559570312 377.259765625 m 2
 118.240234375 377.259765625 l 2
 104.814453125 377.259765625 95.75 388.389648438 95.75 399.919921875 c 2
 95.75 406.030273438 l 1
 95.75 413.530273438 l 1
 95.75 421.030273438 l 1
 103.25 421.030273438 l 1
 110.75 421.030273438 l 1
 244.240234375 421.030273438 l 1
 251.740234375 421.030273438 l 1
 259.240234375 421.030273438 l 1
 259.240234375 413.530273438 l 1
 259.240234375 406.258789062 l 1
 259.240234375 -64.33984375 l 2
 259.240234375 -100.1796875 257.741210938 -140.154296875 224.03125 -167.924804688 c 0
 197.196289062 -190.043945312 165.025390625 -200.009765625 123.849609375 -200.009765625 c 0
 84.1123046875 -200.009765625 49.2216796875 -188.443359375 23.0888671875 -171.452148438 c 0
 8.1962890625 -161.76171875 -11.5400390625 -140.750976562 -11.5400390625 -113.870117188 c 0
 -11.5400390625 -86.2275390625 10.865234375 -63.8203125 38.509765625 -63.8203125 c 0
 66.1513671875 -63.8203125 88.5595703125 -86.2236328125 88.5595703125 -113.870117188 c 0
 88.5595703125 -121.772460938 86.2001953125 -129.658203125 84.9111328125 -132.958007812 c 0
 92.1689453125 -140.760742188 103.684570312 -149.58984375 124.309570312 -149.58984375 c 0
 155.623046875 -149.58984375 164.66015625 -115.26171875 164.66015625 -64.326171875 c 2
 164.780273438 334.850585938 l 2
 164.780273438 373.125 146.786132812 377.259765625 133.559570312 377.259765625 c 2
EndSplineSet
EndChar

StartChar: k
Encoding: 107 107 55
Width: 517
Flags: MW
HStem: 0.00976562 43.7705 377.27 43.7705 575.91 43.7695
VStem: 68 94.5273
LayerCount: 2
Fore
SplineSet
362.516601562 111.0859375 m 2
 376.8671875 95.861328125 437.98828125 43.76953125 451.08984375 43.76953125 c 2
 466.41015625 43.76953125 l 2
 478.682617188 43.76953125 489.008789062 33.7763671875 488.98046875 21.1103515625 c 2
 488.98046875 15 l 1
 488.98046875 7.5 l 1
 488.98046875 0 l 1
 481.48046875 0 l 1
 473.98046875 0 l 1
 271.549804688 0 l 1
 264.049804688 0 l 1
 256.549804688 0 l 1
 256.549804688 7.5 l 1
 256.549804688 15 l 1
 256.549804688 21.1103515625 l 2
 256.549804688 32.642578125 265.616210938 43.76953125 279.040039062 43.76953125 c 2
 286.790039062 43.76953125 l 2
 289.329101562 43.76953125 291.466796875 44.0087890625 292.732421875 44.171875 c 1
 289.897460938 51.22265625 282.846679688 62.40234375 270.712890625 76.5322265625 c 2
 162.520507812 201.380859375 l 1
 162.530273438 89.2802734375 l 2
 162.530273438 47.85546875 179.94140625 43.7802734375 193.540039062 43.7802734375 c 2
 208.950195312 43.7802734375 l 2
 221.415039062 43.7802734375 231.440429688 33.5849609375 231.440429688 21.1201171875 c 2
 231.440429688 15.009765625 l 1
 231.440429688 7.509765625 l 1
 231.440429688 0.009765625 l 1
 223.940429688 0.009765625 l 1
 216.440429688 0.009765625 l 1
 14.009765625 0.009765625 l 1
 6.509765625 0.009765625 l 1
 -0.990234375 0.009765625 l 1
 -0.990234375 7.509765625 l 1
 -0.990234375 15.009765625 l 1
 -0.990234375 21.1201171875 l 2
 -0.990234375 32.6669921875 8.091796875 43.7802734375 21.5 43.7802734375 c 2
 36.8203125 43.7802734375 l 2
 50.0185546875 43.7802734375 68 47.884765625 68 86.4462890625 c 2
 67.9501953125 530.400390625 l 2
 67.9501953125 571.653320312 49.779296875 575.91015625 36.8203125 575.91015625 c 2
 21.5 575.91015625 l 2
 8.07421875 575.91015625 -0.990234375 587.040039062 -0.990234375 598.5703125 c 2
 -0.990234375 604.6796875 l 1
 -0.990234375 612.1796875 l 1
 -0.990234375 619.6796875 l 1
 6.509765625 619.6796875 l 1
 14.009765625 619.6796875 l 1
 147.5 619.6796875 l 1
 154.999023438 619.6796875 l 1
 162.499023438 619.6796875 l 1
 162.499023438 612.180664062 l 1
 162.5 604.680664062 l 1
 162.52734375 249.45703125 l 1
 254.633789062 335.610351562 l 2
 265.34375 344.850585938 272.412109375 359.447265625 272.427734375 367.7890625 c 0
 272.4375 373.068359375 273.244140625 377.26953125 256.030273438 377.26953125 c 2
 229.610351562 377.26953125 l 2
 216.333984375 377.26953125 207.120117188 388.26171875 207.120117188 399.9296875 c 2
 207.120117188 406.040039062 l 1
 207.120117188 413.540039062 l 1
 207.120117188 421.040039062 l 1
 214.620117188 421.040039062 l 1
 222.120117188 421.040039062 l 1
 424.549804688 421.040039062 l 1
 432.049804688 421.040039062 l 1
 439.549804688 421.040039062 l 1
 439.549804688 413.540039062 l 1
 439.549804688 406.040039062 l 1
 439.549804688 399.9296875 l 2
 439.549804688 387.451171875 429.508789062 377.26953125 417.059570312 377.26953125 c 2
 401.650390625 377.26953125 l 2
 371.716796875 377.26953125 313.46484375 327.138671875 295.426757812 313.038085938 c 2
 229.587890625 254.912109375 l 1
 362.516601562 111.0859375 l 2
EndSplineSet
EndChar

StartChar: l
Encoding: 108 108 56
Width: 267
Flags: MW
HStem: 0.00976562 43.7705 575.91 43.7695
VStem: 67.7803 94.5293
LayerCount: 2
Fore
SplineSet
21.2802734375 43.7802734375 m 2
 36.599609375 43.7802734375 l 2
 49.7978515625 43.7802734375 67.7802734375 47.8837890625 67.7802734375 86.44921875 c 2
 67.8203125 530.400390625 l 2
 67.8203125 571.556640625 49.640625 575.91015625 36.599609375 575.91015625 c 2
 21.2802734375 575.91015625 l 2
 7.8544921875 575.91015625 -1.2099609375 587.040039062 -1.2099609375 598.5703125 c 2
 -1.2099609375 604.6796875 l 1
 -1.2099609375 612.1796875 l 1
 -1.2099609375 619.6796875 l 1
 6.2900390625 619.6796875 l 1
 13.7900390625 619.6796875 l 1
 147.26953125 619.6796875 l 1
 154.768554688 619.6796875 l 1
 162.268554688 619.6796875 l 1
 162.268554688 612.180664062 l 1
 162.26953125 604.680664062 l 1
 162.309570312 86.80078125 l 2
 162.309570312 47.6923828125 179.575195312 43.7802734375 193.3203125 43.7802734375 c 2
 208.73046875 43.7802734375 l 2
 221.197265625 43.7802734375 231.219726562 33.58203125 231.219726562 21.1201171875 c 2
 231.219726562 15.009765625 l 1
 231.219726562 7.509765625 l 1
 231.219726562 0.009765625 l 1
 223.719726562 0.009765625 l 1
 216.219726562 0.009765625 l 1
 13.7900390625 0.009765625 l 1
 6.2900390625 0.009765625 l 1
 -1.2099609375 0.009765625 l 1
 -1.2099609375 7.509765625 l 1
 -1.2099609375 15.009765625 l 1
 -1.2099609375 21.1201171875 l 2
 -1.2099609375 32.666015625 7.8701171875 43.7802734375 21.2802734375 43.7802734375 c 2
EndSplineSet
EndChar

StartChar: m
Encoding: 109 109 57
Width: 801
Flags: MW
HStem: 0 43.7695 377.25 43.7695 379.38 54.4004
VStem: 66.3477 94.5293 328.547 94.5205 589.438 94.5195
LayerCount: 2
Fore
SplineSet
297.357421875 43.7802734375 m 2xbc
 310.623046875 43.7802734375 328.546875 47.80859375 328.546875 85.33203125 c 2
 328.497070312 285.3125 l 2
 328.497070312 344.911132812 313.5078125 379.379882812 255.1875 379.379882812 c 0xbc
 209.845703125 379.379882812 160.84765625 341.049804688 160.84765625 297.315429688 c 2
 160.876953125 85.3232421875 l 2
 160.876953125 47.583984375 178.055664062 43.76953125 191.88671875 43.76953125 c 2
 207.296875 43.76953125 l 2
 219.760742188 43.76953125 229.787109375 33.5751953125 229.787109375 21.1103515625 c 2
 229.787109375 15 l 1
 229.787109375 7.5 l 1
 229.787109375 0 l 1
 222.287109375 0 l 1
 214.787109375 0 l 1
 12.357421875 0 l 1
 4.857421875 0 l 1
 -2.642578125 0 l 1
 -2.642578125 7.5 l 1
 -2.642578125 15 l 1
 -2.642578125 21.1103515625 l 2
 -2.642578125 32.658203125 6.4404296875 43.76953125 19.84765625 43.76953125 c 2
 35.1669921875 43.76953125 l 2
 48.431640625 43.76953125 66.34765625 47.7919921875 66.34765625 85.302734375 c 2
 66.376953125 335.709960938 l 2
 66.376953125 373.177734375 48.4345703125 377.25 35.1572265625 377.25 c 2
 19.8369140625 377.25 l 2
 6.41015625 377.25 -2.65234375 388.380859375 -2.65234375 399.91015625 c 2
 -2.65234375 406.01953125 l 1
 -2.65234375 413.51953125 l 1
 -2.65234375 421.01953125 l 1
 4.84765625 421.01953125 l 1
 12.34765625 421.01953125 l 1
 145.807617188 421.01953125 l 1
 153.305664062 421.01953125 l 1
 160.8046875 421.01953125 l 1xdc
 160.805664062 413.521484375 l 1
 160.807617188 406.022460938 l 1
 160.810546875 391.073242188 l 1
 195.08984375 418.967773438 232.665039062 433.780273438 270.926757812 433.780273438 c 0
 317.600585938 433.780273438 352.646484375 407.690429688 392.532226562 363.768554688 c 1
 427.404296875 411.375 489.12890625 433.780273438 534.787109375 433.780273438 c 0
 582.462890625 433.780273438 643.017578125 403.10546875 670.694335938 344.190429688 c 0
 678.326171875 327.951171875 683.907226562 299.1328125 683.907226562 278.17578125 c 2
 683.95703125 85.76171875 l 2
 683.95703125 47.6142578125 701.158203125 43.76953125 714.966796875 43.76953125 c 2
 730.376953125 43.76953125 l 2
 742.83984375 43.76953125 752.8671875 33.5771484375 752.8671875 21.1103515625 c 2
 752.8671875 15 l 1
 752.8671875 7.5 l 1
 752.8671875 0 l 1
 745.3671875 0 l 1
 737.8671875 0 l 1
 535.4375 0 l 1
 527.9375 0 l 1
 520.4375 0 l 1
 520.4375 7.5 l 1
 520.4375 15 l 1
 520.4375 21.1103515625 l 2
 520.4375 32.6572265625 529.518554688 43.76953125 542.926757812 43.76953125 c 2
 558.247070312 43.76953125 l 2
 571.522460938 43.76953125 589.4375 47.798828125 589.4375 85.3203125 c 2
 589.38671875 275.853515625 l 2
 589.38671875 356.322265625 560.681640625 379.389648438 527.237304688 379.389648438 c 0
 482.973632812 379.389648438 423.017578125 349.072265625 423.017578125 291.809570312 c 2
 423.067382812 85.333984375 l 2
 423.067382812 47.5947265625 440.24609375 43.7802734375 454.077148438 43.7802734375 c 2
 469.487304688 43.7802734375 l 2
 481.952148438 43.7802734375 491.977539062 33.5849609375 491.977539062 21.1201171875 c 2
 491.977539062 15.009765625 l 1
 491.977539062 7.509765625 l 1
 491.977539062 0.009765625 l 1
 484.477539062 0.009765625 l 1
 476.977539062 0.009765625 l 1
 274.546875 0.009765625 l 1
 267.046875 0.009765625 l 1
 259.546875 0.009765625 l 1
 259.546875 7.509765625 l 1
 259.546875 15.009765625 l 1
 259.546875 21.1201171875 l 2
 259.546875 32.65234375 268.612304688 43.7802734375 282.037109375 43.7802734375 c 2
 297.357421875 43.7802734375 l 2xbc
EndSplineSet
EndChar

StartChar: n
Encoding: 110 110 58
Width: 547
Flags: MW
HStem: 0.00976562 43.7705 377.26 43.7705 381.61 52.1592
VStem: 68.4102 94.4395 331.13 94.5605
LayerCount: 2
Fore
SplineSet
456.740234375 43.76953125 m 2xb8
 472.150390625 43.76953125 l 2
 484.622070312 43.76953125 494.620117188 33.5546875 494.620117188 21.1103515625 c 2
 494.620117188 15 l 1
 494.620117188 7.5 l 1
 494.620117188 0 l 1
 487.120117188 0 l 1
 479.620117188 0 l 1
 277.200195312 0 l 1
 269.700195312 0 l 1
 262.200195312 0 l 1
 262.200195312 7.5 l 1
 262.200195312 15 l 1
 262.200195312 21.1103515625 l 2
 262.200195312 32.642578125 271.266601562 43.76953125 284.690429688 43.76953125 c 2
 300 43.76953125 l 2
 313.19921875 43.76953125 331.129882812 47.767578125 331.129882812 85.3466796875 c 2
 331.129882812 288.450195312 l 2
 331.129882812 348.828125 304.919921875 381.610351562 246.990234375 381.610351562 c 0xb8
 202.759765625 381.610351562 162.849609375 345.91015625 162.849609375 300.483398438 c 2
 162.849609375 85.357421875 l 2
 162.849609375 47.650390625 180.06640625 43.7802734375 193.900390625 43.7802734375 c 2
 209.309570312 43.7802734375 l 2
 221.758789062 43.7802734375 231.799804688 33.5986328125 231.799804688 21.1201171875 c 2
 231.799804688 15.009765625 l 1
 231.799804688 7.509765625 l 1
 231.799804688 0.009765625 l 1
 224.299804688 0.009765625 l 1
 216.799804688 0.009765625 l 1
 14.3798828125 0.009765625 l 1
 6.8798828125 0.009765625 l 1
 -0.6201171875 0.009765625 l 1
 -0.6201171875 7.509765625 l 1
 -0.6201171875 15.009765625 l 1
 -0.6201171875 21.1201171875 l 2
 -0.6201171875 32.650390625 8.4443359375 43.7802734375 21.8701171875 43.7802734375 c 2
 37.1904296875 43.7802734375 l 2
 50.474609375 43.7802734375 68.41015625 47.8623046875 68.41015625 85.3115234375 c 2
 68.41015625 335.728515625 l 2
 68.41015625 373.194335938 50.470703125 377.259765625 37.1904296875 377.259765625 c 2
 21.8701171875 377.259765625 l 2
 8.4443359375 377.259765625 -0.6201171875 388.389648438 -0.6201171875 399.919921875 c 2
 -0.6201171875 406.030273438 l 1
 -0.6201171875 413.530273438 l 1
 -0.6201171875 421.030273438 l 1
 6.8798828125 421.030273438 l 1
 14.3798828125 421.030273438 l 1
 147.870117188 421.030273438 l 1
 155.370117188 421.030273438 l 1
 162.870117188 421.030273438 l 1xd8
 162.870117188 413.530273438 l 1
 162.870117188 406.030273438 l 1
 162.870117188 394.918945312 l 1
 194.72265625 421.762695312 225.241210938 433.76953125 262.759765625 433.76953125 c 0
 311.938476562 433.76953125 425.690429688 406.606445312 425.690429688 272.376953125 c 2
 425.690429688 85.76171875 l 2
 425.690429688 47.6025390625 442.911132812 43.76953125 456.740234375 43.76953125 c 2xb8
EndSplineSet
EndChar

StartChar: o
Encoding: 111 111 59
Width: 499
Flags: MW
HStem: -16 49.8496 390.18 43.6006
VStem: 0.150391 94.3994 309.96 93.9004
LayerCount: 2
Fore
SplineSet
197.23046875 -16 m 0
 56.1513671875 -16 0.150390625 111.875 0.150390625 216.924804688 c 0
 0.150390625 308.625 56.7265625 433.780273438 202.26953125 433.780273438 c 0
 327.874023438 433.780273438 403.848632812 343.075195312 403.860351562 216.924804688 c 0
 403.860351562 123.774414062 357.923828125 -16 197.23046875 -16 c 0
309.959960938 215.400390625 m 0
 309.959960938 315.09375 266.993164062 390.1796875 200.790039062 390.1796875 c 0
 132.7890625 390.1796875 94.5498046875 303.866210938 94.5498046875 215.400390625 c 0
 94.5498046875 119.5859375 139.34765625 33.849609375 208.169921875 33.849609375 c 0
 255.260742188 33.849609375 309.959960938 118.5390625 309.959960938 215.400390625 c 0
EndSplineSet
EndChar

StartChar: p
Encoding: 112 112 60
Width: 533
Flags: MW
HStem: -200 43.7695 -16.0098 62.8701 367.1 66.6807 377.25 43.7695
VStem: 68.1904 94.5098 363.75 95.0596
LayerCount: 2
Fore
SplineSet
162.6796875 402.668945312 m 1xdc
 194.23046875 426.095703125 227.590820312 433.780273438 259.709960938 433.780273438 c 0xec
 360.3125 433.780273438 458.809570312 367.631835938 458.809570312 194.786132812 c 0
 458.809570312 57.986328125 351.6953125 -16.009765625 256.740234375 -16.009765625 c 0
 217.237304688 -16.009765625 186.1640625 -6.1640625 162.711914062 11.130859375 c 1
 162.719726562 -110.73046875 l 2
 162.719726562 -152.154296875 180.130859375 -156.23046875 193.73046875 -156.23046875 c 2
 209.139648438 -156.23046875 l 2
 221.603515625 -156.23046875 231.629882812 -166.424804688 231.629882812 -178.889648438 c 2
 231.629882812 -185 l 1
 231.629882812 -192.5 l 1
 231.629882812 -200 l 1
 224.129882812 -200 l 1
 216.629882812 -200 l 1
 14.2001953125 -200 l 1
 6.7001953125 -200 l 1
 -0.7998046875 -200 l 1
 -0.7998046875 -192.5 l 1
 -0.7998046875 -185 l 1
 -0.7998046875 -178.889648438 l 2
 -0.7998046875 -167.357421875 8.2666015625 -156.23046875 21.6904296875 -156.23046875 c 2
 37.009765625 -156.23046875 l 2
 50.0390625 -156.23046875 68.1904296875 -151.932617188 68.1904296875 -110.729492188 c 2
 68.2197265625 334.565429688 l 2
 68.2197265625 373.096679688 50.2099609375 377.25 37 377.25 c 2
 21.6796875 377.25 l 2
 8.2529296875 377.25 -0.8095703125 388.380859375 -0.8095703125 399.91015625 c 2
 -0.8095703125 406.01953125 l 1
 -0.8095703125 413.51953125 l 1
 -0.8095703125 421.01953125 l 1
 6.6904296875 421.01953125 l 1
 14.1904296875 421.01953125 l 1
 147.6796875 421.01953125 l 1
 155.1796875 421.01953125 l 1
 162.6796875 421.01953125 l 1
 162.6796875 413.51953125 l 1
 162.6796875 406.01953125 l 1
 162.6796875 402.668945312 l 1xdc
162.700195312 81.9345703125 m 1
 184.607421875 57.67578125 212.249023438 46.8603515625 255.280273438 46.8603515625 c 0
 301.651367188 46.8603515625 363.75 62.6884765625 363.75 194.934570312 c 0
 363.75 282.053710938 339.495117188 367.091796875 258.860351562 367.099609375 c 0
 204.102539062 367.099609375 186.060546875 356.754882812 162.6796875 335.173828125 c 1
 162.700195312 81.9345703125 l 1
EndSplineSet
EndChar

StartChar: q
Encoding: 113 113 61
Width: 504
Flags: MW
HStem: -200 43.7695 -16.0098 62.8594 367.09 66.6904 377.25 43.7695
VStem: 0.19043 95.0596 296.3 94.5205
LayerCount: 2
Fore
SplineSet
296.280273438 -110.729492188 m 2xdc
 296.288085938 11.07421875 l 1
 270.7265625 -7.8486328125 241.29296875 -16.009765625 202.259765625 -16.009765625 c 0
 107.303710938 -16.009765625 0.1904296875 57.9833984375 0.1904296875 194.786132812 c 0
 0.1904296875 367.627929688 98.671875 433.780273438 199.290039062 433.780273438 c 0xec
 231.680664062 433.780273438 267.3515625 424.061523438 296.3203125 402.615234375 c 1
 296.3203125 406.01953125 l 1
 296.3203125 413.51953125 l 1
 296.3203125 421.01953125 l 1
 303.8203125 421.01953125 l 1
 311.3203125 421.01953125 l 1
 444.8203125 421.01953125 l 1
 452.3203125 421.01953125 l 1
 459.8203125 421.01953125 l 1
 459.8203125 413.51953125 l 1
 459.8203125 406.01953125 l 1
 459.8203125 399.91015625 l 2
 459.8203125 388.377929688 450.754882812 377.25 437.330078125 377.25 c 2
 422.009765625 377.25 l 2
 408.793945312 377.25 390.790039062 373.086914062 390.790039062 334.56640625 c 2
 390.8203125 -110.73046875 l 2
 390.8203125 -151.939453125 408.977539062 -156.23046875 422 -156.23046875 c 2
 437.309570312 -156.23046875 l 2
 450.733398438 -156.23046875 459.799804688 -167.357421875 459.799804688 -178.889648438 c 2
 459.799804688 -185 l 1
 459.799804688 -192.5 l 1
 459.799804688 -200 l 1
 452.299804688 -200 l 1
 444.799804688 -200 l 1
 242.370117188 -200 l 1
 234.870117188 -200 l 1
 227.370117188 -200 l 1
 227.370117188 -192.5 l 1
 227.370117188 -185 l 1
 227.370117188 -178.889648438 l 2
 227.370117188 -166.409179688 237.4140625 -156.23046875 249.860351562 -156.23046875 c 2
 265.26953125 -156.23046875 l 2
 278.879882812 -156.23046875 296.280273438 -152.157226562 296.280273438 -110.729492188 c 2xdc
296.299804688 81.9296875 m 1
 296.3203125 335.165039062 l 1
 271.318359375 358.24609375 254.430664062 367.08984375 200.139648438 367.08984375 c 0
 119.5 367.08984375 95.25 282.055664062 95.25 194.924804688 c 0
 95.25 62.67578125 157.3515625 46.849609375 203.719726562 46.849609375 c 0
 247.32421875 46.849609375 275.944335938 59.412109375 296.299804688 81.9296875 c 1
EndSplineSet
EndChar

StartChar: r
Encoding: 114 114 62
Width: 433
Flags: MW
HStem: 0.00976562 43.7705 361.98 71.7998 377.26 43.7705
VStem: 68.8604 94.54
LayerCount: 2
Fore
SplineSet
360.110351562 379.959960938 m 1xd0
 360.110351562 352.317382812 337.705078125 329.91015625 310.059570312 329.91015625 c 0
 287.75 329.91015625 270.745117188 344.5546875 263.57421875 361.98046875 c 1xd0
 231.81640625 361.698242188 193.600585938 330.59375 163.379882812 258.568359375 c 1
 163.400390625 84.732421875 l 2
 163.400390625 47.5517578125 180.534179688 43.7802734375 194.41015625 43.7802734375 c 2
 209.8203125 43.7802734375 l 2
 222.271484375 43.7802734375 232.309570312 33.5966796875 232.309570312 21.1201171875 c 2
 232.309570312 15.009765625 l 1
 232.309570312 7.509765625 l 1
 232.309570312 0.009765625 l 1
 224.809570312 0.009765625 l 1
 217.309570312 0.009765625 l 1
 14.8701171875 0.009765625 l 1
 7.3701171875 0.009765625 l 1
 -0.1298828125 0.009765625 l 1
 -0.1298828125 7.509765625 l 1
 -0.1298828125 15.009765625 l 1
 -0.1298828125 21.1201171875 l 2
 -0.1298828125 32.650390625 8.9345703125 43.7802734375 22.3603515625 43.7802734375 c 2
 37.6796875 43.7802734375 l 2
 50.9443359375 43.7802734375 68.8603515625 47.802734375 68.8603515625 85.3134765625 c 2
 68.8896484375 335.719726562 l 2
 68.8896484375 373.1875 50.947265625 377.259765625 37.669921875 377.259765625 c 2
 22.349609375 377.259765625 l 2
 8.939453125 377.259765625 -0.1396484375 388.375976562 -0.1396484375 399.919921875 c 2
 -0.1396484375 406.030273438 l 1
 -0.1396484375 413.530273438 l 1
 -0.1396484375 421.030273438 l 1
 7.3603515625 421.030273438 l 1
 14.8603515625 421.030273438 l 1
 148.349609375 421.030273438 l 1
 155.848632812 421.030273438 l 1
 163.34765625 421.030273438 l 1xb0
 163.348632812 413.53125 l 1
 163.349609375 406.032226562 l 1
 163.354492188 356.400390625 l 1
 191.860351562 397.166992188 234.5390625 433.780273438 296.870117188 433.780273438 c 0
 307.5703125 433.780273438 329.491210938 433.508789062 343 420 c 0
 363 400 360.110351562 379.959960938 360.110351562 379.959960938 c 1xd0
EndSplineSet
EndChar

StartChar: s
Encoding: 115 115 63
Width: 357
Flags: MW
HStem: -15.9902 49.8506 383.93 49.8506
VStem: 15.3496 76.2207 236.64 72.8408 238.584 48.1309
LayerCount: 2
Fore
SplineSet
263.373046875 291.786132812 m 0xe8
 250.708007812 290.34765625 239.142578125 299.865234375 238.583984375 313.05078125 c 0xe8
 238.422851562 316.88671875 238.04296875 325.2734375 237.873046875 326.176757812 c 0
 230.083984375 367.2265625 197.004882812 383.920898438 154.98046875 383.9296875 c 0
 115.243164062 383.9296875 91.5703125 361.954101562 91.5703125 328.248046875 c 0
 91.5703125 294.624023438 103.038085938 275.919921875 169.137695312 257.53515625 c 0
 274.166015625 228.329101562 309.48046875 186.923828125 309.48046875 107.3203125 c 0
 309.48046875 23.8896484375 235.19921875 -15.990234375 161.610351562 -15.990234375 c 0
 91.9365234375 -15.990234375 41.1962890625 23.7109375 12.2568359375 73.8857421875 c 2
 11.662109375 74.916015625 l 1
 11.0673828125 75.947265625 l 1
 10.8212890625 77.111328125 l 1
 10.5751953125 78.275390625 l 2
 1.90625 119.254882812 0.513671875 153.625976562 0.494140625 154.096679688 c 2
 0.185546875 161.37890625 l 1
 -0.123046875 168.662109375 l 1
 7.1484375 169.177734375 l 1
 14.4189453125 169.693359375 l 1
 14.4189453125 169.693359375 28.7373046875 170.708984375 30.7333984375 170.87890625 c 0
 42.0966796875 171.818359375 54.1484375 163.844726562 55.1875 150.2421875 c 0
 55.4775390625 146.409179688 56.0302734375 138.543945312 56.3896484375 135.809570312 c 0
 62.4970703125 89.7060546875 108.553710938 33.8603515625 165.030273438 33.8603515625 c 0
 197.998046875 33.8603515625 236.639648438 58.4697265625 236.639648438 106.461914062 c 0xf0
 236.639648438 145.44921875 214.943359375 156.791015625 140.825195312 179.109375 c 0
 45.380859375 207.840820312 15.349609375 261.787109375 15.349609375 327.603515625 c 0
 15.349609375 388.541992188 79.98046875 433.780273438 158.25 433.780273438 c 0
 214.176757812 433.780273438 240.448242188 419.793945312 271.888671875 392.861328125 c 2
 273.243164062 391.700195312 l 1
 274.598632812 390.540039062 l 1
 275.286132812 388.892578125 l 1
 275.97265625 387.24609375 l 2
 288.377929688 357.517578125 286.857421875 308.181640625 286.848632812 307.709960938 c 2
 286.78125 301.146484375 l 1
 286.71484375 294.556640625 l 1
 280.170898438 293.776367188 l 1
 273.626953125 292.995117188 l 2
 273.614257812 292.994140625 265.6953125 292.047851562 263.373046875 291.786132812 c 0xe8
EndSplineSet
EndChar

StartChar: t
Encoding: 116 116 64
Width: 336
Flags: MW
HStem: -15.9297 56.6992 383.99 49.8799
VStem: 75.5898 94.71 126.56 43.7705
LayerCount: 2
Fore
SplineSet
255.169921875 383.990234375 m 1xd0
 170.328125 383.990234375 l 1
 170.299804688 138.377929688 l 2
 170.299804688 64.140625 189.54296875 40.76953125 206.16015625 40.76953125 c 0
 240.461914062 40.76953125 247.97265625 54.58203125 254.037109375 80.5595703125 c 0
 254.65234375 83.177734375 254.91796875 84.7998046875 255.359375 87.115234375 c 0
 257.413085938 99.0771484375 268.00390625 107.969726562 280.26953125 107.969726562 c 2
 296.219726562 107.969726562 l 1
 303.719726562 107.969726562 l 1
 311.219726562 107.969726562 l 1
 311.219726562 100.469726562 l 1
 311.219726562 92.9697265625 l 2
 311.219726562 38.6630859375 281.67578125 -15.9296875 207.83984375 -15.9296875 c 0
 159.947265625 -15.9296875 125.715820312 -3.5205078125 99.14453125 32.5009765625 c 0
 70.8525390625 70.8515625 75.58984375 118.173828125 75.58984375 182.076171875 c 2xe0
 75.7021484375 383.98046875 l 1
 15.8095703125 383.98046875 l 1
 8.3095703125 383.98046875 l 1
 0.8095703125 383.98046875 l 1
 0.8095703125 391.48046875 l 1
 0.8095703125 398.98046875 l 1
 0.8095703125 405.08984375 l 2
 0.8095703125 417.5546875 10.8349609375 427.75 23.2998046875 427.75 c 2
 38.7099609375 427.75 l 2
 81.9423828125 427.75 126.559570312 448.752929688 126.559570312 500.540039062 c 2
 126.559570312 515.860351562 l 2
 126.559570312 529.287109375 137.690429688 538.349609375 149.219726562 538.349609375 c 2
 155.330078125 538.349609375 l 1
 162.830078125 538.349609375 l 1
 170.330078125 538.349609375 l 1
 170.330078125 530.849609375 l 1
 170.330078125 523.349609375 l 1
 170.330078125 433.870117188 l 1
 255.169921875 433.870117188 l 1
 262.669921875 433.870117188 l 1
 270.169921875 433.870117188 l 1
 270.169921875 426.370117188 l 1
 270.169921875 418.870117188 l 1
 270.169921875 398.990234375 l 1
 270.169921875 391.490234375 l 1
 270.169921875 383.990234375 l 1
 262.669921875 383.990234375 l 1
 255.169921875 383.990234375 l 1xd0
EndSplineSet
EndChar

StartChar: u
Encoding: 117 117 65
Width: 551
Flags: MW
HStem: -12.7197 52.1699 0.0195312 43.7705 377.28 43.7695
VStem: 69.3203 94.5498 332.14 94.46
LayerCount: 2
Fore
SplineSet
457.8203125 43.7900390625 m 2x78
 473.139648438 43.7900390625 l 2
 486.565429688 43.7900390625 495.629882812 32.66015625 495.629882812 21.1298828125 c 2
 495.629882812 15.01953125 l 1
 495.629882812 7.51953125 l 1
 495.629882812 0.01953125 l 1
 488.129882812 0.01953125 l 1
 480.629882812 0.01953125 l 1
 347.139648438 0.01953125 l 1
 339.639648438 0.01953125 l 1
 332.139648438 0.01953125 l 1x78
 332.139648438 7.51953125 l 1
 332.139648438 15.01953125 l 1
 332.139648438 26.1220703125 l 1
 300.286132812 -0.7197265625 269.766601562 -12.7197265625 232.25 -12.7197265625 c 0
 183.072265625 -12.7197265625 69.3203125 14.43359375 69.3203125 148.672851562 c 2
 69.3203125 335.288085938 l 2
 69.3203125 373.447265625 52.0986328125 377.280273438 38.26953125 377.280273438 c 2
 22.8701171875 377.280273438 l 2
 10.40625 377.280273438 0.3798828125 387.474609375 0.3798828125 399.940429688 c 2
 0.3798828125 406.049804688 l 1
 0.3798828125 413.549804688 l 1
 0.3798828125 421.049804688 l 1
 7.8798828125 421.049804688 l 1
 15.3798828125 421.049804688 l 1
 148.870117188 421.049804688 l 1
 156.370117188 421.049804688 l 1
 163.870117188 421.049804688 l 1
 163.870117188 413.549804688 l 1
 163.870117188 406.338867188 l 1
 163.870117188 133.211914062 l 2
 163.870117188 72.435546875 190.09375 39.4501953125 248 39.4501953125 c 0xb8
 292.240234375 39.4501953125 332.139648438 75.1484375 332.139648438 120.577148438 c 2
 332.139648438 335.703125 l 2
 332.139648438 373.408203125 314.9140625 377.280273438 301.08984375 377.280273438 c 2
 285.690429688 377.280273438 l 2
 273.225585938 377.280273438 263.200195312 387.475585938 263.200195312 399.940429688 c 2
 263.200195312 406.049804688 l 1
 263.200195312 413.549804688 l 1
 263.200195312 421.049804688 l 1
 270.700195312 421.049804688 l 1
 278.200195312 421.049804688 l 1
 411.599609375 421.049804688 l 1
 419.099609375 421.049804688 l 1
 426.599609375 421.049804688 l 1
 426.599609375 413.549804688 l 1
 426.599609375 406.341796875 l 1
 426.599609375 85.60546875 l 2
 426.599609375 47.8779296875 444.55078125 43.7900390625 457.8203125 43.7900390625 c 2x78
EndSplineSet
EndChar

StartChar: v
Encoding: 118 118 66
Width: 538
Flags: MW
HStem: 377.23 43.7695
LayerCount: 2
Fore
SplineSet
227.333984375 -16.0400390625 m 1
 225.47265625 -11.26171875 l 1
 223.62890625 -6.5263671875 l 1
 83.8056640625 326.661132812 l 2
 74.9208984375 347.204101562 57.8984375 377.23046875 37.51953125 377.23046875 c 2
 22.2001953125 377.23046875 l 2
 9.9208984375 377.23046875 -0.3701171875 387.20703125 -0.3701171875 399.889648438 c 2
 -0.3701171875 406 l 1
 -0.3701171875 413.5 l 1
 -0.3701171875 421 l 1
 7.1298828125 421 l 1
 14.6298828125 421 l 1
 217.059570312 421 l 1
 224.559570312 421 l 1
 232.059570312 421 l 1
 232.059570312 413.5 l 1
 232.059570312 406 l 1
 232.059570312 399.889648438 l 2
 232.059570312 388.358398438 222.994140625 377.23046875 209.5703125 377.23046875 c 2
 201.8203125 377.23046875 l 2
 196.383789062 377.23046875 192.420898438 376.393554688 189.592773438 375.279296875 c 0
 178.965820312 371.09375 174.266601562 355.075195312 183.845703125 330.870117188 c 2
 283.015625 83.46484375 l 1
 356.678710938 331.989257812 l 2
 358.598632812 338.407226562 359.618164062 344.69921875 359.666992188 350.204101562 c 0
 359.809570312 366.66015625 354.678710938 377.23046875 328.849609375 377.23046875 c 2
 302.4296875 377.23046875 l 2
 289.155273438 377.23046875 279.940429688 388.220703125 279.940429688 399.889648438 c 2
 279.940429688 406 l 1
 279.940429688 413.5 l 1
 279.940429688 421 l 1
 287.440429688 421 l 1
 294.940429688 421 l 1
 497.370117188 421 l 1
 504.870117188 421 l 1
 512.370117188 421 l 1
 512.370117188 413.5 l 1
 512.370117188 406 l 1
 512.370117188 399.889648438 l 2
 512.370117188 387.422851562 502.342773438 377.23046875 489.879882812 377.23046875 c 2
 474.469726562 377.23046875 l 2
 424.169921875 377.23046875 413.038085938 348.671875 407.205078125 331.259765625 c 2
 300.418945312 -5.3115234375 l 1
 298.845703125 -10.658203125 l 1
 297.260742188 -16.0400390625 l 1
 291.650390625 -16.0400390625 l 1
 286.040039062 -16.0400390625 l 1
 237.58984375 -16.0400390625 l 1
 232.461914062 -16.0400390625 l 1
 227.333984375 -16.0400390625 l 1
EndSplineSet
EndChar

StartChar: w
Encoding: 119 119 67
Width: 785
Flags: MW
HStem: 377.27 43.7705
LayerCount: 2
Fore
SplineSet
189.828125 375.483398438 m 0
 178.759765625 371.39453125 173.944335938 355.377929688 183.618164062 330.852539062 c 2
 282.788085938 83.4697265625 l 1
 356.607421875 332.749023438 l 1
 362.735351562 353.44140625 l 1
 368.862304688 374.1328125 l 1
 376.888671875 354.100585938 l 1
 384.9140625 334.069335938 l 1
 485.31640625 83.4716796875 l 1
 558.962890625 332.01953125 l 2
 560.880859375 338.416992188 561.897460938 344.696289062 561.942382812 350.1953125 c 0
 562.075195312 366.640625 556.895507812 377.259765625 531.0703125 377.259765625 c 2
 504.650390625 377.259765625 l 2
 491.374023438 377.259765625 482.16015625 388.251953125 482.16015625 399.919921875 c 2
 482.16015625 406.030273438 l 1
 482.16015625 413.530273438 l 1
 482.16015625 421.030273438 l 1
 489.66015625 421.030273438 l 1
 497.16015625 421.030273438 l 1
 699.58984375 421.030273438 l 1
 707.08984375 421.030273438 l 1
 714.58984375 421.030273438 l 1
 714.58984375 413.530273438 l 1
 714.58984375 406.030273438 l 1
 714.58984375 399.919921875 l 2
 714.58984375 387.45703125 704.56640625 377.259765625 692.099609375 377.259765625 c 2
 676.690429688 377.259765625 l 2
 626.440429688 377.259765625 615.284179688 348.712890625 609.43359375 331.28515625 c 2
 502.678710938 -5.2802734375 l 1
 501.10546875 -10.626953125 l 1
 499.521484375 -16.009765625 l 1
 493.911132812 -16.009765625 l 1
 488.299804688 -16.009765625 l 1
 439.83984375 -16.009765625 l 1
 434.711914062 -16.009765625 l 1
 429.583007812 -16.009765625 l 1
 427.72265625 -11.2314453125 l 1
 425.862304688 -6.4521484375 l 1
 354.1171875 177.809570312 l 1
 300.243164062 -5.30078125 l 1
 298.676757812 -10.626953125 l 1
 297.092773438 -16.009765625 l 1
 291.481445312 -16.009765625 l 1
 285.870117188 -16.009765625 l 1
 237.41015625 -16.009765625 l 1
 232.282226562 -16.009765625 l 1
 227.154296875 -16.009765625 l 1
 225.29296875 -11.2314453125 l 1
 223.44921875 -6.49609375 l 1
 83.63671875 326.65234375 l 2
 74.73046875 347.223632812 57.7001953125 377.26953125 37.2998046875 377.26953125 c 2
 21.98046875 377.26953125 l 2
 9.6982421875 377.26953125 -0.58984375 387.25 -0.58984375 399.9296875 c 2
 -0.58984375 406.040039062 l 1
 -0.58984375 413.540039062 l 1
 -0.58984375 421.040039062 l 1
 6.91015625 421.040039062 l 1
 14.41015625 421.040039062 l 1
 216.849609375 421.040039062 l 1
 224.349609375 421.040039062 l 1
 231.849609375 421.040039062 l 1
 231.849609375 413.540039062 l 1
 231.849609375 406.040039062 l 1
 231.849609375 399.9296875 l 2
 231.849609375 388.400390625 222.787109375 377.26953125 209.360351562 377.26953125 c 2
 201.610351562 377.26953125 l 2
 196.452148438 377.26953125 192.6171875 376.512695312 189.828125 375.483398438 c 0
EndSplineSet
EndChar

StartChar: x
Encoding: 120 120 68
Width: 606
Flags: MW
HStem: 0 43.7695 377.27 43.7705
LayerCount: 2
Fore
SplineSet
431.071289062 105.984375 m 2
 444.525390625 88.7421875 484.026367188 43.76953125 513.919921875 43.76953125 c 2
 529.240234375 43.76953125 l 2
 541.533203125 43.76953125 551.809570312 33.775390625 551.809570312 21.099609375 c 2
 551.809570312 14.990234375 l 1
 551.809570312 7.490234375 l 1
 551.809570312 -0.009765625 l 1
 544.309570312 -0.009765625 l 1
 536.809570312 -0.009765625 l 1
 334.379882812 -0.009765625 l 1
 326.879882812 -0.009765625 l 1
 319.379882812 -0.009765625 l 1
 319.379882812 7.490234375 l 1
 319.379882812 14.990234375 l 1
 319.379882812 21.099609375 l 2
 319.379882812 32.6318359375 328.4453125 43.759765625 341.870117188 43.759765625 c 2
 349.620117188 43.759765625 l 2
 352.73828125 43.759765625 355.993164062 44.2353515625 356.458984375 44.3232421875 c 1
 354.625976562 50.54296875 347.638671875 63.1005859375 336.069335938 79.2919921875 c 2
 258.004882812 187.655273438 l 1
 176.344726562 85.5693359375 l 2
 166.708984375 73.546875 159.291992188 58.3798828125 159.178710938 51.578125 c 0
 159.130859375 48.6904296875 156.3203125 43.76953125 179.700195312 43.76953125 c 2
 206.120117188 43.76953125 l 2
 219.392578125 43.76953125 228.610351562 32.7822265625 228.610351562 21.1103515625 c 2
 228.610351562 15 l 1
 228.610351562 7.5 l 1
 228.610351562 0 l 1
 221.110351562 0 l 1
 213.610351562 0 l 1
 11.1796875 0 l 1
 3.6796875 0 l 1
 -3.8203125 0 l 1
 -3.8203125 7.5 l 1
 -3.8203125 15 l 1
 -3.8203125 21.1103515625 l 2
 -3.8203125 33.5908203125 6.2236328125 43.76953125 18.669921875 43.76953125 c 2
 34.080078125 43.76953125 l 2
 75.7021484375 43.76953125 116.5546875 85.9111328125 130.317382812 101.426757812 c 2
 226.274414062 212.940429688 l 1
 147.859375 315.192382812 l 2
 134.508789062 332.223632812 95.001953125 377.26953125 65.0595703125 377.26953125 c 2
 49.740234375 377.26953125 l 2
 37.4580078125 377.26953125 27.169921875 387.25 27.169921875 399.9296875 c 2
 27.169921875 406.040039062 l 1
 27.169921875 413.540039062 l 1
 27.169921875 421.040039062 l 1
 34.669921875 421.040039062 l 1
 42.169921875 421.040039062 l 1
 244.610351562 421.040039062 l 1
 252.110351562 421.040039062 l 1
 259.610351562 421.040039062 l 1
 259.610351562 413.540039062 l 1
 259.610351562 406.040039062 l 1
 259.610351562 399.9296875 l 2
 259.610351562 388.397460938 250.544921875 377.26953125 237.120117188 377.26953125 c 2
 229.370117188 377.26953125 l 2
 226.267578125 377.26953125 222.965820312 376.787109375 222.563476562 376.711914062 c 1
 224.403320312 370.504882812 231.409179688 357.923828125 242.947265625 341.700195312 c 2
 291.83984375 273.829101562 l 1
 341.153320312 335.43359375 l 2
 350.752929688 347.467773438 358.154296875 362.639648438 358.26171875 369.448242188 c 0
 358.307617188 372.34765625 361.10546875 377.26953125 337.73046875 377.26953125 c 2
 311.309570312 377.26953125 l 2
 298.032226562 377.26953125 288.8203125 388.262695312 288.8203125 399.9296875 c 2
 288.8203125 406.040039062 l 1
 288.8203125 413.540039062 l 1
 288.8203125 421.040039062 l 1
 296.3203125 421.040039062 l 1
 303.8203125 421.040039062 l 1
 506.25 421.040039062 l 1
 513.75 421.040039062 l 1
 521.25 421.040039062 l 1
 521.25 413.540039062 l 1
 521.25 406.040039062 l 1
 521.25 399.9296875 l 2
 521.25 387.451171875 511.208984375 377.26953125 498.759765625 377.26953125 c 2
 483.349609375 377.26953125 l 2
 441.7265625 377.26953125 400.876953125 335.129882812 387.111328125 319.612304688 c 2
 322.1171875 244.102539062 l 1
 431.071289062 105.984375 l 2
EndSplineSet
EndChar

StartChar: y
Encoding: 121 121 69
Width: 613
Flags: MW
HStem: -198.318 108.648 377.27 43.7705
LayerCount: 2
Fore
SplineSet
266.5625 -45.76171875 m 0
 256.53515625 -70.9833984375 240.666992188 -115.59375 220.965820312 -143.857421875 c 0
 191.509765625 -186.1171875 119.247070312 -206.373046875 64.8828125 -198.318359375 c 0
 33.7333984375 -193.708007812 4.974609375 -171.424804688 4.9599609375 -139.719726562 c 0
 4.9599609375 -112.078125 27.3642578125 -89.669921875 55.009765625 -89.669921875 c 0
 80.486328125 -89.669921875 103.026367188 -108.479492188 104.840820312 -137.7734375 c 1
 124.588867188 -146.435546875 150.276367188 -139.750976562 169.666015625 -123.391601562 c 0
 183.6484375 -112.25390625 211.302734375 -52.4296875 244.4765625 26.01171875 c 1
 93.2412109375 324.907226562 l 1
 93.0361328125 325.3125 l 1
 92.857421875 325.73046875 l 2
 85.0771484375 343.935546875 59.423828125 377.259765625 37.9697265625 377.259765625 c 2
 22.650390625 377.259765625 l 2
 10.3681640625 377.259765625 0.080078125 387.240234375 0.080078125 399.919921875 c 2
 0.080078125 406.030273438 l 1
 0.080078125 413.530273438 l 1
 0.080078125 421.030273438 l 1
 7.580078125 421.030273438 l 1
 15.080078125 421.030273438 l 1
 217.509765625 421.030273438 l 1
 225.009765625 421.030273438 l 1
 232.509765625 421.030273438 l 1
 232.509765625 413.530273438 l 1
 232.509765625 406.030273438 l 1
 232.509765625 399.919921875 l 2
 232.509765625 388.374023438 223.4296875 377.259765625 210.01953125 377.259765625 c 2
 202.26953125 377.259765625 l 2
 197.337890625 377.259765625 193.919921875 376.548828125 191.77734375 375.7421875 c 0
 184.384765625 372.956054688 182.09765625 359.009765625 192.608398438 331.63671875 c 2
 292.72265625 139.42578125 l 1
 375.833007812 335.3203125 l 2
 379.099609375 342.4609375 380.48046875 348.645507812 380.549804688 354.260742188 c 0
 380.706054688 367.048828125 375.762695312 377.26953125 350.400390625 377.26953125 c 2
 323.98046875 377.26953125 l 2
 310.704101562 377.26953125 301.490234375 388.26171875 301.490234375 399.9296875 c 2
 301.490234375 406.040039062 l 1
 301.490234375 413.540039062 l 1
 301.490234375 421.040039062 l 1
 308.990234375 421.040039062 l 1
 316.490234375 421.040039062 l 1
 518.9296875 421.040039062 l 1
 526.4296875 421.040039062 l 1
 533.9296875 421.040039062 l 1
 533.9296875 413.540039062 l 1
 533.9296875 406.040039062 l 1
 533.9296875 399.9296875 l 2
 533.9296875 387.467773438 523.907226562 377.26953125 511.440429688 377.26953125 c 2
 496.030273438 377.26953125 l 2
 446.28125 377.26953125 434.709960938 346.553710938 425.409179688 327.95703125 c 0
 420.799804688 317.110351562 308.849609375 53.6240234375 266.5625 -45.76171875 c 0
EndSplineSet
EndChar

StartChar: z
Encoding: 122 122 70
Width: 425
Flags: MW
HStem: 0 49.873 371.18 49.8604
VStem: 18.25 43.7695 327.19 43.7695
LayerCount: 2
Fore
SplineSet
370.959960938 0 m 1
 363.459960938 0 l 1
 355.959960938 0 l 1
 24.0400390625 0 l 1
 10.931640625 0 l 1
 -2.4365234375 0 l 1
 4.5302734375 10.9658203125 l 1
 11.173828125 21.4208984375 l 1
 233.384765625 371.171875 l 1
 107.51953125 371.1796875 l 2
 72.38671875 371.1796875 62.01953125 336.478515625 62.01953125 317.830078125 c 2
 62.01953125 302.419921875 l 2
 62.01953125 289.95703125 51.8271484375 279.9296875 39.3603515625 279.9296875 c 2
 33.25 279.9296875 l 1
 25.75 279.9296875 l 1
 18.25 279.9296875 l 1
 18.25 287.4296875 l 1
 18.25 294.9296875 l 1
 18.25 406.040039062 l 1
 18.25 413.540039062 l 1
 18.25 421.040039062 l 1
 25.75 421.040039062 l 1
 33.25 421.040039062 l 1
 348.4296875 421.040039062 l 1
 361.59375 421.040039062 l 1
 375.020507812 421.040039062 l 1
 367.98046875 410.051757812 l 1
 361.267578125 399.57421875 l 1
 137.217773438 49.873046875 l 1
 281.690429688 49.849609375 l 2
 316.821289062 49.849609375 327.190429688 84.5498046875 327.190429688 103.209960938 c 2
 327.190429688 118.620117188 l 2
 327.190429688 131.083007812 337.3828125 141.110351562 349.849609375 141.110351562 c 2
 355.959960938 141.110351562 l 1
 363.459960938 141.110351562 l 1
 370.959960938 141.110351562 l 1
 370.959960938 133.610351562 l 1
 370.959960938 126.110351562 l 1
 370.959960938 15 l 1
 370.959960938 7.5 l 1
 370.959960938 0 l 1
EndSplineSet
EndChar

StartChar: quotedblleft
Encoding: 8220 8220 71
Width: 304
Flags: MW
HStem: 494.95 136.646
VStem: 0 120.32 153.68 120.32
LayerCount: 2
Fore
SplineSet
89.9091796875 632.249023438 m 1
 93.4228515625 626.23828125 l 2
 95.58984375 622.903320312 95.9638671875 622.12109375 95.9638671875 622.12109375 c 2
 98.0048828125 618.770507812 106.0390625 601.013671875 85.4951171875 592.684570312 c 0
 84.3564453125 592.198242188 82.3359375 591.379882812 81.072265625 590.856445312 c 1
 104.813476562 583.571289062 120.30859375 565.766601562 120.3203125 544.421875 c 0
 120.3203125 516.493164062 92.703125 494.950195312 60.16015625 494.950195312 c 0
 27.6025390625 494.950195312 0 516.538085938 0 544.493164062 c 0
 0 552.930664062 0.10546875 559.885742188 1.822265625 567.685546875 c 0
 2.875 572.466796875 4.48046875 577.318359375 6.8046875 582.887695312 c 0
 17.5087890625 608.423828125 47.0595703125 619.74609375 73.0244140625 631.596679688 c 2
 79.6005859375 635.291992188 l 1
 86.318359375 639.064453125 l 1
 89.9091796875 632.249023438 l 1
243.587890625 632.249023438 m 1
 247.1015625 626.240234375 l 2
 249.267578125 622.90625 249.646484375 622.115234375 249.646484375 622.115234375 c 2
 251.681640625 618.776367188 259.719726562 601.014648438 239.176757812 592.684570312 c 0
 238.034179688 592.197265625 236.016601562 591.379882812 234.752929688 590.856445312 c 1
 258.494140625 583.572265625 274 565.765625 274 544.421875 c 0
 274 516.493164062 246.383789062 494.950195312 213.83984375 494.950195312 c 0
 181.283203125 494.950195312 153.6796875 516.538085938 153.6796875 544.493164062 c 0
 153.6796875 552.930664062 153.78515625 559.885742188 155.501953125 567.685546875 c 0
 156.5546875 572.466796875 158.16015625 577.318359375 160.484375 582.887695312 c 0
 171.188476562 608.423828125 200.739257812 619.74609375 226.704101562 631.596679688 c 2
 233.279296875 635.291015625 l 1
 239.99609375 639.063476562 l 1
 243.587890625 632.249023438 l 1
EndSplineSet
EndChar

StartChar: quotedblright
Encoding: 8221 8221 72
Width: 314
Flags: MW
HStem: 496.784 136.646
VStem: -3.77539 120.32 149.904 120.32
LayerCount: 2
Fore
SplineSet
180.31640625 496.131835938 m 1
 176.802734375 502.141601562 l 2
 174.633789062 505.478515625 174.26171875 506.2578125 174.26171875 506.2578125 c 2
 172.21875 509.610351562 164.186523438 527.366210938 184.729492188 535.696289062 c 0
 185.865234375 536.180664062 187.895507812 537.002929688 189.145507812 537.520507812 c 1
 165.41796875 544.797851562 149.904296875 562.611328125 149.904296875 583.958007812 c 0
 149.904296875 611.88671875 177.521484375 633.4296875 210.064453125 633.4296875 c 0
 242.622070312 633.4296875 270.224609375 611.841796875 270.224609375 583.88671875 c 0
 270.224609375 575.44921875 270.119140625 568.494140625 268.40234375 560.694335938 c 0
 267.349609375 555.913085938 265.744140625 551.061523438 263.419921875 545.4921875 c 0
 252.715820312 519.956054688 223.165039062 508.634765625 197.200195312 496.784179688 c 2
 190.624023438 493.08984375 l 1
 183.907226562 489.31640625 l 1
 180.31640625 496.131835938 l 1
26.6376953125 496.130859375 m 1
 23.1240234375 502.139648438 l 2
 20.9560546875 505.474609375 20.578125 506.262695312 20.578125 506.262695312 c 2
 18.5419921875 509.604492188 10.5048828125 527.365234375 31.0478515625 535.6953125 c 0
 32.1875 536.181640625 34.21484375 537.002929688 35.4658203125 537.520507812 c 1
 11.7373046875 544.797851562 -3.775390625 562.611328125 -3.775390625 583.958007812 c 0
 -3.775390625 611.88671875 23.8408203125 633.4296875 56.384765625 633.4296875 c 0
 88.94140625 633.4296875 116.544921875 611.841796875 116.544921875 583.88671875 c 0
 116.544921875 575.44921875 116.439453125 568.494140625 114.72265625 560.694335938 c 0
 113.669921875 555.913085938 112.064453125 551.061523438 109.740234375 545.4921875 c 0
 99.0361328125 519.956054688 69.4853515625 508.634765625 43.5205078125 496.784179688 c 2
 36.9453125 493.08984375 l 1
 30.2294921875 489.317382812 l 1
 26.6376953125 496.130859375 l 1
EndSplineSet
EndChar

StartChar: emdash
Encoding: 8212 8212 73
Width: 686
Flags: MW
HStem: 153.72 94.6104
LayerCount: 2
Fore
SplineSet
632.299804688 153.719726562 m 1
 624.799804688 153.719726562 l 1
 617.299804688 153.719726562 l 1
 15.58984375 153.719726562 l 2
 6.7939453125 153.719726562 -0.2998046875 160.852539062 -0.2998046875 169.610351562 c 2
 -0.2998046875 233.330078125 l 1
 -0.2998046875 240.830078125 l 1
 -0.2998046875 248.330078125 l 1
 7.2001953125 248.330078125 l 1
 14.7001953125 248.330078125 l 1
 616.41015625 248.330078125 l 2
 625.196289062 248.330078125 632.299804688 241.208007812 632.299804688 232.440429688 c 2
 632.299804688 168.719726562 l 1
 632.299804688 161.219726562 l 1
 632.299804688 153.719726562 l 1
EndSplineSet
EndChar

StartChar: quoteleft
Encoding: 8216 8216 74
Width: 166
Flags: MW
HStem: 494.94 144.113
VStem: 1.83984 120.32
LayerCount: 2
Fore
SplineSet
91.748046875 632.23828125 m 1
 95.26171875 626.228515625 l 2
 97.4306640625 622.891601562 97.802734375 622.11328125 97.802734375 622.11328125 c 2
 99.8466796875 618.7578125 107.87890625 601.005859375 87.333984375 592.672851562 c 0
 86.1953125 592.1875 84.1669921875 591.366210938 82.9189453125 590.849609375 c 1
 106.647460938 583.572265625 122.16015625 565.758789062 122.16015625 544.411132812 c 0
 122.16015625 516.483398438 94.54296875 494.940429688 62 494.940429688 c 0
 29.4423828125 494.940429688 1.83984375 516.528320312 1.83984375 544.482421875 c 0
 1.83984375 552.920898438 1.9453125 559.875 3.662109375 567.674804688 c 0
 4.71484375 572.45703125 6.3203125 577.30859375 8.64453125 582.877929688 c 0
 19.3486328125 608.4140625 48.8994140625 619.735351562 74.8642578125 631.5859375 c 2
 81.4404296875 635.280273438 l 1
 88.1572265625 639.053710938 l 1
 91.748046875 632.23828125 l 1
EndSplineSet
EndChar

StartChar: quoteright
Encoding: 8217 8217 75
Width: 145
Flags: MW
HStem: 489.316 144.113
VStem: 2.19824 120.32
LayerCount: 2
Fore
SplineSet
32.6103515625 496.131835938 m 1
 29.0966796875 502.141601562 l 2
 26.927734375 505.478515625 26.5556640625 506.2578125 26.5556640625 506.2578125 c 2
 24.5126953125 509.610351562 16.4814453125 527.366210938 37.021484375 535.6953125 c 0
 38.1572265625 536.1796875 40.19140625 537.004882812 41.439453125 537.520507812 c 1
 17.7109375 544.797851562 2.1982421875 562.611328125 2.1982421875 583.958007812 c 0
 2.1982421875 611.88671875 29.814453125 633.4296875 62.3583984375 633.4296875 c 0
 94.916015625 633.4296875 122.518554688 611.841796875 122.518554688 583.88671875 c 0
 122.518554688 575.44921875 122.413085938 568.494140625 120.696289062 560.694335938 c 0
 119.643554688 555.913085938 118.038085938 551.061523438 115.713867188 545.4921875 c 0
 105.009765625 519.956054688 75.458984375 508.634765625 49.494140625 496.784179688 c 2
 42.91796875 493.08984375 l 1
 36.201171875 489.31640625 l 1
 32.6103515625 496.131835938 l 1
EndSplineSet
EndChar

StartChar: endash
Encoding: 8211 8211 76
Width: 455
Flags: MW
HStem: 153.72 94.6104
LayerCount: 2
Fore
SplineSet
371.83984375 153.719726562 m 1
 364.33984375 153.719726562 l 1
 356.83984375 153.719726562 l 1
 16.0400390625 153.719726562 l 2
 7.244140625 153.719726562 0.150390625 160.852539062 0.150390625 169.610351562 c 2
 0.150390625 233.330078125 l 1
 0.150390625 240.830078125 l 1
 0.150390625 248.330078125 l 1
 7.650390625 248.330078125 l 1
 15.150390625 248.330078125 l 1
 355.950195312 248.330078125 l 2
 364.736328125 248.330078125 371.83984375 241.208007812 371.83984375 232.440429688 c 2
 371.83984375 168.719726562 l 1
 371.83984375 161.219726562 l 1
 371.83984375 153.719726562 l 1
EndSplineSet
EndChar

StartChar: f_i
Encoding: 64257 64257 77
Width: 492
LigCaretCntFixed: 1
Flags: MW
HStem: 0.0302734 43.7695 383.9 49.8799 583.91 50.1396
VStem: 68.6396 94.4502 287.35 106.12 300.96 94.5303
LayerCount: 2
Fore
SplineSet
209.540039062 43.7998046875 m 2xf4
 221.526367188 43.7998046875 231.291992188 34.23046875 232.000976562 22.3251953125 c 1
 232.702148438 34.53515625 241.530273438 43.7998046875 254.459960938 43.7998046875 c 2
 269.780273438 43.7998046875 l 2
 283.041015625 43.7998046875 300.959960938 47.826171875 300.959960938 85.40234375 c 2
 300.990234375 342.299804688 l 2
 300.990234375 379.829101562 283.046875 383.900390625 269.76953125 383.900390625 c 2
 254.370117188 383.900390625 l 1
 163.08984375 383.900390625 l 1
 163.08984375 85.400390625 l 2
 163.08984375 47.6015625 180.284179688 43.7998046875 194.129882812 43.7998046875 c 2
 209.540039062 43.7998046875 l 2xf4
239.469726562 0.0302734375 m 1
 232 0.0302734375 l 1
 224.530273438 0.0302734375 l 1
 217.030273438 0.0302734375 l 1
 14.6103515625 0.0302734375 l 1
 7.1103515625 0.0302734375 l 1
 -0.3896484375 0.0302734375 l 1
 -0.3896484375 7.5302734375 l 1
 -0.3896484375 15.0302734375 l 1
 -0.3896484375 21.1396484375 l 2
 -0.3896484375 32.6689453125 8.6728515625 43.7998046875 22.099609375 43.7998046875 c 2
 37.419921875 43.7998046875 l 2
 50.73046875 43.7998046875 68.6396484375 47.8115234375 68.6396484375 85.396484375 c 2
 68.5537109375 383.900390625 l 1
 14.6103515625 383.900390625 l 1
 7.1103515625 383.900390625 l 1
 -0.3896484375 383.900390625 l 1
 -0.3896484375 391.400390625 l 1
 -0.3896484375 398.900390625 l 1
 -0.3896484375 418.780273438 l 1
 -0.3896484375 426.280273438 l 1
 -0.3896484375 433.780273438 l 1
 7.1103515625 433.780273438 l 1
 14.6103515625 433.780273438 l 1
 68.5498046875 433.780273438 l 1
 68.5498046875 482.26953125 l 2
 68.5498046875 592.110351562 168.83203125 634.049804688 252.310546875 634.049804688 c 0
 353.571289062 634.040039062 393.469726562 581.787109375 393.469726562 546.91015625 c 0
 393.469726562 517.607421875 369.713867188 493.849609375 340.41015625 493.849609375 c 0
 311.107421875 493.849609375 287.349609375 517.60546875 287.349609375 546.91015625 c 0xf8
 287.349609375 555.784179688 290.010742188 564.021484375 293.180664062 570.733398438 c 1
 285.819335938 577.194335938 274.397460938 583.91015625 253.620117188 583.91015625 c 0
 206.953125 583.91015625 163.080078125 539.556640625 163.080078125 488.5 c 2
 163.080078125 433.780273438 l 1
 246.870117188 433.780273438 l 1
 356.98046875 433.780273438 l 1
 380.450195312 433.780273438 l 1
 387.94921875 433.780273438 l 1
 395.448242188 433.780273438 l 1
 395.44921875 426.28125 l 1
 395.450195312 418.782226562 l 1
 395.490234375 85.6962890625 l 2
 395.490234375 47.6337890625 412.680664062 43.7998046875 426.490234375 43.7998046875 c 2
 441.900390625 43.7998046875 l 2
 454.349609375 43.7998046875 464.389648438 33.6171875 464.389648438 21.1396484375 c 2
 464.389648438 15.0302734375 l 1
 464.389648438 7.5302734375 l 1
 464.389648438 0.0302734375 l 1
 456.889648438 0.0302734375 l 1
 449.389648438 0.0302734375 l 1
 246.969726562 0.0302734375 l 1
 239.469726562 0.0302734375 l 1
EndSplineSet
Ligature2: "<1,2> Common Ligatures in Latin lookup 0 subtable" f i
LCarets2: 1 230
EndChar

StartChar: f_f
Encoding: 64256 64256 78
Width: 597
LigCaretCntFixed: 1
Flags: MW
HStem: 0.0302734 43.7695 383.9 49.8799 583.91 50.1396
VStem: 65.0986 94.46 286.538 94.4502 456.418 100.141
LayerCount: 2
Fore
SplineSet
449.928710938 0.0302734375 m 1
 217.508789062 0.0302734375 l 1
 -3.921875 0.0302734375 l 1
 -3.921875 21.1396484375 l 2
 -3.921875 32.669921875 5.142578125 43.7998046875 18.568359375 43.7998046875 c 2
 33.888671875 43.7998046875 l 2
 47.185546875 43.7998046875 65.0986328125 47.83203125 65.0986328125 85.623046875 c 2
 65.0126953125 385.748046875 l 1
 -3.931640625 385.748046875 l 1
 -3.931640625 433.780273438 l 1
 65.0087890625 433.780273438 l 1
 65.0087890625 482.26953125 l 2
 65.0087890625 592.109375 165.28125 634.049804688 248.768554688 634.049804688 c 0
 287.680664062 634.049804688 318.283203125 625.744140625 338.786132812 615.291992188 c 1
 359.919921875 628.415039062 384.788085938 634.049804688 415.388671875 634.049804688 c 0
 498.44921875 634.049804688 543.466796875 597.930664062 553.565429688 565.040039062 c 0
 556.208984375 556.875 556.55859375 553.35546875 556.55859375 547.959960938 c 0
 556.55859375 520.310546875 534.168945312 497.9296875 506.528320312 497.9296875 c 0
 478.922851562 497.9296875 456.41796875 520.270507812 456.41796875 547.959960938 c 0
 456.41796875 555.0546875 458.24609375 561.939453125 460.407226562 567.384765625 c 1
 454.69921875 574.14453125 443.204101562 583.91015625 418.05859375 583.91015625 c 0
 388.359375 583.91015625 380.98828125 553.770507812 380.98828125 494.599609375 c 2
 380.98828125 433.780273438 l 1
 463.868164062 433.780273438 l 1
 463.868164062 383.900390625 l 1
 380.98828125 383.900390625 l 1
 380.98828125 85.400390625 l 2
 380.98828125 47.6015625 398.182617188 43.7998046875 412.028320312 43.7998046875 c 2
 427.438476562 43.7998046875 l 2
 439.90234375 43.7998046875 449.928710938 33.60546875 449.928710938 21.1396484375 c 2
 449.928710938 0.0302734375 l 1
206.008789062 43.7998046875 m 2
 212.451171875 43.7998046875 218.729492188 40.5751953125 223.001953125 36.0087890625 c 1
 228.6015625 42.3466796875 232.84765625 43.7998046875 239.998046875 43.7998046875 c 2
 255.318359375 43.7998046875 l 2
 268.62890625 43.7998046875 286.538085938 47.8115234375 286.538085938 85.396484375 c 2
 286.452148438 383.900390625 l 1
 232.508789062 383.900390625 l 1
 159.55859375 383.900390625 l 1
 159.55859375 85.400390625 l 2
 159.55859375 47.6015625 176.752929688 43.7998046875 190.598632812 43.7998046875 c 2
 206.008789062 43.7998046875 l 2
239.91796875 433.780273438 m 1
 286.448242188 433.780273438 l 1
 286.448242188 494.599609375 l 2
 286.448242188 521.286132812 290.375 544.965820312 297.715820312 564.393554688 c 1
 288.563476562 574.809570312 274.545898438 583.91015625 250.108398438 583.91015625 c 0
 203.430664062 583.91015625 159.568359375 539.557617188 159.568359375 488.5 c 2
 159.568359375 433.780273438 l 1
 232.518554688 433.780273438 l 1
 239.91796875 433.780273438 l 1
EndSplineSet
Ligature2: "<1,2> Common Ligatures in Latin lookup 0 subtable" f f
LCarets2: 1 226
EndChar

StartChar: f_f_i
Encoding: 64259 64259 79
Width: 728
LigCaretCntFixed: 1
Flags: MW
HStem: 0.0195312 43.7705 383.89 49.8799 583.9 50.1396
VStem: 70.4902 94.4502 302.79 94.4502 521.52 106.12 535.12 94.5303
LayerCount: 2
Fore
SplineSet
211.389648438 43.7900390625 m 2xf8
 222.931640625 43.7900390625 232.45703125 34.423828125 233.823242188 22.974609375 c 1
 235.297851562 35.8330078125 243.79296875 43.7900390625 256.25 43.7900390625 c 2
 271.5703125 43.7900390625 l 2
 284.6484375 43.7900390625 302.801757812 48.0712890625 302.790039062 89.2861328125 c 2
 302.704101562 384 l 1
 164.940429688 384 l 1
 164.940429688 89.2900390625 l 2
 164.940429688 47.8486328125 182.364257812 43.7900390625 195.98046875 43.7900390625 c 2
 211.389648438 43.7900390625 l 2xf8
443.690429688 43.7900390625 m 2
 455.6953125 43.7900390625 465.446289062 34.138671875 466.155273438 22.2236328125 c 1
 466.858398438 34.447265625 475.705078125 43.7900390625 488.620117188 43.7900390625 c 2
 503.940429688 43.7900390625 l 2
 517.200195312 43.7900390625 535.120117188 47.8173828125 535.120117188 85.392578125 c 2xfa
 535.150390625 342.2890625 l 2
 535.150390625 379.810546875 517.204101562 383.889648438 503.9296875 383.889648438 c 2
 488.530273438 383.889648438 l 1
 397.240234375 383.889648438 l 1
 397.240234375 85.390625 l 2
 397.240234375 47.591796875 414.434570312 43.7900390625 428.280273438 43.7900390625 c 2
 443.690429688 43.7900390625 l 2
241.259765625 0.01953125 m 1
 233.8203125 0.01953125 l 1
 226.379882812 0.01953125 l 1
 218.879882812 0.01953125 l 1
 16.4599609375 0.01953125 l 1
 8.9599609375 0.01953125 l 1
 1.4599609375 0.01953125 l 1
 1.4599609375 7.51953125 l 1
 1.4599609375 15.01953125 l 1
 1.4599609375 21.1298828125 l 2
 1.4599609375 32.66015625 10.5244140625 43.7900390625 23.9501953125 43.7900390625 c 2
 39.26953125 43.7900390625 l 2
 52.580078125 43.7900390625 70.490234375 47.8017578125 70.490234375 85.38671875 c 2
 70.404296875 383.889648438 l 1
 16.4599609375 383.889648438 l 1
 8.9599609375 383.889648438 l 1
 1.4599609375 383.889648438 l 1
 1.4599609375 391.389648438 l 1
 1.4599609375 398.889648438 l 1
 1.4599609375 418.76953125 l 1
 1.4599609375 426.26953125 l 1
 1.4599609375 433.76953125 l 1
 8.9599609375 433.76953125 l 1
 16.4599609375 433.76953125 l 1
 70.400390625 433.76953125 l 1
 70.400390625 482.259765625 l 2
 70.400390625 592.099609375 170.672851562 634.040039062 254.16015625 634.040039062 c 0
 307.936523438 634.040039062 343.748046875 619.14453125 365.671875 601.05078125 c 1
 401.247070312 624.510742188 444.838867188 634.040039062 486.469726562 634.040039062 c 0
 587.7421875 634.040039062 627.639648438 581.776367188 627.639648438 546.900390625 c 0
 627.639648438 517.59765625 603.883789062 493.83984375 574.580078125 493.83984375 c 0
 545.27734375 493.83984375 521.51953125 517.595703125 521.51953125 546.900390625 c 0xfc
 521.51953125 555.772460938 524.169921875 563.994140625 527.348632812 570.724609375 c 1
 519.9921875 577.182617188 508.56640625 583.900390625 487.790039062 583.900390625 c 0
 441.112304688 583.900390625 397.25 539.547851562 397.25 488.490234375 c 2
 397.25 433.76953125 l 1
 481.040039062 433.76953125 l 1
 591.139648438 433.76953125 l 1
 614.610351562 433.76953125 l 1
 622.109375 433.76953125 l 1
 629.608398438 433.76953125 l 1
 629.609375 426.270507812 l 1
 629.610351562 418.771484375 l 1
 629.650390625 85.6865234375 l 2
 629.650390625 47.6240234375 646.840820312 43.7900390625 660.650390625 43.7900390625 c 2
 676.059570312 43.7900390625 l 2
 688.526367188 43.7900390625 698.549804688 33.5927734375 698.549804688 21.1298828125 c 2
 698.549804688 15.01953125 l 1
 698.549804688 7.51953125 l 1
 698.549804688 0.01953125 l 1
 691.049804688 0.01953125 l 1
 683.549804688 0.01953125 l 1
 481.129882812 0.01953125 l 1
 473.629882812 0.01953125 l 1
 466.154296875 0.01953125 l 1
 458.6796875 0.01953125 l 1
 451.1796875 0.01953125 l 1
 248.759765625 0.01953125 l 1
 241.259765625 0.01953125 l 1
255.469726562 583.900390625 m 0
 208.79296875 583.900390625 164.9296875 539.547851562 164.9296875 488.490234375 c 2
 164.9296875 433.76953125 l 1
 302.700195312 433.76953125 l 1
 302.700195312 482.259765625 l 2
 302.700195312 508.651367188 308.921875 531.446289062 318.96875 550.766601562 c 1
 300.951171875 574.602539062 282.41796875 583.900390625 255.469726562 583.900390625 c 0
EndSplineSet
Ligature2: "<1,2> Common Ligatures in Latin lookup 0 subtable" f f i
LCarets2: 2 234 466
EndChar

StartChar: f_l
Encoding: 64258 64258 80
Width: 479
LigCaretCntFixed: 1
Flags: MW
HStem: 0.0195312 43.7705 383.43 49.8799 583.44 50.1396
VStem: 64.7598 94.4502 296.67 94.4502
LayerCount: 2
Fore
SplineSet
205.659179688 43.7900390625 m 2
 216.739257812 43.7900390625 225.970703125 35.3017578125 227.8984375 24.576171875 c 1
 229.6328125 34.6533203125 238.223632812 43.7998046875 250.129882812 43.7998046875 c 2
 265.44921875 43.7998046875 l 2
 278.686523438 43.7998046875 296.669921875 47.8955078125 296.669921875 86.646484375 c 2
 296.669921875 564.07421875 l 1
 289.184570312 572.608398438 275.421875 583.440429688 249.759765625 583.440429688 c 0
 203.08203125 583.440429688 159.219726562 539.087890625 159.219726562 488.030273438 c 2
 159.219726562 433.309570312 l 1
 227.219726562 433.309570312 l 1
 236.014648438 433.309570312 l 1
 244.810546875 433.309570312 l 1
 243.420898438 424.625 l 1
 242.03125 415.939453125 l 2
 241.415039062 412.0859375 241.9296875 407.779296875 243.427734375 404.145507812 c 2
 247.697265625 393.788085938 l 1
 251.966796875 383.4296875 l 1
 240.762695312 383.4296875 l 1
 229.559570312 383.4296875 l 1
 159.209960938 383.4296875 l 1
 159.209960938 85.3857421875 l 2
 159.209960938 47.5908203125 176.403320312 43.7900390625 190.25 43.7900390625 c 2
 205.659179688 43.7900390625 l 2
235.139648438 0.0302734375 m 1
 228.36328125 0.025390625 l 1
 220.649414062 0.01953125 l 1
 213.149414062 0.01953125 l 1
 10.7294921875 0.01953125 l 1
 3.2294921875 0.01953125 l 1
 -4.2705078125 0.01953125 l 1
 -4.2705078125 7.51953125 l 1
 -4.2705078125 15.01953125 l 1
 -4.2705078125 21.1298828125 l 2
 -4.2705078125 32.66015625 4.7939453125 43.7900390625 18.2197265625 43.7900390625 c 2
 33.5400390625 43.7900390625 l 2
 46.849609375 43.7900390625 64.759765625 47.8017578125 64.759765625 85.3818359375 c 2
 64.673828125 383.4296875 l 1
 10.7294921875 383.4296875 l 1
 3.2294921875 383.4296875 l 1
 -4.2705078125 383.4296875 l 1
 -4.2705078125 390.9296875 l 1
 -4.2705078125 398.4296875 l 1
 -4.2705078125 418.309570312 l 1
 -4.2705078125 425.809570312 l 1
 -4.2705078125 433.309570312 l 1
 3.2294921875 433.309570312 l 1
 10.7294921875 433.309570312 l 1
 64.669921875 433.309570312 l 1
 64.669921875 481.799804688 l 2
 64.669921875 591.639648438 164.942382812 633.580078125 248.4296875 633.580078125 c 0
 281.823242188 633.580078125 309.116210938 627.354492188 327.75390625 619.669921875 c 1
 376.120117188 619.669921875 l 1
 383.620117188 619.669921875 l 1
 391.120117188 619.669921875 l 1
 391.120117188 612.169921875 l 1
 391.120117188 604.669921875 l 1
 391.120117188 86.810546875 l 2
 391.120117188 47.685546875 408.396484375 43.7900390625 422.159179688 43.7900390625 c 2
 437.569335938 43.7900390625 l 2
 450.030273438 43.7900390625 460.03125 33.6240234375 460.059570312 21.1396484375 c 2
 460.059570312 15.0302734375 l 1
 460.059570312 7.5302734375 l 1
 460.059570312 0.0302734375 l 1
 452.559570312 0.0302734375 l 1
 445.059570312 0.0302734375 l 1
 242.639648438 0.0302734375 l 1
 235.139648438 0.0302734375 l 1
EndSplineSet
Ligature2: "<1,2> Common Ligatures in Latin lookup 0 subtable" f l
LCarets2: 1 228
EndChar

StartChar: f_f_l
Encoding: 64260 64260 81
Width: 722
LigCaretCntFixed: 1
Flags: MW
HStem: 0.0302734 43.7695 383.9 49.8799 583.91 50.1299
VStem: 71.0898 94.4502 303.37 94.4502 534.46 94.5498
LayerCount: 2
Fore
SplineSet
211.990234375 43.7998046875 m 2
 223.529296875 43.7998046875 233.049804688 34.4990234375 234.413085938 23.072265625 c 1
 235.891601562 35.9453125 244.388671875 43.7998046875 256.830078125 43.7998046875 c 2
 272.150390625 43.7998046875 l 2
 285.228515625 43.7998046875 303.381835938 48.0810546875 303.370117188 89.2958984375 c 2
 303.284179688 384 l 1
 165.540039062 384 l 1
 165.540039062 89.2998046875 l 2
 165.540039062 47.8583984375 182.963867188 43.7998046875 196.580078125 43.7998046875 c 2
 211.990234375 43.7998046875 l 2
444.26953125 43.7998046875 m 2
 454.88671875 43.7998046875 463.743164062 36.3759765625 466.1328125 26.466796875 c 1
 469.354492188 37.603515625 477.016601562 43.7900390625 488.009765625 43.7900390625 c 2
 503.330078125 43.7900390625 l 2
 516.54296875 43.7900390625 534.459960938 47.8525390625 534.459960938 86.638671875 c 2
 534.5390625 564.052734375 l 1
 527.662109375 572.096679688 513.52734375 583.91015625 488.419921875 583.91015625 c 0
 441.698242188 583.91015625 397.8203125 539.54296875 397.8203125 488.490234375 c 2
 397.8203125 433.780273438 l 1
 466.389648438 433.780273438 l 1
 477.650390625 433.780273438 l 1
 488.911132812 433.780273438 l 1
 484.571289062 423.389648438 l 1
 480.23046875 412.999023438 l 2
 478.681640625 409.291015625 478.131835938 404.985351562 478.715820312 401.174804688 c 2
 480.041015625 392.537109375 l 1
 481.366210938 383.900390625 l 1
 472.627929688 383.900390625 l 1
 463.889648438 383.900390625 l 1
 397.8203125 383.900390625 l 1
 397.8203125 85.400390625 l 2
 397.8203125 47.6015625 415.014648438 43.7998046875 428.860351562 43.7998046875 c 2
 444.26953125 43.7998046875 l 2
241.83984375 0.0302734375 m 1
 234.41015625 0.0302734375 l 1
 226.98046875 0.0302734375 l 1
 219.48046875 0.0302734375 l 1
 17.0595703125 0.0302734375 l 1
 9.5595703125 0.0302734375 l 1
 2.0595703125 0.0302734375 l 1
 2.0595703125 7.5302734375 l 1
 2.0595703125 15.0302734375 l 1
 2.0595703125 21.1396484375 l 2
 2.0595703125 32.671875 11.125 43.7998046875 24.5498046875 43.7998046875 c 2
 39.8701171875 43.7998046875 l 2
 53.1796875 43.7998046875 71.08984375 47.8115234375 71.08984375 85.396484375 c 2
 71.00390625 383.900390625 l 1
 17.0595703125 383.900390625 l 1
 9.5595703125 383.900390625 l 1
 2.0595703125 383.900390625 l 1
 2.0595703125 391.400390625 l 1
 2.0595703125 398.900390625 l 1
 2.0595703125 418.780273438 l 1
 2.0595703125 426.280273438 l 1
 2.0595703125 433.780273438 l 1
 9.5595703125 433.780273438 l 1
 17.0595703125 433.780273438 l 1
 71 433.780273438 l 1
 71 482.290039062 l 2
 71 592.072265625 171.282226562 634.040039062 254.76953125 634.040039062 c 0
 308.565429688 634.040039062 344.376953125 619.111328125 366.262695312 601.041015625 c 1
 401.889648438 624.534179688 445.469726562 634.040039062 487.049804688 634.040039062 c 0
 521.116210938 634.040039062 548.771484375 627.598632812 567.515625 619.669921875 c 1
 614.009765625 619.669921875 l 1
 621.509765625 619.669921875 l 1
 629.009765625 619.669921875 l 1
 629.009765625 612.169921875 l 1
 629.009765625 604.669921875 l 1
 629.009765625 86.810546875 l 2
 629.009765625 47.685546875 646.286132812 43.7900390625 660.049804688 43.7900390625 c 2
 675.459960938 43.7900390625 l 2
 687.928710938 43.7900390625 697.940429688 33.583984375 697.940429688 21.1298828125 c 2
 697.940429688 15.01953125 l 1
 697.940429688 7.51953125 l 1
 697.940429688 0.01953125 l 1
 690.440429688 0.01953125 l 1
 682.940429688 0.01953125 l 1
 480.51953125 0.01953125 l 1
 473.01953125 0.01953125 l 1
 465.202148438 0.025390625 l 1
 459.259765625 0.0302734375 l 1
 451.759765625 0.0302734375 l 1
 249.33984375 0.0302734375 l 1
 241.83984375 0.0302734375 l 1
165.540039062 433.780273438 m 1
 303.280273438 433.780273438 l 1
 303.280273438 482.290039062 l 2
 303.280273438 508.704101562 309.564453125 531.502929688 319.604492188 550.76953125 c 1
 301.6015625 574.5703125 282.991210938 583.91015625 256.049804688 583.91015625 c 0
 209.427734375 583.91015625 165.540039062 539.548828125 165.540039062 488.490234375 c 2
 165.540039062 433.780273438 l 1
EndSplineSet
Ligature2: "<1,2> Common Ligatures in Latin lookup 0 subtable" f f l
LCarets2: 2 194 427
EndChar

StartChar: T_h
Encoding: 65537 -1 82
Width: 987
LigCaretCntFixed: 1
Flags: MW
HStem: 0.0195312 43.7705 396.71 52.0596 569.88 49.79
VStem: 0.540039 43.7695 220.43 94.4707 490.89 94.5303 792.03 94.5293
LayerCount: 2
Fore
SplineSet
0.5400390625 619.669921875 m 1
 8.0400390625 619.669921875 l 1
 15.5400390625 619.669921875 l 1
 570.370117188 619.669921875 l 1
 577.869140625 619.669921875 l 1
 585.369140625 619.669921875 l 1
 585.369140625 612.170898438 l 1
 585.370117188 605 l 1
 585.38671875 412.024414062 l 1
 628.23046875 443.452148438 683.258789062 448.76953125 707.76953125 448.76953125 c 0
 781.513671875 448.76953125 886.530273438 411.505859375 886.530273438 303.04296875 c 2
 886.559570312 87.5234375 l 2
 886.559570312 47.736328125 903.859375 43.7802734375 917.559570312 43.7802734375 c 2
 932.969726562 43.7802734375 l 2
 945.434570312 43.7802734375 955.459960938 33.5849609375 955.459960938 21.1201171875 c 2
 955.459960938 15.009765625 l 1
 955.459960938 7.509765625 l 1
 955.459960938 0.009765625 l 1
 947.959960938 0.009765625 l 1
 940.459960938 0.009765625 l 1
 738.040039062 0.009765625 l 1
 730.540039062 0.009765625 l 1
 723.040039062 0.009765625 l 1
 723.040039062 7.509765625 l 1
 723.040039062 15.009765625 l 1
 723.040039062 21.1201171875 l 2
 723.040039062 32.650390625 732.104492188 43.7802734375 745.530273438 43.7802734375 c 2
 760.849609375 43.7802734375 l 2
 773.994140625 43.7802734375 792.030273438 47.9462890625 792.030273438 87.3134765625 c 2
 791.98046875 294.21875 l 2
 791.98046875 357.087890625 773.250976562 396.709960938 703.3203125 396.709960938 c 0
 641.087890625 396.709960938 585.400390625 351.72265625 585.400390625 302.495117188 c 2
 585.419921875 87.3271484375 l 2
 585.419921875 47.7314453125 602.708984375 43.7900390625 616.419921875 43.7900390625 c 2
 631.830078125 43.7900390625 l 2
 644.294921875 43.7900390625 654.3203125 33.5947265625 654.3203125 21.1298828125 c 2
 654.3203125 15.01953125 l 1
 654.3203125 7.51953125 l 1
 654.3203125 0.01953125 l 1
 646.8203125 0.01953125 l 1
 639.3203125 0.01953125 l 1
 436.900390625 0.01953125 l 1
 429.400390625 0.01953125 l 1
 421.900390625 0.01953125 l 1
 421.900390625 7.51953125 l 1
 421.900390625 15.01953125 l 1
 421.900390625 21.1298828125 l 2
 421.900390625 32.673828125 430.979492188 43.7900390625 444.389648438 43.7900390625 c 2
 459.709960938 43.7900390625 l 2
 472.893554688 43.7900390625 490.889648438 47.9072265625 490.889648438 86.67578125 c 2
 490.919921875 519.411132812 l 2
 490.919921875 536.243164062 480.416015625 569.879882812 445.419921875 569.879882812 c 2
 314.900390625 569.879882812 l 1
 314.900390625 86.6748046875 l 2
 314.900390625 47.67578125 332.169921875 43.7900390625 345.940429688 43.7900390625 c 2
 361.33984375 43.7900390625 l 2
 373.8046875 43.7900390625 383.830078125 33.5947265625 383.830078125 21.1298828125 c 2
 383.830078125 15.01953125 l 1
 383.830078125 7.51953125 l 1
 383.830078125 0.01953125 l 1
 376.330078125 0.01953125 l 1
 368.830078125 0.01953125 l 1
 166.41015625 0.01953125 l 1
 158.91015625 0.01953125 l 1
 151.41015625 0.01953125 l 1
 151.41015625 7.51953125 l 1
 151.41015625 15.01953125 l 1
 151.41015625 21.1298828125 l 2
 151.41015625 32.66015625 160.474609375 43.7900390625 173.900390625 43.7900390625 c 2
 189.209960938 43.7900390625 l 2
 202.443359375 43.7900390625 220.4296875 47.8876953125 220.4296875 86.6748046875 c 2
 220.4296875 569.879882812 l 1
 89.8095703125 569.879882812 l 2
 54.892578125 569.879882812 44.3095703125 534.450195312 44.3095703125 516.370117188 c 2
 44.3095703125 501.049804688 l 2
 44.3095703125 487.627929688 33.1845703125 478.559570312 21.650390625 478.559570312 c 2
 15.5400390625 478.559570312 l 1
 8.0400390625 478.559570312 l 1
 0.5400390625 478.559570312 l 1
 0.5400390625 486.059570312 l 1
 0.5400390625 493.559570312 l 1
 0.5400390625 604.669921875 l 1
 0.5400390625 612.169921875 l 1
 0.5400390625 619.669921875 l 1
EndSplineSet
Ligature2: "<1,2> Common Ligatures in Latin lookup 0 subtable" T h
LCarets2: 1 416
EndChar
